<svg xmlns="http://www.w3.org/2000/svg" viewBox="0 0 64 64"><g id="Artificial_Intelligence-Engineering-Chip-Robot-Technology" data-name="Artificial Intelligence-Engineering-Chip-Robot-Technology"><path d="M50.65,45.66,38,43V40H26v3L13.35,45.66A8.005,8.005,0,0,0,7,53.49V61H57V53.49A8.005,8.005,0,0,0,50.65,45.66Z" style="fill:#ffa733"/><polygon points="45 51 45 61 19 61 19 51 23 48 41 48 45 51" style="fill:#e6e7e8"/><path d="M45,16V34l-6,6H25l-6-6V16a12.962,12.962,0,0,1,3.81-9.19A11.909,11.909,0,0,1,24,5.76,13,13,0,0,1,45,16Z" style="fill:#ffa733"/><path d="M49,18v8a2,2,0,0,1-4,0V18a2.006,2.006,0,0,1,2-2,2.015,2.015,0,0,1,2,2Z" style="fill:#ee8700"/><rect x="26" y="17" width="12" height="12" style="fill:#acabb1"/><path d="M35,3.35V4L34,7H30L29,4V3.35a13.032,13.032,0,0,1,6,0Z" style="fill:#ff5023"/><rect x="30" y="21" width="4" height="4" style="fill:#c6c5ca"/><path d="M31,57v4H23V57a4,4,0,0,1,8,0Z" style="fill:#ff5023"/><path d="M19,18v8a2,2,0,0,1-4,0V18a2.015,2.015,0,0,1,2-2A2.006,2.006,0,0,1,19,18Z" style="fill:#ee8700"/><rect x="26" y="40" width="12" height="2" style="fill:#ff9811"/><path d="M50.85,44.68,39,42.19V41a1.033,1.033,0,0,0,.71-.29l6-6A1.033,1.033,0,0,0,46,34V28.82A2.98,2.98,0,0,0,50,26V18a3.009,3.009,0,0,0-3-3,2.96,2.96,0,0,0-1.04.2,13.982,13.982,0,0,0-27.92,0A2.96,2.96,0,0,0,17,15a3.009,3.009,0,0,0-3,3v8a2.98,2.98,0,0,0,4,2.82V34a1.033,1.033,0,0,0,.29.71l6,6A1.033,1.033,0,0,0,25,41v1.19L13.15,44.68A9.046,9.046,0,0,0,6,53.49V61a1,1,0,0,0,1,1H57a1,1,0,0,0,1-1V53.49A9.046,9.046,0,0,0,50.85,44.68ZM46,18a1,1,0,0,1,2,0v8a1,1,0,0,1-2,0ZM18,26a1,1,0,0,1-2,0V18a1,1,0,0,1,2,0ZM32,4a13.022,13.022,0,0,1,1.89.16L33.28,6H30.72l-.61-1.84A13.022,13.022,0,0,1,32,4ZM20,33.59V16a11.944,11.944,0,0,1,3.32-8.26l1.97,1.97,1.42-1.42L25,6.59V6.27a12.135,12.135,0,0,1,3.16-1.63l.89,2.68A1.014,1.014,0,0,0,30,8h4a1.014,1.014,0,0,0,.95-.68l.89-2.68A12.135,12.135,0,0,1,39,6.27v.32l-1.71,1.7,1.42,1.42,1.97-1.97A11.944,11.944,0,0,1,44,16V33.59L38.59,39H25.41ZM30,60H24V57a3,3,0,0,1,6,0Zm14,0H32V57a5,5,0,0,0-10,0v3H20V51.5L23.33,49H40.67L44,51.5Zm12,0H54V54H52v6H50V53.41l2.71-2.7-1.42-1.42-3,3A1.033,1.033,0,0,0,48,53v7H46V51a1.014,1.014,0,0,0-.4-.8l-4-3A.984.984,0,0,0,41,47H23a.984.984,0,0,0-.6.2l-4,3a1.014,1.014,0,0,0-.4.8v9H16V53a1.033,1.033,0,0,0-.29-.71l-3-3-1.42,1.42L14,53.41V60H12V54H10v6H8V53.49a7.037,7.037,0,0,1,5.56-6.85l12.65-2.66A1,1,0,0,0,27,43V41H37v2a1,1,0,0,0,.79.98l12.65,2.66A7.037,7.037,0,0,1,56,53.49Z"/><rect x="34" y="52" width="8" height="2"/><rect x="34" y="56" width="8" height="2"/><path d="M34,20H30a1,1,0,0,0-1,1v4a1,1,0,0,0,1,1h4a1,1,0,0,0,1-1V21A1,1,0,0,0,34,20Zm-1,4H31V22h2Z"/><path d="M39.99,20a1.009,1.009,0,0,0,.7-.29L41.4,19H42V17H40.99a1.033,1.033,0,0,0-.71.29l-.71.71H39V17a1,1,0,0,0-1-1H37v-.58l1.71-1.71A1.033,1.033,0,0,0,39,13V11H37v1.59L35.29,14.3A1.009,1.009,0,0,0,35,15v1H33V11H31v5H29v-.97a1.052,1.052,0,0,0-.29-.71L27,12.62V11H25v2.03a1.033,1.033,0,0,0,.29.71L27,15.45V16H26a1,1,0,0,0-1,1v1h-.57l-.71-.71a1.033,1.033,0,0,0-.71-.29H22v2h.6l.71.71a1.009,1.009,0,0,0,.7.29H25v2H22v2h3v2h-.99a1.009,1.009,0,0,0-.7.29L22.6,27H22v2h1.01a1.033,1.033,0,0,0,.71-.29l.71-.71H25v1a1,1,0,0,0,1,1h1v.55l-1.71,1.71a1.033,1.033,0,0,0-.29.71V35h2V33.38l1.71-1.7a1.052,1.052,0,0,0,.29-.71V30h2v5h2V30h2v1a1.009,1.009,0,0,0,.29.7L37,33.41V35h2V33a1.033,1.033,0,0,0-.29-.71L37,30.58V30h1a1,1,0,0,0,1-1V28h.57l.71.71a1.033,1.033,0,0,0,.71.29H42V27h-.6l-.71-.71a1.009,1.009,0,0,0-.7-.29H39V24h3V22H39V20ZM37,28H27V18H37Z"/></g></svg>