<svg xmlns="http://www.w3.org/2000/svg" viewBox="0 0 64 64"><g id="Blueprint-Engineer-Architecture-Construction-Plan"><path d="M61,18V58H7a4,4,0,0,1-2.83-6.83A4.225,4.225,0,0,1,5,50.54,3.989,3.989,0,0,1,7,50h4V18Z" style="fill:#5aaae7"/><path d="M11,18V50H7a3.995,3.995,0,0,0-4,4V16a4,4,0,0,1,4-4h4Z" style="fill:#3d9ae2"/><rect x="51" y="24" width="8" height="34" style="fill:#3d9ae2"/><rect x="49" y="22" width="8" height="36" style="fill:#ffd422"/><polygon points="55 10 50 12.22 50 7.78 55 10" style="fill:#898890"/><polygon points="50 7.78 50 12.22 46 14 46 10 46 6 50 7.78" style="fill:#acabb1"/><rect x="24" y="10" width="22" height="4" style="fill:#00ccb3"/><rect x="24" y="6" width="22" height="4" style="fill:#00b39d"/><path d="M41.68,42.47a9.8,9.8,0,0,1-1.09,2.62l2.02,2.69-2.83,2.83-2.69-2.02a9.8,9.8,0,0,1-2.62,1.09L34,53H30l-.47-3.32a9.8,9.8,0,0,1-2.62-1.09l-2.69,2.02-2.83-2.83,2.02-2.69a9.8,9.8,0,0,1-1.09-2.62L19,42V38l3.32-.47a9.8,9.8,0,0,1,1.09-2.62l-2.02-2.69,2.83-2.83,2.69,2.02a9.8,9.8,0,0,1,2.62-1.09L30,27h4l.47,3.32a9.8,9.8,0,0,1,2.62,1.09l2.69-2.02,2.83,2.83-2.02,2.69a9.8,9.8,0,0,1,1.09,2.62L45,38v4Z" style="fill:#3d9ae2"/><polygon points="24 10 24 14 21 14 21 6 24 6 24 10" style="fill:#e6e7e8"/><path d="M21,6v8H19a4,4,0,0,1,0-8Z" style="fill:#d1d3d4"/><path d="M39.68,40.47a9.8,9.8,0,0,1-1.09,2.62l2.02,2.69-2.83,2.83-2.69-2.02a9.8,9.8,0,0,1-2.62,1.09L32,51H28l-.47-3.32a9.8,9.8,0,0,1-2.62-1.09l-2.69,2.02-2.83-2.83,2.02-2.69a9.8,9.8,0,0,1-1.09-2.62L17,40V36l3.32-.47a9.8,9.8,0,0,1,1.09-2.62l-2.02-2.69,2.83-2.83,2.69,2.02a9.8,9.8,0,0,1,2.62-1.09L28,25h4l.47,3.32a9.8,9.8,0,0,1,2.62,1.09l2.69-2.02,2.83,2.83-2.02,2.69a9.8,9.8,0,0,1,1.09,2.62L43,36v4Z" style="fill:#ff9811"/><circle cx="30" cy="38" r="5" style="fill:#ffd422"/><path d="M61,17H12V12a1,1,0,0,0-1-1H7a5,5,0,0,0-5,5V54a5,5,0,0,0,5,5H61a1,1,0,0,0,1-1V18A1,1,0,0,0,61,17ZM4,16a3.009,3.009,0,0,1,3-3h3V49H7a4.985,4.985,0,0,0-3,1ZM56,57H50V53h4V51H50V49h2V47H50V45h2V43H50V41h4V39H50V37h2V35H50V33h2V31H50V29h4V27H50V23h6Zm4,0H58V22a1,1,0,0,0-1-1H49a1,1,0,0,0-1,1V57H7a3,3,0,0,1,0-6h4a1,1,0,0,0,1-1V19H60Z"/><path d="M19,15H46a1,1,0,0,0,.406-.086l9-4a1,1,0,0,0,0-1.828l-9-4A1,1,0,0,0,46,5H19a5,5,0,0,0,0,10Zm6-4H45v2H25ZM47,7.539l2,.889v3.144l-2,.889ZM45,9H25V7H45ZM23,13H22V7h1Zm28-2.317V9.317L52.538,10ZM19,7h1v6H19a3,3,0,0,1,0-6Z"/><path d="M16.858,40.99l2.682.383a10.96,10.96,0,0,0,.678,1.639l-1.624,2.166a1,1,0,0,0,.093,1.307l2.828,2.828a1,1,0,0,0,1.307.093l2.166-1.624a10.96,10.96,0,0,0,1.639.678l.383,2.682A1,1,0,0,0,28,52h4a1,1,0,0,0,.99-.858l.383-2.682a10.96,10.96,0,0,0,1.639-.678l2.166,1.624a1,1,0,0,0,1.307-.093l2.828-2.828a1,1,0,0,0,.093-1.307l-1.624-2.166a10.96,10.96,0,0,0,.678-1.639l2.682-.383A1,1,0,0,0,44,40V36a1,1,0,0,0-.858-.99l-2.682-.383a10.96,10.96,0,0,0-.678-1.639l1.624-2.166a1,1,0,0,0-.093-1.307l-2.828-2.828a1,1,0,0,0-1.307-.093l-2.166,1.624a10.96,10.96,0,0,0-1.639-.678l-.383-2.682A1,1,0,0,0,32,24H28a1,1,0,0,0-.99.858l-.383,2.682a10.96,10.96,0,0,0-1.639.678l-2.166-1.624a1,1,0,0,0-1.307.093l-2.828,2.828a1,1,0,0,0-.093,1.307l1.624,2.166a10.96,10.96,0,0,0-.678,1.639l-2.682.383A1,1,0,0,0,16,36v4A1,1,0,0,0,16.858,40.99ZM18,36.867l2.463-.352a1,1,0,0,0,.828-.743,8.892,8.892,0,0,1,.975-2.356,1,1,0,0,0-.06-1.111l-1.492-1.99,1.6-1.6,1.99,1.492a1,1,0,0,0,1.111.06,8.892,8.892,0,0,1,2.356-.975,1,1,0,0,0,.743-.828L28.867,26h2.266l.352,2.463a1,1,0,0,0,.743.828,8.892,8.892,0,0,1,2.356.975,1,1,0,0,0,1.111-.06l1.99-1.492,1.6,1.6-1.492,1.99a1,1,0,0,0-.06,1.111,8.892,8.892,0,0,1,.975,2.356,1,1,0,0,0,.828.743L42,36.867v2.266l-2.463.352a1,1,0,0,0-.828.743,8.892,8.892,0,0,1-.975,2.356,1,1,0,0,0,.06,1.111l1.492,1.99-1.6,1.6L35.7,45.794a1,1,0,0,0-1.111-.06,8.892,8.892,0,0,1-2.356.975,1,1,0,0,0-.743.828L31.133,50H28.867l-.352-2.463a1,1,0,0,0-.743-.828,8.892,8.892,0,0,1-2.356-.975,1,1,0,0,0-1.111.06l-1.99,1.492-1.6-1.6,1.492-1.99a1,1,0,0,0,.06-1.111,8.892,8.892,0,0,1-.975-2.356,1,1,0,0,0-.828-.743L18,39.133Z"/><path d="M30,44a6,6,0,1,0-6-6A6.006,6.006,0,0,0,30,44Zm0-10a4,4,0,1,1-4,4A4,4,0,0,1,30,34Z"/></g></svg>