<svg xmlns="http://www.w3.org/2000/svg" viewBox="0 0 64 64"><g id="Blueprint-Engineering-Architecture-Construction-Plan"><path d="M61,11V51H7a4,4,0,1,1,0-8h4V11Z" style="fill:#5aaae7"/><path d="M39.68,20.47a9.8,9.8,0,0,1-1.09,2.62l2.02,2.69-2.83,2.83-2.69-2.02a9.8,9.8,0,0,1-2.62,1.09L32,31H28l-.47-3.32a9.8,9.8,0,0,1-2.62-1.09l-2.69,2.02-2.83-2.83,2.02-2.69a9.8,9.8,0,0,1-1.09-2.62L17,20V16l3.32-.47A9.427,9.427,0,0,1,21.36,13a.405.405,0,0,1,.05-.09L19.98,11H40.02l-1.43,1.91a.405.405,0,0,1,.05.09,9.427,9.427,0,0,1,1.04,2.53L43,16v4Z" style="fill:#3d9ae2"/><path d="M37.68,18.47a9.8,9.8,0,0,1-1.09,2.62l2.02,2.69-2.83,2.83-2.69-2.02a9.8,9.8,0,0,1-2.62,1.09L30,29H26l-.47-3.32a9.8,9.8,0,0,1-2.62-1.09l-2.69,2.02-2.83-2.83,2.02-2.69a9.8,9.8,0,0,1-1.09-2.62L15,18V14l3.32-.47A9.427,9.427,0,0,1,19.36,11a.405.405,0,0,1,.05-.09L17.39,8.22l2.83-2.83,2.69,2.02a9.8,9.8,0,0,1,2.62-1.09L26,3h4l.47,3.32a9.8,9.8,0,0,1,2.62,1.09l2.69-2.02,2.83,2.83-2.02,2.69a.405.405,0,0,1,.05.09,9.427,9.427,0,0,1,1.04,2.53L41,14v4Z" style="fill:#ff9811"/><circle cx="28" cy="16" r="5" style="fill:#ffd422"/><path d="M11,11V43H7a3.995,3.995,0,0,0-4,4V9A4,4,0,0,1,7,5h4Z" style="fill:#3d9ae2"/><path d="M61,43a2.006,2.006,0,0,1-2,2H57.92A6.952,6.952,0,0,1,54,50.32V51H48v-.68A6.946,6.946,0,0,1,44.08,45H43a2,2,0,0,1,0-4h1V39a2.015,2.015,0,0,1-2-2,2.006,2.006,0,0,1,2-2,5.47,5.47,0,0,1,.09-1A5.992,5.992,0,0,1,49,29.09V28a1,1,0,0,1,1-1h2a1,1,0,0,1,1,1v1.09A5.984,5.984,0,0,1,57.91,34,5.47,5.47,0,0,1,58,35a2.015,2.015,0,0,1,2,2,2.006,2.006,0,0,1-2,2v2h1A2.006,2.006,0,0,1,61,43Z" style="fill:#3d9ae2"/><path d="M61,58.9V61H52l-1.82-6.18L51,54l3,1,.7-2.8,2.74,1.22A6,6,0,0,1,61,58.9Z" style="fill:#3d9ae2"/><path d="M57.41,33.59A1.955,1.955,0,0,1,58,35a2.006,2.006,0,0,1-2,2H42a2.015,2.015,0,0,1-2-2,2.006,2.006,0,0,1,2-2H56A1.955,1.955,0,0,1,57.41,33.59Z" style="fill:#f7910c"/><path d="M56,33H51V27.09A5.984,5.984,0,0,1,55.91,32,5.47,5.47,0,0,1,56,33Z" style="fill:#ff9811"/><polygon points="54.7 52.2 54 55 51 54 50 52 52 51 54.7 52.2" style="fill:#1e81ce"/><polygon points="50.18 54.82 52 61 46 61 47.82 54.82 49 56 50.18 54.82" style="fill:#ed1c24"/><path d="M51,27.09V33H47V26a1,1,0,0,1,1-1h2a1,1,0,0,1,1,1Z" style="fill:#ffa733"/><polygon points="50 52 51 54 50.18 54.82 49 56 47.82 54.82 47 54 48 52 50 52" style="fill:#ed1c24"/><polygon points="48 52 47 54 44 55 43.3 52.2 46 51 48 52" style="fill:#1e81ce"/><path d="M47.82,54.82,46,61H37V58.9a6,6,0,0,1,3.56-5.48L43.3,52.2,44,55l3-1Z" style="fill:#3d9ae2"/><path d="M47,27.09V33H42a5.47,5.47,0,0,1,.09-1A5.992,5.992,0,0,1,47,27.09Z" style="fill:#ff9811"/><polygon points="52 48 52 51 50 52 48 52 46 51 46 48 52 48" style="fill:#ffc477"/><path d="M43,39v4H41a2,2,0,0,1,0-4Z" style="fill:#ffb655"/><path d="M59,41a2.006,2.006,0,0,1-2,2H55V39h2A2.006,2.006,0,0,1,59,41Z" style="fill:#ffb655"/><path d="M52,48v2.32a6.958,6.958,0,0,1-6,0V48Z" style="fill:#ffb655"/><path d="M56,39v3a5.474,5.474,0,0,1-.08,1A6.952,6.952,0,0,1,52,48.32,6.982,6.982,0,0,1,42.08,43,5.474,5.474,0,0,1,42,42V37H56Z" style="fill:#ffc477"/><rect x="42" y="37" width="14" height="2" style="fill:#ffb655"/><path d="M39,50H7a3,3,0,0,1,0-6h4a1,1,0,0,0,1-1V12h4V10H12V5a1,1,0,0,0-1-1H7A5.006,5.006,0,0,0,2,9V47a5.006,5.006,0,0,0,5,5H39ZM4,9A3,3,0,0,1,7,6h3V42H7a4.98,4.98,0,0,0-3,1Z"/><path d="M58,50v2h3a1,1,0,0,0,1-1V11a1,1,0,0,0-1-1H40v2H60V50Z"/><path d="M18.219,10.988a10.86,10.86,0,0,0-.679,1.639l-2.682.383A1,1,0,0,0,14,14v4a1,1,0,0,0,.858.99l2.682.383a10.86,10.86,0,0,0,.679,1.639l-1.625,2.166a1,1,0,0,0,.093,1.307l2.828,2.828a1,1,0,0,0,1.306.093l2.167-1.624a10.855,10.855,0,0,0,1.639.678l.383,2.682A1,1,0,0,0,26,30h4a1,1,0,0,0,.99-.858l.383-2.682a10.9,10.9,0,0,0,1.639-.678l2.167,1.624a1,1,0,0,0,1.306-.093l2.828-2.828a1,1,0,0,0,.093-1.307l-1.625-2.166a10.86,10.86,0,0,0,.679-1.639l2.682-.383A1,1,0,0,0,42,18V14a1,1,0,0,0-.858-.99l-2.682-.383a10.86,10.86,0,0,0-.679-1.639l1.625-2.166a1,1,0,0,0-.093-1.307L36.485,4.687a1,1,0,0,0-1.306-.093L33.012,6.218a10.9,10.9,0,0,0-1.639-.678L30.99,2.858A1,1,0,0,0,30,2H26a1,1,0,0,0-.99.858L24.627,5.54a10.855,10.855,0,0,0-1.639.678L20.821,4.594a1,1,0,0,0-1.306.093L16.687,7.515a1,1,0,0,0-.093,1.307Zm1.987-.683-1.492-1.99,1.6-1.6,1.991,1.492a1,1,0,0,0,1.11.06,8.859,8.859,0,0,1,2.356-.975,1,1,0,0,0,.744-.828L26.867,4h2.266l.351,2.463a1,1,0,0,0,.744.828,8.859,8.859,0,0,1,2.356.975,1,1,0,0,0,1.11-.06l1.991-1.492,1.6,1.6-1.492,1.99a1,1,0,0,0-.061,1.111,8.923,8.923,0,0,1,.977,2.357,1,1,0,0,0,.827.742L40,14.867v2.266l-2.463.352a1,1,0,0,0-.827.742,8.923,8.923,0,0,1-.977,2.357,1,1,0,0,0,.061,1.111l1.492,1.99-1.6,1.6-1.991-1.492a1,1,0,0,0-1.11-.06,8.859,8.859,0,0,1-2.356.975,1,1,0,0,0-.744.828L29.133,28H26.867l-.351-2.463a1,1,0,0,0-.744-.828,8.859,8.859,0,0,1-2.356-.975,1,1,0,0,0-1.11.06l-1.991,1.492-1.6-1.6,1.492-1.99a1,1,0,0,0,.061-1.111,8.923,8.923,0,0,1-.977-2.357,1,1,0,0,0-.827-.742L16,17.133V14.867l2.463-.352a1,1,0,0,0,.827-.742,8.923,8.923,0,0,1,.977-2.357A1,1,0,0,0,20.206,10.305Z"/><path d="M28,22a6,6,0,1,0-6-6A6.006,6.006,0,0,0,28,22Zm0-10a4,4,0,1,1-4,4A4,4,0,0,1,28,12Z"/><rect x="45" y="40" width="2" height="2"/><rect x="51" y="40" width="2" height="2"/><path d="M57.85,52.51,53,50.35V48.92A8.06,8.06,0,0,0,56.74,44H57a3,3,0,0,0,0-6v-.18a2.983,2.983,0,0,0-.05-5.65,6.934,6.934,0,0,0-2-4.11A6.756,6.756,0,0,0,52,26.31V26a2.006,2.006,0,0,0-2-2H48a2.006,2.006,0,0,0-2,2v.3a6.96,6.96,0,0,0-4.95,5.87A2.983,2.983,0,0,0,41,37.82V38a3,3,0,0,0,0,6h.26A8.06,8.06,0,0,0,45,48.92v1.43l-4.85,2.16A7,7,0,0,0,36,58.9V61a1,1,0,0,0,1,1H61a1,1,0,0,0,1-1V58.9A7,7,0,0,0,57.85,52.51ZM41,42a1,1,0,0,1,0-2ZM53.53,52.77l-.24.94-1.58-.53-.37-.73.69-.34ZM58,41a1,1,0,0,1-1,1V40A1,1,0,0,1,58,41ZM52,28.43a5.106,5.106,0,0,1,1.54,1.04A4.913,4.913,0,0,1,54.9,32H52ZM48,26h2v6H48Zm-2,2.43V32H43.1A4.961,4.961,0,0,1,46,28.43ZM41,35a1,1,0,0,1,1-1H56a1,1,0,0,1,0,2H42A1,1,0,0,1,41,35Zm2,7V38H55v4a6,6,0,0,1-12,0Zm2.97,10.11.69.34-.37.73-1.58.53-.24-.94ZM45.25,60H38V58.9a5,5,0,0,1,2.97-4.57l1.65-.73.41,1.64a1.017,1.017,0,0,0,.49.64A1,1,0,0,0,44,56a1.185,1.185,0,0,0,.32-.05l2.36-.79Zm2.09,0,.96-3.29a.99.99,0,0,0,1.4,0L50.66,60Zm.88-6.2.4-.8h.76l.4.8-.78.79ZM51,50.38,49.76,51H48.24L47,50.38v-.64a7.822,7.822,0,0,0,4,0ZM60,60H52.75l-1.43-4.84,2.36.79A1.185,1.185,0,0,0,54,56a1,1,0,0,0,.48-.12,1.017,1.017,0,0,0,.49-.64l.41-1.64,1.65.73A5,5,0,0,1,60,58.9Z"/><rect x="16" y="32" width="2" height="2"/><rect x="20" y="32" width="14" height="2"/><rect x="16" y="36" width="18" height="2"/><rect x="16" y="40" width="18" height="2"/><rect x="16" y="44" width="18" height="2"/></g></svg>