<svg xmlns="http://www.w3.org/2000/svg" viewBox="0 0 64 64"><g id="Blueprint-Rocket-Plan-Architecture-Construction"><path d="M61,15V55H7a4,4,0,1,1,0-8h4V15Z" style="fill:#5aaae7"/><polygon points="59 15 59 42 57.22 46 55 51 52.78 46 51 42 51 15 59 15" style="fill:#3d9ae2"/><rect x="53" y="19" width="4" height="21" style="fill:#00ccb3"/><polygon points="57 15 57 19 53 19 49 19 49 15 57 15" style="fill:#e6e7e8"/><path d="M57,13v2H49V13a4,4,0,0,1,8,0Z" style="fill:#d1d3d4"/><polygon points="57 40 55.22 44 50.78 44 49 40 53 40 57 40" style="fill:#c6c5ca"/><polygon points="55.22 44 53 49 50.78 44 55.22 44" style="fill:#898890"/><rect x="49" y="19" width="4" height="21" style="fill:#00b39d"/><path d="M43.49,45.65l-2-5.35A2.014,2.014,0,0,0,39.61,39H39V32.18a3.9,3.9,0,0,0-.69-2.24C37.31,28.48,35.41,26,34,26s-3.31,2.48-4.31,3.94A3.9,3.9,0,0,0,29,32.18V39h-.61a2.014,2.014,0,0,0-1.88,1.3l-2,5.35A.994.994,0,0,0,25.44,47H29l1-2h1l1,3h4l1-3h1l1,2h3.56A.994.994,0,0,0,43.49,45.65Z" style="fill:#3d9ae2"/><path d="M41.49,43.65A.994.994,0,0,1,40.56,45H37l-1-2h1V37h.61a2.014,2.014,0,0,1,1.88,1.3Z" style="fill:#ee8700"/><path d="M32,43H27V30.18a3.9,3.9,0,0,1,.69-2.24c1-1.46,2.9-3.94,4.31-3.94s3.31,2.48,4.31,3.94A3.9,3.9,0,0,1,37,30.18V43H32Z" style="fill:#ff9811"/><polygon points="35 43 34 46 30 46 29 43 32 43 35 43" style="fill:#ee8700"/><path d="M28,43l-1,2H23.44a.994.994,0,0,1-.93-1.35l2-5.35A2.014,2.014,0,0,1,26.39,37H27v6Z" style="fill:#ee8700"/><path d="M11,15V47H7a3.995,3.995,0,0,0-4,4V13A4,4,0,0,1,7,9h4Z" style="fill:#3d9ae2"/><path d="M61,14H60V54H7a3,3,0,0,1,0-6h4a1,1,0,0,0,1-1V16H46V14H12V9a1,1,0,0,0-1-1H7a5,5,0,0,0-5,5V51a5,5,0,0,0,5,5H61a1,1,0,0,0,1-1V15A1,1,0,0,0,61,14ZM4,13a3.009,3.009,0,0,1,3-3h3V46H7a4.985,4.985,0,0,0-3,1Z"/><path d="M53,8a5,5,0,0,0-5,5V40a.978.978,0,0,0,.09.41l4,9a1,1,0,0,0,1.82,0l4-9A.978.978,0,0,0,58,40V13A5,5,0,0,0,53,8ZM50,20h2V39H50Zm3,26.54L52.32,45h1.36ZM54.57,43H51.43l-.89-2h4.92ZM56,39H54V20h2Zm0-21H50V16h6Zm0-4H50V13a3,3,0,0,1,6,0Z"/><path d="M21.8,45.14a2,2,0,0,0,1.644.86H27a1,1,0,0,0,.895-.553l.52-1.04.636,1.909A1,1,0,0,0,30,47h4a1,1,0,0,0,.948-.684l.637-1.91.52,1.041A1,1,0,0,0,37,46h3.557a2,2,0,0,0,1.873-2.7l-2.007-5.35A3.01,3.01,0,0,0,38,36.03V30.185a4.939,4.939,0,0,0-.861-2.806C34.144,23,32.53,23,32,23s-2.145,0-5.139,4.379A4.938,4.938,0,0,0,26,30.185V36.03a3.015,3.015,0,0,0-2.423,1.916L21.57,43.3A2,2,0,0,0,21.8,45.14ZM30.721,45l-.334-1h3.226l-.334,1Zm7.829-6.351L40.557,44H37.618l-.087-.174A.982.982,0,0,0,38,43V38.089A1,1,0,0,1,38.55,38.649ZM28,30.185a2.959,2.959,0,0,1,.511-1.677C30.409,25.733,31.623,25,32,25s1.59.733,3.488,3.509A2.944,2.944,0,0,1,36,30.185V42H33V36H31v6H28Zm-2.551,8.464a1,1,0,0,1,.551-.56V43a.982.982,0,0,0,.469.826L26.382,44H23.443Z"/><path d="M32,31.118l1.553.777.894-1.79-2-1a1,1,0,0,0-.894,0l-2,1,.894,1.79Z"/><rect x="42" y="19" width="4" height="2"/><rect x="42" y="23" width="4" height="2"/><rect x="14" y="19" width="6" height="2"/><rect x="14" y="23" width="6" height="2"/><path d="M26.293,22.707l1.414-1.414-2-2A1,1,0,0,0,25,19H22v2h2.586Z"/><path d="M40,21V19H38a1,1,0,0,0-.707.293l-2,2,1.414,1.414L38.414,21Z"/><rect x="14" y="35" width="6" height="2"/><rect x="14" y="39" width="6" height="2"/></g></svg>