<svg xmlns="http://www.w3.org/2000/svg" viewBox="0 0 64 64"><g id="Blueprint-Engineering-Architecture-Plan-Construction"><path d="M47,11V57a3.995,3.995,0,0,1-4,4H7a4,4,0,0,1-4-4V7A4,4,0,0,1,7,3H39V9a2.006,2.006,0,0,0,2,2Z" style="fill:#5aaae7"/><path d="M35.41,21.59A1.955,1.955,0,0,0,34,21a5.944,5.944,0,0,0-1.76-4.24A5.832,5.832,0,0,0,29,15.09V14a1,1,0,0,0-1-1H26a1,1,0,0,0-1,1v1.09A5.99,5.99,0,0,0,20,21a2.006,2.006,0,0,0-2,2,2.015,2.015,0,0,0,2,2H34a2.006,2.006,0,0,0,2-2A1.955,1.955,0,0,0,35.41,21.59Z" style="fill:#3d9ae2"/><path d="M57.68,50.47a9.8,9.8,0,0,1-1.09,2.62l2.02,2.69-2.83,2.83-2.69-2.02a9.8,9.8,0,0,1-2.62,1.09L50,61H46l-.17-1.17-.3-2.15a9.8,9.8,0,0,1-2.62-1.09l-2.69,2.02-2.83-2.83,2.02-2.69a9.8,9.8,0,0,1-1.09-2.62L35,50V46l3.32-.47a9.8,9.8,0,0,1,1.09-2.62l-2.02-2.69,2.83-2.83,2.69,2.02a9.8,9.8,0,0,1,2.62-1.09L46,35h4l.47,3.32a9.8,9.8,0,0,1,2.62,1.09l2.69-2.02,2.83,2.83-2.02,2.69a9.8,9.8,0,0,1,1.09,2.62L61,46v4Z" style="fill:#ff9811"/><path d="M48,43a4.712,4.712,0,0,0-1,.1,5,5,0,0,0,0,9.8,4.712,4.712,0,0,0,1,.1,5,5,0,0,0,0-10Z" style="fill:#ffd422"/><path d="M47,11H41a2.006,2.006,0,0,1-2-2V3Z" style="fill:#3d9ae2"/><path d="M33.41,19.59A1.955,1.955,0,0,1,34,21a2.006,2.006,0,0,1-2,2H18a2.015,2.015,0,0,1-2-2,2.006,2.006,0,0,1,2-2H32A1.955,1.955,0,0,1,33.41,19.59Z" style="fill:#ff9811"/><path d="M32,19H27V13.09a5.832,5.832,0,0,1,3.24,1.67A5.944,5.944,0,0,1,32,19Z" style="fill:#ff9811"/><path d="M27,13.09V19H23V12a1,1,0,0,1,1-1h2a1,1,0,0,1,1,1Z" style="fill:#ffa733"/><path d="M23,13.09V19H18A5.99,5.99,0,0,1,23,13.09Z" style="fill:#ff9811"/><path d="M4,57V7A3,3,0,0,1,7,4H38V9a3,3,0,0,0,3,3h5V32h2V11a1,1,0,0,0-.293-.707l-8-8A1,1,0,0,0,39,2H7A5.006,5.006,0,0,0,2,7V57a5.006,5.006,0,0,0,5,5H42V60H7A3,3,0,0,1,4,57ZM40,9V5.414L44.586,10H41A1,1,0,0,1,40,9Z"/><rect x="8" y="40" width="18" height="2"/><rect x="28" y="40" width="4" height="2"/><rect x="8" y="44" width="24" height="2"/><rect x="8" y="32" width="34" height="2"/><rect x="8" y="36" width="26" height="2"/><rect x="8" y="48" width="2" height="2"/><rect x="12" y="48" width="20" height="2"/><rect x="8" y="28" width="2" height="2"/><rect x="12" y="28" width="30" height="2"/><rect x="8" y="52" width="24" height="2"/><path d="M61.142,45.01l-2.682-.383a10.86,10.86,0,0,0-.679-1.639l1.625-2.166a1,1,0,0,0-.093-1.307l-2.828-2.828a1,1,0,0,0-1.306-.093l-2.167,1.624a10.9,10.9,0,0,0-1.639-.678l-.383-2.682A1,1,0,0,0,50,34H46a1,1,0,0,0-.99.858l-.383,2.682a10.855,10.855,0,0,0-1.639.678l-2.167-1.624a1,1,0,0,0-1.306.093l-2.828,2.828a1,1,0,0,0-.093,1.307l1.625,2.166a10.86,10.86,0,0,0-.679,1.639l-2.682.383A1,1,0,0,0,34,46v4a1,1,0,0,0,.858.99l2.682.383a10.86,10.86,0,0,0,.679,1.639l-1.625,2.166a1,1,0,0,0,.093,1.307l2.828,2.828a1,1,0,0,0,1.306.093l2.167-1.624a10.855,10.855,0,0,0,1.639.678l.383,2.682A1,1,0,0,0,46,62h4a1,1,0,0,0,.99-.858l.383-2.682a10.9,10.9,0,0,0,1.639-.678l2.167,1.624a1,1,0,0,0,1.306-.093l2.828-2.828a1,1,0,0,0,.093-1.307l-1.625-2.166a10.86,10.86,0,0,0,.679-1.639l2.682-.383A1,1,0,0,0,62,50V46A1,1,0,0,0,61.142,45.01ZM60,49.133l-2.463.352a1,1,0,0,0-.827.742,8.923,8.923,0,0,1-.977,2.357,1,1,0,0,0,.061,1.111l1.492,1.99-1.6,1.6-1.991-1.492a1,1,0,0,0-1.11-.06,8.859,8.859,0,0,1-2.356.975,1,1,0,0,0-.744.828L49.133,60H46.867l-.351-2.463a1,1,0,0,0-.744-.828,8.859,8.859,0,0,1-2.356-.975,1,1,0,0,0-1.11.06l-1.991,1.492-1.6-1.6,1.492-1.99a1,1,0,0,0,.061-1.111,8.923,8.923,0,0,1-.977-2.357,1,1,0,0,0-.827-.742L36,49.133V46.867l2.463-.352a1,1,0,0,0,.827-.742,8.923,8.923,0,0,1,.977-2.357,1,1,0,0,0-.061-1.111l-1.492-1.99,1.6-1.6,1.991,1.492a1,1,0,0,0,1.11.06,8.859,8.859,0,0,1,2.356-.975,1,1,0,0,0,.744-.828L46.867,36h2.266l.351,2.463a1,1,0,0,0,.744.828,8.859,8.859,0,0,1,2.356.975,1,1,0,0,0,1.11-.06l1.991-1.492,1.6,1.6-1.492,1.99a1,1,0,0,0-.061,1.111,8.923,8.923,0,0,1,.977,2.357,1,1,0,0,0,.827.742L60,46.867Z"/><path d="M48,42a6,6,0,1,0,6,6A6.006,6.006,0,0,0,48,42Zm0,10a4,4,0,1,1,4-4A4,4,0,0,1,48,52Z"/><path d="M32.95,18.17a6.934,6.934,0,0,0-2-4.11A6.756,6.756,0,0,0,28,12.31V12a2.006,2.006,0,0,0-2-2H24a2.006,2.006,0,0,0-2,2v.3a6.96,6.96,0,0,0-4.95,5.87A2.991,2.991,0,0,0,18,24H32a2.991,2.991,0,0,0,.95-5.83ZM28,14.43A4.946,4.946,0,0,1,30.9,18H28ZM24,12h2v6H24Zm-2,2.43V18H19.1A4.961,4.961,0,0,1,22,14.43ZM32,22H18a1,1,0,0,1,0-2H32a1,1,0,0,1,0,2Z"/></g></svg>