<svg xmlns="http://www.w3.org/2000/svg" viewBox="0 0 64 64"><g id="Blueprint-House-Plan-Architecture-Construction"><path d="M61,9V49H7a4,4,0,1,1,0-8h4V9Z" style="fill:#5aaae7"/><path d="M50.58,28,45,24.06V18H41v3.24L35,17,19.42,28a1.794,1.794,0,0,0-.46,2.45,1.82,1.82,0,0,0,1.5.79,1.8,1.8,0,0,0,1.05-.34L25,28.34V44a1,1,0,0,0,1,1H44a1,1,0,0,0,1-1V28.34l3.49,2.56A1.787,1.787,0,1,0,50.58,28Z" style="fill:#3d9ae2"/><path d="M43,26.34V42a1,1,0,0,1-1,1H24a1,1,0,0,1-1-1V26.34L33,19Z" style="fill:#acabb1"/><polygon points="52 57 47 59.22 47 54.78 52 57" style="fill:#898890"/><path d="M49.34,27.46a1.79,1.79,0,0,1-2.85,1.44L43,26.34,33,19,23,26.34,19.51,28.9a1.8,1.8,0,0,1-1.05.34,1.82,1.82,0,0,1-1.5-.79A1.794,1.794,0,0,1,17.42,26L33,15l6,4.24,4,2.82L48.58,26A1.8,1.8,0,0,1,49.34,27.46Z" style="fill:#ff5023"/><polygon points="47 54.78 47 59.22 43 61 43 57 43 53 47 54.78" style="fill:#c6c5ca"/><rect x="22" y="57" width="21" height="4" style="fill:#00ccb3"/><rect x="22" y="53" width="21" height="4" style="fill:#00b39d"/><polygon points="43 16 43 22.06 39 19.24 39 16 43 16" style="fill:#acabb1"/><rect x="36" y="35" width="4" height="4" style="fill:#e6e7e8"/><circle cx="33" cy="28" r="3" style="fill:#e6e7e8"/><rect x="27" y="35" width="6" height="8" style="fill:#e6e7e8"/><polygon points="22 57 22 61 18 61 18 53 22 53 22 57" style="fill:#e6e7e8"/><path d="M18,53v8H16a4,4,0,0,1,0-8Z" style="fill:#d1d3d4"/><path d="M11,9V41H7a3.995,3.995,0,0,0-4,4V7A4,4,0,0,1,7,3h4Z" style="fill:#3d9ae2"/><path d="M52.41,56.09l-9-4A.978.978,0,0,0,43,52H16a5,5,0,0,0,0,10H43a.978.978,0,0,0,.41-.09l9-4a1,1,0,0,0,0-1.82ZM17,60H16a3,3,0,0,1,0-6h1Zm4,0H19V54h2Zm21,0H23V58H42Zm0-4H23V54H42Zm4,2.57-2,.89V54.54l2,.89Zm2-.89V56.32l1.54.68Z"/><path d="M61,8H12V3a1,1,0,0,0-1-1H7A5,5,0,0,0,2,7V45a5,5,0,0,0,5,5H61a1,1,0,0,0,1-1V9A1,1,0,0,0,61,8ZM4,7A3.009,3.009,0,0,1,7,4h3V40H7a4.985,4.985,0,0,0-3,1ZM60,48H7a3,3,0,0,1,0-6h4a1,1,0,0,0,1-1V10H60Z"/><path d="M49.16,25.18,44,21.54V16a1,1,0,0,0-1-1H39a1,1,0,0,0-1,1v1.3l-4.42-3.12a1.024,1.024,0,0,0-1.16,0l-15.58,11A2.787,2.787,0,1,0,20.1,29.7L22,28.31V42a2.006,2.006,0,0,0,2,2H42a2.006,2.006,0,0,0,2-2V28.31l1.9,1.39a2.754,2.754,0,0,0,1.64.54,2.81,2.81,0,0,0,.5-.04,2.788,2.788,0,0,0,1.12-5.02ZM40,17h2v3.13l-2-1.41ZM32,42H28V36h4Zm10,0H34V35a1,1,0,0,0-1-1H27a1,1,0,0,0-1,1v7H24V26.84l9-6.6,9,6.6Zm6.2-14.11a.784.784,0,0,1-.51.34.748.748,0,0,1-.6-.14l-13.5-9.9a1.022,1.022,0,0,0-1.18,0l-13.5,9.9a.748.748,0,0,1-.6.14A.791.791,0,0,1,18,26.81L33,16.22,48,26.81A.784.784,0,0,1,48.2,27.89Z"/><path d="M35,35v4a1,1,0,0,0,1,1h4a1,1,0,0,0,1-1V35a1,1,0,0,0-1-1H36A1,1,0,0,0,35,35Zm2,1h2v2H37Z"/><path d="M29,28a4,4,0,1,0,4-4A4,4,0,0,0,29,28Zm6,0a2,2,0,1,1-2-2A2,2,0,0,1,35,28Z"/><rect x="52" y="38" width="4" height="2"/><rect x="48" y="38" width="2" height="2"/><rect x="48" y="42" width="8" height="2"/><rect x="50" y="14" width="6" height="2"/><rect x="50" y="18" width="6" height="2"/><rect x="16" y="14" width="2" height="2"/><rect x="20" y="14" width="5" height="2"/><rect x="16" y="18" width="6" height="2"/></g></svg>