<svg xmlns="http://www.w3.org/2000/svg" viewBox="0 0 64 64"><g id="Browser-Programming-Engineering-Gear-Administrator"><path d="M49,11V47a2.006,2.006,0,0,1-2,2H5a2.006,2.006,0,0,1-2-2V11Z" style="fill:#5aaae7"/><path d="M56.47,47.65a12.589,12.589,0,0,1-1.07,2.6l2.74,3.65L53.9,58.14,50.25,55.4a12.589,12.589,0,0,1-2.6,1.07L47,61H41l-.65-4.53a12.589,12.589,0,0,1-2.6-1.07L34.1,58.14,29.86,53.9l2.74-3.65A13.076,13.076,0,0,1,32,49a12.671,12.671,0,0,1-.47-1.35L27,47V41l4.53-.65a12.589,12.589,0,0,1,1.07-2.6L29.86,34.1l4.24-4.24,3.65,2.74a12.589,12.589,0,0,1,2.6-1.07L41,27h6l.65,4.53A12.671,12.671,0,0,1,49,32a13.076,13.076,0,0,1,1.25.6l3.65-2.74,4.24,4.24L55.4,37.75a12.589,12.589,0,0,1,1.07,2.6L61,41v6Z" style="fill:#ff9811"/><path d="M49,37.76A8,8,0,1,0,52,44,7.963,7.963,0,0,0,49,37.76Z" style="fill:#ffd422"/><path d="M49,5v6H3V5A2.006,2.006,0,0,1,5,3H47A2.006,2.006,0,0,1,49,5Z" style="fill:#ff5023"/><path d="M24.1,33.17l-2.1-.6h0l-.55-.16L20,32V29.46a4.225,4.225,0,0,0,.83-.63A4.025,4.025,0,0,0,22,26V24h1a5.029,5.029,0,0,0-3-4.59V19a2.006,2.006,0,0,0-2-2,2.015,2.015,0,0,0-2,2v.41A5.029,5.029,0,0,0,13,24h1v2a3.98,3.98,0,0,0,2,3.46V32l-1.45.41-.55.16h0l-2.1.6A4,4,0,0,0,9,37.02V41H27V37.02A4,4,0,0,0,24.1,33.17Z" style="fill:#3d9ae2"/><polygon points="18 27 18 30 16 33 14 30 14 27 18 27" style="fill:#ffc477"/><path d="M25,35.02V39H7V35.02a4,4,0,0,1,2.9-3.85l2.1-.6V34l4-1,4,1V30.57l2.1.6A4,4,0,0,1,25,35.02Z" style="fill:#1e81ce"/><path d="M21,22H18V17.41A5.029,5.029,0,0,1,21,22Z" style="fill:#ff9811"/><polygon points="20 30.57 20 34 16 33 18 30 19.45 30.41 20 30.57" style="fill:#1a6fb0"/><path d="M18,27v1.46a3.974,3.974,0,0,1-4,0V27Z" style="fill:#ffb655"/><path d="M16,15a2.015,2.015,0,0,0-2,2v5h4V17A2.006,2.006,0,0,0,16,15Z" style="fill:#ffa733"/><polygon points="14 30 16 33 12 34 12 30.57 12.55 30.41 14 30" style="fill:#1a6fb0"/><path d="M14,17.41V22H11A5.029,5.029,0,0,1,14,17.41Z" style="fill:#ff9811"/><path d="M20,22v2a4.025,4.025,0,0,1-1.17,2.83,4.225,4.225,0,0,1-.83.63A4,4,0,0,1,12,24V22h8Z" style="fill:#ffc477"/><rect x="12" y="22" width="8" height="2" style="fill:#ffb655"/><path d="M47,2H5A3.009,3.009,0,0,0,2,5V47a3.009,3.009,0,0,0,3,3H24V48H5a1,1,0,0,1-1-1V12H48V24h2V5A3.009,3.009,0,0,0,47,2Zm1,8H4V5A1,1,0,0,1,5,4H47a1,1,0,0,1,1,1Z"/><rect x="6" y="6" width="2" height="2"/><rect x="10" y="6" width="2" height="2"/><rect x="14" y="6" width="2" height="2"/><path d="M44,35a9,9,0,1,0,9,9A9.01,9.01,0,0,0,44,35Zm0,16a7,7,0,1,1,7-7A7.009,7.009,0,0,1,44,51Z"/><path d="M61.142,40.01l-3.907-.558a13.905,13.905,0,0,0-.657-1.6L58.942,34.7a1,1,0,0,0-.092-1.306L54.606,29.15a1,1,0,0,0-1.306-.092l-3.154,2.364a13.905,13.905,0,0,0-1.6-.657l-.558-3.907A1,1,0,0,0,47,26H41a1,1,0,0,0-.99.858l-.558,3.907a13.905,13.905,0,0,0-1.6.657L34.7,29.058a1,1,0,0,0-1.306.092L29.15,33.394a1,1,0,0,0-.092,1.306l2.364,3.154a13.905,13.905,0,0,0-.657,1.6l-3.907.558A1,1,0,0,0,26,41v6a1,1,0,0,0,.858.99l3.907.558a13.921,13.921,0,0,0,.657,1.6L29.058,53.3a1,1,0,0,0,.092,1.306l4.244,4.244a1,1,0,0,0,1.306.092l3.153-2.364a13.921,13.921,0,0,0,1.6.657l.558,3.907A1,1,0,0,0,41,62h6a1,1,0,0,0,.99-.858l.558-3.907a13.921,13.921,0,0,0,1.6-.657L53.3,58.942a1,1,0,0,0,1.306-.092l4.244-4.244a1,1,0,0,0,.092-1.306l-2.364-3.153a13.921,13.921,0,0,0,.657-1.6l3.907-.558A1,1,0,0,0,62,47V41A1,1,0,0,0,61.142,40.01ZM60,46.133l-3.67.523a1,1,0,0,0-.818.71,11.9,11.9,0,0,1-.987,2.4,1,1,0,0,0,.077,1.081l2.22,2.961-3.016,3.016L50.845,54.6a1,1,0,0,0-1.081-.077,11.9,11.9,0,0,1-2.4.987,1,1,0,0,0-.71.818L46.133,60H41.867l-.523-3.67a1,1,0,0,0-.71-.818,11.9,11.9,0,0,1-2.4-.987,1,1,0,0,0-1.081.077l-2.961,2.22-3.016-3.016,2.22-2.961a1,1,0,0,0,.077-1.081,11.9,11.9,0,0,1-.987-2.4,1,1,0,0,0-.818-.71L28,46.133V41.867l3.67-.523a1,1,0,0,0,.818-.71,11.825,11.825,0,0,1,.988-2.4,1,1,0,0,0-.078-1.081l-2.22-2.961,3.016-3.016,2.961,2.22a1,1,0,0,0,1.081.078,11.825,11.825,0,0,1,2.4-.988,1,1,0,0,0,.71-.818L41.867,28h4.266l.523,3.67a1,1,0,0,0,.71.818,11.825,11.825,0,0,1,2.4.988,1,1,0,0,0,1.081-.078l2.961-2.22,3.016,3.016L54.6,37.155a1,1,0,0,0-.078,1.081,11.825,11.825,0,0,1,.988,2.4,1,1,0,0,0,.818.71l3.67.523Z"/><rect x="43" y="30" width="2" height="2"/><rect x="33.808" y="33.808" width="2" height="2" transform="translate(-14.418 34.808) rotate(-45)"/><rect x="30" y="43" width="2" height="2"/><rect x="33.808" y="52.192" width="2" height="2" transform="translate(-27.418 40.192) rotate(-45)"/><rect x="43" y="56" width="2" height="2"/><rect x="52.192" y="52.192" width="2" height="2" transform="translate(-22.033 53.192) rotate(-45)"/><rect x="56" y="43" width="2" height="2"/><rect x="52.192" y="33.808" width="2" height="2" transform="translate(-9.033 47.808) rotate(-45)"/><path d="M22.38,30.21,19,29.24V27.97A4.952,4.952,0,0,0,21,24V23h2V21H21.91a6.017,6.017,0,0,0-2.93-4.2,2.986,2.986,0,0,0-5.96,0A6.017,6.017,0,0,0,10.09,21H9v2h2v1a4.952,4.952,0,0,0,2,3.97v1.27l-3.37.97A5.013,5.013,0,0,0,6,35.02V39a1,1,0,0,0,1,1H25a1,1,0,0,0,1-1V35.02A5.016,5.016,0,0,0,22.38,30.21ZM19,19.36A3.927,3.927,0,0,1,19.86,21H19ZM15,17a1,1,0,0,1,2,0v4H15Zm4,6v1a3,3,0,0,1-6,0V23Zm0,8.33v1.39l-1.38-.35.81-1.21ZM17,28.9v.8l-1,1.5-1-1.5v-.8a5.05,5.05,0,0,0,2,0ZM12.14,21A3.927,3.927,0,0,1,13,19.36V21ZM13,31.32l.57-.16.81,1.21L13,32.72ZM24,38H8V35.02a3.009,3.009,0,0,1,2.18-2.89L11,31.9V34a.99.99,0,0,0,1,1,.986.986,0,0,0,.24-.03L16,34.03l3.76.94A.986.986,0,0,0,20,35a.99.99,0,0,0,1-1V31.9l.83.23A3.012,3.012,0,0,1,24,35.02Z"/><rect x="26" y="16" width="4" height="2"/><rect x="32" y="16" width="8" height="2"/><rect x="30" y="20" width="4" height="2"/><rect x="36" y="20" width="8" height="2"/><rect x="28" y="24" width="2" height="2"/><rect x="32" y="24" width="6" height="2"/></g></svg>