<svg xmlns="http://www.w3.org/2000/svg" viewBox="0 0 64 64"><g id="Browser-Engineer-Software-Coding-Programing"><path d="M59,11V53a2,2,0,0,1-2,2H5a2.006,2.006,0,0,1-2-2V11Z" style="fill:#5aaae7"/><path d="M59,5v6H3V5A2.006,2.006,0,0,1,5,3H57A2.006,2.006,0,0,1,59,5Z" style="fill:#ff5023"/><path d="M31,48v4l-3.32.47A9.427,9.427,0,0,1,26.64,55H9.36a9.427,9.427,0,0,1-1.04-2.53L5,52V48l3.32-.47a9.8,9.8,0,0,1,1.09-2.62L7.39,42.22l2.83-2.83,2.69,2.02a9.8,9.8,0,0,1,2.62-1.09L16,37h4l.47,3.32a9.8,9.8,0,0,1,2.62,1.09l2.69-2.02,2.83,2.83-2.02,2.69a9.8,9.8,0,0,1,1.09,2.62Z" style="fill:#3d9ae2"/><path d="M25.68,50.47a9.8,9.8,0,0,1-1.09,2.62L26.02,55l.59.78-2.83,2.83-2.69-2.02a9.8,9.8,0,0,1-2.62,1.09L18,61H14l-.47-3.32a9.8,9.8,0,0,1-2.62-1.09L8.22,58.61,5.39,55.78,5.98,55l1.43-1.91a9.8,9.8,0,0,1-1.09-2.62L3,50V46l3.32-.47a9.8,9.8,0,0,1,1.09-2.62L5.39,40.22l2.83-2.83,2.69,2.02a9.8,9.8,0,0,1,2.62-1.09L14,35h4l.47,3.32a9.8,9.8,0,0,1,2.62,1.09l2.69-2.02,2.83,2.83-2.02,2.69a9.8,9.8,0,0,1,1.09,2.62L29,46v4Z" style="fill:#ff9811"/><circle cx="16" cy="48" r="5" style="fill:#ffd422"/><path d="M58,39v2h1v4H57.92A6.952,6.952,0,0,1,54,50.32V53l2.7,1.2,1.25.56A2.028,2.028,0,0,1,57,55H43.5l1.8-.8L48,53V50.32A6.946,6.946,0,0,1,44.08,45H43a2,2,0,0,1,0-4h1V39a2.015,2.015,0,0,1-2-2,2.006,2.006,0,0,1,2-2,5.47,5.47,0,0,1,.09-1A5.992,5.992,0,0,1,49,29.09V28a1,1,0,0,1,1-1h2a1,1,0,0,1,1,1v1.09A5.984,5.984,0,0,1,57.91,34,5.47,5.47,0,0,1,58,35a2,2,0,0,1,1,.27v3.46A2,2,0,0,1,58,39Z" style="fill:#3d9ae2"/><path d="M61,58.9V61H52l-1.82-6.18L51,54l3,1,.7-2.8,2.74,1.22A6,6,0,0,1,61,58.9Z" style="fill:#3d9ae2"/><path d="M57.41,33.59A1.955,1.955,0,0,1,58,35a2.006,2.006,0,0,1-2,2H42a2.015,2.015,0,0,1-2-2,2.006,2.006,0,0,1,2-2H56A1.955,1.955,0,0,1,57.41,33.59Z" style="fill:#f7910c"/><path d="M56,33H51V27.09A5.984,5.984,0,0,1,55.91,32,5.47,5.47,0,0,1,56,33Z" style="fill:#ff9811"/><polygon points="54.7 52.2 54 55 51 54 50 52 52 51 54.7 52.2" style="fill:#1e81ce"/><polygon points="50.18 54.82 52 61 46 61 47.82 54.82 49 56 50.18 54.82" style="fill:#ed1c24"/><path d="M51,27.09V33H47V26a1,1,0,0,1,1-1h2a1,1,0,0,1,1,1Z" style="fill:#ffa733"/><polygon points="50 52 51 54 50.18 54.82 49 56 47.82 54.82 47 54 48 52 50 52" style="fill:#ed1c24"/><polygon points="48 52 47 54 44 55 43.3 52.2 46 51 48 52" style="fill:#1e81ce"/><path d="M47.82,54.82,46,61H37V58.9a6,6,0,0,1,3.56-5.48L43.3,52.2,44,55l3-1Z" style="fill:#3d9ae2"/><path d="M47,27.09V33H42a5.47,5.47,0,0,1,.09-1A5.992,5.992,0,0,1,47,27.09Z" style="fill:#ff9811"/><polygon points="52 48 52 51 50 52 48 52 46 51 46 48 52 48" style="fill:#ffc477"/><path d="M43,39v4H41a2,2,0,0,1,0-4Z" style="fill:#ffb655"/><path d="M59,41a2.006,2.006,0,0,1-2,2H55V39h2A2.006,2.006,0,0,1,59,41Z" style="fill:#ffb655"/><path d="M52,48v2.32a6.958,6.958,0,0,1-6,0V48Z" style="fill:#ffb655"/><path d="M56,39v3a5.474,5.474,0,0,1-.08,1A6.952,6.952,0,0,1,52,48.32,6.982,6.982,0,0,1,42.08,43,5.474,5.474,0,0,1,42,42V37H56Z" style="fill:#ffc477"/><rect x="42" y="37" width="14" height="2" style="fill:#ffb655"/><rect x="8" y="6" width="2" height="2"/><rect x="12" y="6" width="2" height="2"/><rect x="16" y="6" width="2" height="2"/><path d="M4,12H58V30h2V5a3,3,0,0,0-3-3H5A3,3,0,0,0,2,5V43H4ZM5,4H57a1,1,0,0,1,1,1v5H4V5A1,1,0,0,1,5,4Z"/><rect x="29" y="54" width="6" height="2"/><rect x="24" y="6" width="26" height="2"/><path d="M18.293,16.293l-3,3a1,1,0,0,0,0,1.414l3,3,1.414-1.414L17.414,20l2.293-2.293Z"/><rect x="19.228" y="19" width="8.544" height="2" transform="translate(-3.478 34.981) rotate(-69.444)"/><path d="M28.707,23.707l3-3a1,1,0,0,0,0-1.414l-3-3-1.414,1.414L29.586,20l-2.293,2.293Z"/><rect x="18" y="26" width="4" height="2"/><rect x="24" y="26" width="8" height="2"/><rect x="20" y="30" width="4" height="2"/><rect x="26" y="30" width="8" height="2"/><path d="M25.781,53.012a10.86,10.86,0,0,0,.679-1.639l2.682-.383A1,1,0,0,0,30,50V46a1,1,0,0,0-.858-.99l-2.682-.383a10.86,10.86,0,0,0-.679-1.639l1.625-2.166a1,1,0,0,0-.093-1.307l-2.828-2.828a1,1,0,0,0-1.306-.093l-2.167,1.624a10.9,10.9,0,0,0-1.639-.678l-.383-2.682A1,1,0,0,0,18,34H14a1,1,0,0,0-.99.858l-.383,2.682a10.855,10.855,0,0,0-1.639.678L8.821,36.594a1,1,0,0,0-1.306.093L4.687,39.515a1,1,0,0,0-.093,1.307l1.625,2.166a10.86,10.86,0,0,0-.679,1.639l-2.682.383A1,1,0,0,0,2,46v4a1,1,0,0,0,.858.99l2.682.383a10.86,10.86,0,0,0,.679,1.639L4.594,55.178a1,1,0,0,0,.093,1.307l2.828,2.828a1,1,0,0,0,1.306.093l2.167-1.624a10.855,10.855,0,0,0,1.639.678l.383,2.682A1,1,0,0,0,14,62h4a1,1,0,0,0,.99-.858l.383-2.682a10.9,10.9,0,0,0,1.639-.678l2.167,1.624a1,1,0,0,0,1.306-.093l2.828-2.828a1,1,0,0,0,.093-1.307Zm-1.987.683,1.492,1.99-1.6,1.6-1.991-1.492a1,1,0,0,0-1.11-.06,8.859,8.859,0,0,1-2.356.975,1,1,0,0,0-.744.828L17.133,60H14.867l-.351-2.463a1,1,0,0,0-.744-.828,8.859,8.859,0,0,1-2.356-.975,1,1,0,0,0-1.11.06L8.315,57.286l-1.6-1.6L8.206,53.7a1,1,0,0,0,.061-1.111,8.923,8.923,0,0,1-.977-2.357,1,1,0,0,0-.827-.742L4,49.133V46.867l2.463-.352a1,1,0,0,0,.827-.742,8.923,8.923,0,0,1,.977-2.357,1,1,0,0,0-.061-1.111l-1.492-1.99,1.6-1.6,1.991,1.492a1,1,0,0,0,1.11.06,8.859,8.859,0,0,1,2.356-.975,1,1,0,0,0,.744-.828L14.867,36h2.266l.351,2.463a1,1,0,0,0,.744.828,8.859,8.859,0,0,1,2.356.975,1,1,0,0,0,1.11-.06l1.991-1.492,1.6,1.6-1.492,1.99a1,1,0,0,0-.061,1.111,8.923,8.923,0,0,1,.977,2.357,1,1,0,0,0,.827.742L28,46.867v2.266l-2.463.352a1,1,0,0,0-.827.742,8.923,8.923,0,0,1-.977,2.357A1,1,0,0,0,23.794,53.7Z"/><path d="M16,42a6,6,0,1,0,6,6A6.006,6.006,0,0,0,16,42Zm0,10a4,4,0,1,1,4-4A4,4,0,0,1,16,52Z"/><rect x="45" y="40" width="2" height="2"/><rect x="51" y="40" width="2" height="2"/><path d="M57.85,52.51,53,50.35V48.92A8.06,8.06,0,0,0,56.74,44H57a3,3,0,0,0,0-6v-.18a2.983,2.983,0,0,0-.05-5.65,6.934,6.934,0,0,0-2-4.11A6.756,6.756,0,0,0,52,26.31V26a2.006,2.006,0,0,0-2-2H48a2.006,2.006,0,0,0-2,2v.3a6.96,6.96,0,0,0-4.95,5.87A2.983,2.983,0,0,0,41,37.82V38a3,3,0,0,0,0,6h.26A8.06,8.06,0,0,0,45,48.92v1.43l-4.85,2.16A7,7,0,0,0,36,58.9V61a1,1,0,0,0,1,1H61a1,1,0,0,0,1-1V58.9A7,7,0,0,0,57.85,52.51ZM41,42a1,1,0,0,1,0-2ZM53.53,52.77l-.24.94-1.58-.53-.37-.73.69-.34ZM58,41a1,1,0,0,1-1,1V40A1,1,0,0,1,58,41ZM52,28.43a5.106,5.106,0,0,1,1.54,1.04A4.913,4.913,0,0,1,54.9,32H52ZM48,26h2v6H48Zm-2,2.43V32H43.1A4.961,4.961,0,0,1,46,28.43ZM41,35a1,1,0,0,1,1-1H56a1,1,0,0,1,0,2H42A1,1,0,0,1,41,35Zm2,7V38H55v4a6,6,0,0,1-12,0Zm2.97,10.11.69.34-.37.73-1.58.53-.24-.94ZM45.25,60H38V58.9a5,5,0,0,1,2.97-4.57l1.65-.73.41,1.64a1.017,1.017,0,0,0,.49.64A1,1,0,0,0,44,56a1.185,1.185,0,0,0,.32-.05l2.36-.79Zm2.09,0,.96-3.29a.99.99,0,0,0,1.4,0L50.66,60Zm.88-6.2.4-.8h.76l.4.8-.78.79ZM51,50.38,49.76,51H48.24L47,50.38v-.64a7.822,7.822,0,0,0,4,0ZM60,60H52.75l-1.43-4.84,2.36.79A1.185,1.185,0,0,0,54,56a1,1,0,0,0,.48-.12,1.017,1.017,0,0,0,.49-.64l.41-1.64,1.65.73A5,5,0,0,1,60,58.9Z"/></g></svg>