<svg xmlns="http://www.w3.org/2000/svg" viewBox="0 0 64 64"><g id="Calculator-Industry-Calculating-Technology-Engineer"><path d="M46.53,35.68a15.068,15.068,0,0,1-1.65,3.99l3.38,4.35-4.24,4.24-4.35-3.38a15.068,15.068,0,0,1-3.99,1.65L35,52H29l-.68-5.47a14.118,14.118,0,0,1-2.32-.8,14.55,14.55,0,0,1-1.67-.85L21.6,47l-1.62,1.26L18.72,47l-2.98-2.98L18.09,41l1.03-1.33a15.068,15.068,0,0,1-1.65-3.99L14,35.25,12,35V29l5.47-.68A15.123,15.123,0,0,1,18.75,25c.12-.23.24-.45.37-.67L16.53,21l-.79-1.02,4.24-4.24L21.6,17l2.73,2.12A14.55,14.55,0,0,1,26,18.27a14.118,14.118,0,0,1,2.32-.8L29,12h6l.68,5.47a15.068,15.068,0,0,1,3.99,1.65l4.35-3.38,4.24,4.24-3.38,4.35a15.068,15.068,0,0,1,1.65,3.99L52,29v6Z" style="fill:#ff9811"/><path d="M32,23a9,9,0,0,1,0,18,8.262,8.262,0,0,1-1-.06V23.06A8.262,8.262,0,0,1,32,23Z" style="fill:#ffd422"/><rect x="3" y="12" width="28" height="40" rx="2" style="fill:#5aaae7"/><path d="M58,30h-.08a2,2,0,0,0,0,4H58a2,2,0,0,0,0-4Z" style="fill:#ee8700"/><path d="M32,4a2.006,2.006,0,0,0-2,2v.08a2,2,0,0,0,4,0V6A2.006,2.006,0,0,0,32,4Z" style="fill:#ee8700"/><path d="M32,56a2.018,2.018,0,0,0-2,1.92V58a2,2,0,0,0,4,0v-.08A2.018,2.018,0,0,0,32,56Z" style="fill:#ee8700"/><path d="M26,41v5a1,1,0,0,1-1,1H20V41Z" style="fill:#ee8700"/><rect x="20" y="35" width="6" height="6" style="fill:#ffa733"/><path d="M26,30v5H20V29h5A1,1,0,0,1,26,30Z" style="fill:#ee8700"/><rect x="14" y="29" width="6" height="6" style="fill:#ffa733"/><rect x="14" y="35" width="6" height="6" style="fill:#ee8700"/><rect x="14" y="41" width="6" height="6" style="fill:#ffa733"/><polygon points="14 35.25 14 41 8 41 8 35 12 35 14 35.25" style="fill:#ffa733"/><polygon points="14 35 14 35.25 12 35 14 35" style="fill:#ffa733"/><path d="M14,29v6H8V30a1,1,0,0,1,1-1Z" style="fill:#ee8700"/><rect x="8" y="17" width="18" height="8" rx="1" style="fill:#ffd422"/><path d="M14,41v6H9a1,1,0,0,1-1-1V41Z" style="fill:#ee8700"/><path d="M25,28H9a2,2,0,0,0-2,2V46a2,2,0,0,0,2,2H25a2,2,0,0,0,2-2V30A2,2,0,0,0,25,28Zm0,6H21V30h4ZM15,40V36h4v4Zm4,2v4H15V42Zm-6-2H9V36h4Zm2-6V30h4v4Zm6,2h4v4H21Zm-8-6v4H9V30ZM9,42h4v4H9Zm12,4V42h4v4Z"/><path d="M25,16H9a2,2,0,0,0-2,2v6a2,2,0,0,0,2,2H25a2,2,0,0,0,2-2V18A2,2,0,0,0,25,16Zm0,8H9V18H25Z"/><rect x="20" y="20" width="2" height="2"/><rect x="16" y="20" width="2" height="2"/><rect x="12" y="20" width="2" height="2"/><path d="M52.12,28.01l-4.81-.6a15.937,15.937,0,0,0-1.23-2.99l2.97-3.83a.994.994,0,0,0-.08-1.32l-4.24-4.24a1,1,0,0,0-1.32-.08l-3.83,2.97a15.937,15.937,0,0,0-2.99-1.23l-.6-4.81A1,1,0,0,0,35,11H5a3.009,3.009,0,0,0-3,3V50a3.009,3.009,0,0,0,3,3H35a1,1,0,0,0,.99-.88l.6-4.81a15.937,15.937,0,0,0,2.99-1.23l3.83,2.97a1,1,0,0,0,1.32-.08l4.24-4.24a.994.994,0,0,0,.08-1.32l-2.97-3.83a15.937,15.937,0,0,0,1.23-2.99l4.81-.6A1,1,0,0,0,53,35V29A1,1,0,0,0,52.12,28.01ZM30,50a1,1,0,0,1-1,1H5a1,1,0,0,1-1-1V14a1,1,0,0,1,1-1H29a1,1,0,0,1,1,1ZM51,34.12l-4.6.57a.992.992,0,0,0-.84.75,14.057,14.057,0,0,1-1.54,3.71,1,1,0,0,0,.07,1.13l2.84,3.66-2.99,2.99-3.66-2.84a.994.994,0,0,0-1.13-.07,14.057,14.057,0,0,1-3.71,1.54.992.992,0,0,0-.75.84L34.12,51h-2.3A3,3,0,0,0,32,50V42a10,10,0,0,0,0-20V14a3,3,0,0,0-.18-1h2.3l.57,4.6a.992.992,0,0,0,.75.84,14.057,14.057,0,0,1,3.71,1.54.994.994,0,0,0,1.13-.07l3.66-2.84,2.99,2.99-2.84,3.66a1,1,0,0,0-.07,1.13,14.057,14.057,0,0,1,1.54,3.71.992.992,0,0,0,.84.75l4.6.57ZM32,40V24a8,8,0,0,1,0,16Z"/><path d="M61,32a3,3,0,0,0-2.181-2.872A27.125,27.125,0,0,0,34.872,5.181a2.981,2.981,0,0,0-5.738-.018,26.729,26.729,0,0,0-9.6,2.88l.924,1.774a24.728,24.728,0,0,1,8.773-2.655,3,3,0,0,0,5.522.017A25.117,25.117,0,0,1,56.821,29.243a3,3,0,0,0,0,5.514A25.116,25.116,0,0,1,34.757,56.821a3,3,0,0,0-5.522.017,24.728,24.728,0,0,1-8.773-2.655l-.924,1.774a26.729,26.729,0,0,0,9.6,2.88,2.981,2.981,0,0,0,5.738-.018A27.125,27.125,0,0,0,58.819,34.872,3,3,0,0,0,61,32ZM32,7a1,1,0,1,1,1-1A1,1,0,0,1,32,7Zm0,52a1,1,0,1,1,1-1A1,1,0,0,1,32,59ZM58,33a1,1,0,1,1,1-1A1,1,0,0,1,58,33Z"/><rect x="23.235" y="59.978" width="2" height="2" transform="translate(-40.937 68.605) rotate(-75)"/><rect x="16" y="56.981" width="2" height="2" transform="translate(-41.714 43.718) rotate(-60.005)"/><rect x="38.765" y="59.978" width="2" height="2" transform="matrix(0.966, -0.259, 0.259, 0.966, -14.424, 12.366)"/><rect x="46" y="56.981" width="2" height="2" transform="translate(-22.694 31.27) rotate(-30.002)"/><rect x="52.213" y="52.213" width="2" height="2" transform="translate(-22.042 53.2) rotate(-44.99)"/><rect x="56.98" y="46" width="2" height="2" transform="translate(-11.71 73.719) rotate(-60.005)"/><rect x="59.978" y="38.765" width="2" height="2" transform="translate(6.786 88.373) rotate(-75)"/><rect x="59.978" y="23.235" width="2" height="2" transform="translate(-4.195 16.608) rotate(-15)"/><rect x="56.98" y="16" width="2" height="2" transform="translate(-0.733 31.262) rotate(-29.995)"/><rect x="52.213" y="9.787" width="2" height="2" transform="translate(7.958 40.787) rotate(-45)"/><rect x="46" y="5.019" width="2" height="2" transform="translate(18.291 43.716) rotate(-60.005)"/><rect x="38.765" y="2.022" width="2" height="2" transform="translate(26.554 40.65) rotate(-75)"/><rect x="23.235" y="2.022" width="2" height="2" transform="matrix(0.966, -0.259, 0.259, 0.966, 0.043, 6.374)"/><rect x="16" y="5.019" width="2" height="2" transform="translate(-0.732 9.307) rotate(-30.002)"/></g></svg>