<svg xmlns="http://www.w3.org/2000/svg" viewBox="0 0 64 64"><g id="Chart-Business-Project-Presentation-Engineer"><polygon points="61 45 61 49 35 49 29 49 3 49 3 45 5 45 59 45 61 45" style="fill:#ee8700"/><polygon points="61 7 61 11 59 11 5 11 3 11 3 7 29 7 35 7 61 7" style="fill:#ee8700"/><rect x="5" y="11" width="54" height="34" style="fill:#78b9eb"/><path d="M43.68,32.47a9.8,9.8,0,0,1-1.09,2.62l2.02,2.69-2.83,2.83-2.69-2.02a9.8,9.8,0,0,1-2.62,1.09L36,43H32l-.47-3.32a9.8,9.8,0,0,1-2.62-1.09l-2.69,2.02-2.83-2.83,2.02-2.69a9.8,9.8,0,0,1-1.09-2.62L21,32V28l3.32-.47a9.8,9.8,0,0,1,1.09-2.62l-2.02-2.69,2.83-2.83,2.69,2.02a9.8,9.8,0,0,1,2.62-1.09L32,17h4l.47,3.32a9.8,9.8,0,0,1,2.62,1.09l2.69-2.02,2.83,2.83-2.02,2.69a9.8,9.8,0,0,1,1.09,2.62L47,28v4Z" style="fill:#3d9ae2"/><path d="M41.68,30.47a9.8,9.8,0,0,1-1.09,2.62l2.02,2.69-2.83,2.83-2.69-2.02a9.8,9.8,0,0,1-2.62,1.09L34,41H30l-.47-3.32a9.8,9.8,0,0,1-2.62-1.09l-2.69,2.02-2.83-2.83,2.02-2.69a9.8,9.8,0,0,1-1.09-2.62L19,30V26l3.32-.47a9.8,9.8,0,0,1,1.09-2.62l-2.02-2.69,2.83-2.83,2.69,2.02a9.8,9.8,0,0,1,2.62-1.09L30,15h4l.47,3.32a9.8,9.8,0,0,1,2.62,1.09l2.69-2.02,2.83,2.83-2.02,2.69a9.8,9.8,0,0,1,1.09,2.62L45,26v4Z" style="fill:#ff9811"/><polygon points="42 57 42 61 22 61 22 57 29 57 35 57 42 57" style="fill:#aa6100"/><circle cx="32" cy="28" r="5" style="fill:#ffd422"/><rect x="29" y="49" width="6" height="8" style="fill:#cc7400"/><rect x="29" y="3" width="6" height="4" style="fill:#cc7400"/><rect x="5" y="11" width="54" height="2" style="fill:#3d9ae2"/><rect x="29" y="49" width="6" height="2" style="fill:#aa6100"/><path d="M48.414,18H50V16H48a1,1,0,0,0-.707.293l-2,2,1.414,1.414Z"/><rect x="52" y="16" width="4" height="2"/><rect x="52" y="20" width="4" height="2"/><path d="M15.586,40H14v2h2a1,1,0,0,0,.707-.293l3-3-1.414-1.414Z"/><rect x="8" y="36" width="4" height="2"/><rect x="8" y="40" width="4" height="2"/><rect x="8" y="14" width="2" height="2"/><rect x="12" y="14" width="4" height="2"/><rect x="8" y="18" width="8" height="2"/><rect x="51" y="36" width="5" height="2"/><rect x="51" y="40" width="5" height="2"/><path d="M61,12a1,1,0,0,0,1-1V7a1,1,0,0,0-1-1H36V3a1,1,0,0,0-1-1H29a1,1,0,0,0-1,1V6H3A1,1,0,0,0,2,7v4a1,1,0,0,0,1,1H4V44H3a1,1,0,0,0-1,1v4a1,1,0,0,0,1,1H28v6H22a1,1,0,0,0-1,1v4a1,1,0,0,0,1,1H42a1,1,0,0,0,1-1V57a1,1,0,0,0-1-1H36V50H61a1,1,0,0,0,1-1V45a1,1,0,0,0-1-1H60V12ZM30,4h4V6H30ZM41,58v2H23V58ZM30,56V50h4v6Zm30-8H4V46H60ZM6,44V12H58V44ZM4,10V8H60v2Z"/><path d="M18.858,30.99l2.682.383a10.96,10.96,0,0,0,.678,1.639l-1.624,2.166a1,1,0,0,0,.093,1.307l2.828,2.828a1,1,0,0,0,1.307.093l2.166-1.624a10.96,10.96,0,0,0,1.639.678l.383,2.682A1,1,0,0,0,30,42h4a1,1,0,0,0,.99-.858l.383-2.682a10.9,10.9,0,0,0,1.639-.678l2.167,1.624a1,1,0,0,0,1.306-.093l2.828-2.828a1,1,0,0,0,.093-1.307l-1.625-2.166a10.86,10.86,0,0,0,.679-1.639l2.682-.383A1,1,0,0,0,46,30V26a1,1,0,0,0-.858-.99l-2.682-.383a10.86,10.86,0,0,0-.679-1.639l1.625-2.166a1,1,0,0,0-.093-1.307l-2.828-2.828a1,1,0,0,0-1.306-.093l-2.167,1.624a10.9,10.9,0,0,0-1.639-.678l-.383-2.682A1,1,0,0,0,34,14H30a1,1,0,0,0-.99.858l-.383,2.682a10.96,10.96,0,0,0-1.639.678l-2.166-1.624a1,1,0,0,0-1.307.093l-2.828,2.828a1,1,0,0,0-.093,1.307l1.624,2.166a10.96,10.96,0,0,0-.678,1.639l-2.682.383A1,1,0,0,0,18,26v4A1,1,0,0,0,18.858,30.99ZM20,26.867l2.463-.352a1,1,0,0,0,.828-.743,8.892,8.892,0,0,1,.975-2.356,1,1,0,0,0-.06-1.111l-1.492-1.99,1.6-1.6,1.99,1.492a1,1,0,0,0,1.111.06,8.892,8.892,0,0,1,2.356-.975,1,1,0,0,0,.743-.828L30.867,16h2.266l.351,2.463a1,1,0,0,0,.744.828,8.859,8.859,0,0,1,2.356.975,1,1,0,0,0,1.11-.06l1.991-1.492,1.6,1.6-1.492,1.99a1,1,0,0,0-.061,1.111,8.923,8.923,0,0,1,.977,2.357,1,1,0,0,0,.827.742L44,26.867v2.266l-2.463.352a1,1,0,0,0-.827.742,8.923,8.923,0,0,1-.977,2.357,1,1,0,0,0,.061,1.111l1.492,1.99-1.6,1.6-1.991-1.492a1,1,0,0,0-1.11-.06,8.859,8.859,0,0,1-2.356.975,1,1,0,0,0-.744.828L33.133,40H30.867l-.352-2.463a1,1,0,0,0-.743-.828,8.892,8.892,0,0,1-2.356-.975,1,1,0,0,0-1.111.06l-1.99,1.492-1.6-1.6,1.492-1.99a1,1,0,0,0,.06-1.111,8.892,8.892,0,0,1-.975-2.356,1,1,0,0,0-.828-.743L20,29.133Z"/><path d="M32,34a6,6,0,1,0-6-6A6.006,6.006,0,0,0,32,34Zm0-10a4,4,0,1,1-4,4A4,4,0,0,1,32,24Z"/><rect x="45" y="36" width="4" height="2"/></g></svg>