<svg xmlns="http://www.w3.org/2000/svg" viewBox="0 0 64 64"><g id="Company-Engineer-Gear-Management-Organization"><path d="M61,59a2.006,2.006,0,0,1-2,2H47a2.015,2.015,0,0,1-2-2,2.006,2.006,0,0,1,2-2H59a2.015,2.015,0,0,1,2,2Z" style="fill:#f7910c"/><path d="M59,57H55V51.35A5.981,5.981,0,0,1,59,57Z" style="fill:#ff9811"/><path d="M51,51.35V57H47A5.981,5.981,0,0,1,51,51.35Z" style="fill:#ff9811"/><path d="M41.68,22.47a9.8,9.8,0,0,1-1.09,2.62l2.02,2.69-2.83,2.83-2.69-2.02a9.8,9.8,0,0,1-2.62,1.09L34,33H30l-.47-3.32a9.8,9.8,0,0,1-2.62-1.09l-2.69,2.02-2.83-2.83,2.02-2.69a9.8,9.8,0,0,1-1.09-2.62L19,22V18l3.32-.47a9.8,9.8,0,0,1,1.09-2.62l-2.02-2.69,2.83-2.83,2.69,2.02a9.8,9.8,0,0,1,2.62-1.09L30,7h4l.47,3.32a9.8,9.8,0,0,1,2.62,1.09l2.69-2.02,2.83,2.83-2.02,2.69a9.8,9.8,0,0,1,1.09,2.62L45,18v4Z" style="fill:#ff9811"/><path d="M40,59a2.006,2.006,0,0,1-2,2H26a2.015,2.015,0,0,1-2-2,2.006,2.006,0,0,1,2-2H38a2.015,2.015,0,0,1,2,2Z" style="fill:#f7910c"/><path d="M38,57H34V51.35A5.981,5.981,0,0,1,38,57Z" style="fill:#ff9811"/><circle cx="32" cy="20" r="5" style="fill:#ffd422"/><path d="M30,51.35V57H26A5.981,5.981,0,0,1,30,51.35Z" style="fill:#ff9811"/><path d="M19,59a2.006,2.006,0,0,1-2,2H5a2.015,2.015,0,0,1-2-2,2.006,2.006,0,0,1,2-2H17a2.015,2.015,0,0,1,2,2Z" style="fill:#f7910c"/><path d="M17,57H13V51.35A5.981,5.981,0,0,1,17,57Z" style="fill:#ff9811"/><path d="M54.41,49.59A1.955,1.955,0,0,0,53,49a2.006,2.006,0,0,0-2,2v6h4V51A1.955,1.955,0,0,0,54.41,49.59Z" style="fill:#ffa733"/><path d="M32,49a2.006,2.006,0,0,0-2,2v6h4V51a2.015,2.015,0,0,0-2-2Z" style="fill:#ffa733"/><path d="M11,49a2.006,2.006,0,0,0-2,2v6h4V51a2.015,2.015,0,0,0-2-2Z" style="fill:#ffa733"/><path d="M9,51.35V57H5A5.981,5.981,0,0,1,9,51.35Z" style="fill:#ff9811"/><path d="M12,43a1,1,0,0,1,1-1H31v4h2V42H51a1,1,0,0,1,1,1v3h2V43a3,3,0,0,0-3-3H33V36H31v4H13a3,3,0,0,0-3,3v3h2Z"/><path d="M38.93,56.16a6.913,6.913,0,0,0-3.96-5.47,2.985,2.985,0,0,0-5.94,0,6.913,6.913,0,0,0-3.96,5.47A2.993,2.993,0,0,0,26,62H38a2.993,2.993,0,0,0,.93-5.84ZM35,53a5.036,5.036,0,0,1,1.89,3H35Zm-4-2a1,1,0,0,1,2,0v5H31Zm-2,2v3H27.11A5.036,5.036,0,0,1,29,53Zm9,7H26a1,1,0,0,1,0-2H38a1,1,0,0,1,0,2Z"/><path d="M61.13,56.89a3.037,3.037,0,0,0-1.2-.73,6.913,6.913,0,0,0-3.96-5.47,2.918,2.918,0,0,0-.84-1.8,2.987,2.987,0,0,0-5.1,1.8,6.913,6.913,0,0,0-3.96,5.47A3,3,0,0,0,44,59a3,3,0,0,0,3,3H59a3.009,3.009,0,0,0,3-3A2.954,2.954,0,0,0,61.13,56.89ZM56,53a5.036,5.036,0,0,1,1.89,3H56Zm-4-2a1,1,0,0,1,1-1,.949.949,0,0,1,.71.31A.928.928,0,0,1,54,51v5H52Zm-2,2v3H48.11A5.036,5.036,0,0,1,50,53Zm9,7H47a.949.949,0,0,1-.71-.31A.928.928,0,0,1,46,59a1,1,0,0,1,1-1H59a.949.949,0,0,1,.71.31A.928.928,0,0,1,60,59,1,1,0,0,1,59,60Z"/><path d="M17.93,56.16a6.913,6.913,0,0,0-3.96-5.47,2.985,2.985,0,0,0-5.94,0,6.913,6.913,0,0,0-3.96,5.47A2.993,2.993,0,0,0,5,62H17a2.993,2.993,0,0,0,.93-5.84ZM14,53a5.036,5.036,0,0,1,1.89,3H14Zm-4-2a1,1,0,0,1,2,0v5H10ZM8,53v3H6.11A5.036,5.036,0,0,1,8,53Zm9,7H5a1,1,0,0,1,0-2H17a1,1,0,0,1,0,2Z"/><path d="M18.858,17.01A1,1,0,0,0,18,18v4a1,1,0,0,0,.858.99l2.682.383a10.96,10.96,0,0,0,.678,1.639l-1.624,2.166a1,1,0,0,0,.093,1.307l2.828,2.828a1,1,0,0,0,1.307.093l2.166-1.624a10.96,10.96,0,0,0,1.639.678l.383,2.682A1,1,0,0,0,30,34h4a1,1,0,0,0,.99-.858l.383-2.682a10.96,10.96,0,0,0,1.639-.678l2.166,1.624a1,1,0,0,0,1.307-.093l2.828-2.828a1,1,0,0,0,.093-1.307l-1.624-2.166a10.96,10.96,0,0,0,.678-1.639l2.682-.383A1,1,0,0,0,46,22V18a1,1,0,0,0-.858-.99l-2.682-.383a10.96,10.96,0,0,0-.678-1.639l1.624-2.166a1,1,0,0,0-.093-1.307L40.485,8.687a1,1,0,0,0-1.307-.093l-2.166,1.624a10.96,10.96,0,0,0-1.639-.678L34.99,6.858A1,1,0,0,0,34,6H30a1,1,0,0,0-.99.858L28.627,9.54a10.96,10.96,0,0,0-1.639.678L24.822,8.594a1,1,0,0,0-1.307.093l-2.828,2.828a1,1,0,0,0-.093,1.307l1.624,2.166a10.96,10.96,0,0,0-.678,1.639Zm3.605,1.5a1,1,0,0,0,.828-.743,8.892,8.892,0,0,1,.975-2.356,1,1,0,0,0-.06-1.111l-1.492-1.99,1.6-1.6,1.99,1.492a1,1,0,0,0,1.111.06,8.892,8.892,0,0,1,2.356-.975,1,1,0,0,0,.743-.828L30.867,8h2.266l.352,2.463a1,1,0,0,0,.743.828,8.892,8.892,0,0,1,2.356.975,1,1,0,0,0,1.111-.06l1.99-1.492,1.6,1.6-1.492,1.99a1,1,0,0,0-.06,1.111,8.892,8.892,0,0,1,.975,2.356,1,1,0,0,0,.828.743L44,18.867v2.266l-2.463.352a1,1,0,0,0-.828.743,8.892,8.892,0,0,1-.975,2.356,1,1,0,0,0,.06,1.111l1.492,1.99-1.6,1.6L37.7,27.794a1,1,0,0,0-1.111-.06,8.892,8.892,0,0,1-2.356.975,1,1,0,0,0-.743.828L33.133,32H30.867l-.352-2.463a1,1,0,0,0-.743-.828,8.892,8.892,0,0,1-2.356-.975,1,1,0,0,0-1.111.06l-1.99,1.492-1.6-1.6,1.492-1.99a1,1,0,0,0,.06-1.111,8.892,8.892,0,0,1-.975-2.356,1,1,0,0,0-.828-.743L20,21.133V18.867Z"/><path d="M32,26a6,6,0,1,0-6-6A6.006,6.006,0,0,0,32,26Zm0-10a4,4,0,1,1-4,4A4,4,0,0,1,32,16Z"/><rect x="31" y="2" width="2" height="2"/><rect x="22.5" y="4.278" width="2" height="2" transform="translate(0.51 12.458) rotate(-30.002)"/><rect x="16.277" y="10.5" width="2" height="2" transform="translate(-1.321 20.712) rotate(-59.998)"/><rect x="14" y="19" width="2" height="2"/><rect x="16.278" y="27.5" width="2" height="2" transform="translate(-11.934 12.454) rotate(-29.995)"/><rect x="22.5" y="33.722" width="2" height="2" transform="translate(-18.32 37.717) rotate(-60.005)"/><rect x="39.5" y="33.722" width="2" height="2" transform="translate(-11.934 24.897) rotate(-29.995)"/><rect x="45.722" y="27.5" width="2" height="2" transform="translate(-1.321 54.711) rotate(-59.998)"/><rect x="48" y="19" width="2" height="2"/><rect x="45.722" y="10.5" width="2" height="2" transform="translate(0.508 24.898) rotate(-29.995)"/><rect x="39.5" y="4.277" width="2" height="2" transform="translate(15.682 37.715) rotate(-60.005)"/></g></svg>