<svg xmlns="http://www.w3.org/2000/svg" viewBox="0 0 64 64"><g id="Computer-Engineer-Gear-Monitor-Construction"><path d="M53,17V41H3V17a4,4,0,0,1,4-4H49A4,4,0,0,1,53,17Z" style="fill:#5aaae7"/><path d="M53,41v4a4,4,0,0,1-4,4H7a4,4,0,0,1-4-4V41H53Z" style="fill:#c6c5ca"/><path d="M53,17V29.53c-.17.05-.35.1-.53.15L52,33H48l-.47-3.32a9.8,9.8,0,0,1-2.62-1.09l-2.69,2.02-2.83-2.83,2.02-2.69a9.8,9.8,0,0,1-1.09-2.62L37,22V18l3.32-.47A9.427,9.427,0,0,1,41.36,15a.405.405,0,0,1,.05-.09L39.98,13H49A4,4,0,0,1,53,17Z" style="fill:#3d9ae2"/><path d="M57.68,20.47a9.8,9.8,0,0,1-1.09,2.62l2.02,2.69-2.83,2.83-2.69-2.02a.405.405,0,0,1-.09.05,9.427,9.427,0,0,1-2.53,1.04L50,31H46l-.47-3.32a9.8,9.8,0,0,1-2.62-1.09l-2.69,2.02-2.83-2.83,2.02-2.69a9.8,9.8,0,0,1-1.09-2.62L35,20V16l3.32-.47A9.427,9.427,0,0,1,39.36,13a.405.405,0,0,1,.05-.09l-2.02-2.69,2.83-2.83,2.69,2.02a9.8,9.8,0,0,1,2.62-1.09L46,5h4l.47,3.32a9.8,9.8,0,0,1,2.62,1.09l2.69-2.02,2.83,2.83-2.02,2.69a9.8,9.8,0,0,1,1.09,2.62L61,16v4Z" style="fill:#ff9811"/><circle cx="48" cy="18" r="5" style="fill:#ffd422"/><path d="M39.41,57.59A1.955,1.955,0,0,1,40,59a2.006,2.006,0,0,1-2,2H18a2.015,2.015,0,0,1-2-2,2.006,2.006,0,0,1,2-2H38A1.955,1.955,0,0,1,39.41,57.59Z" style="fill:#898890"/><polygon points="36 57 20 57 21 49 35 49 36 57" style="fill:#acabb1"/><path d="M33,38.9V41H9V38.9a6,6,0,0,1,3.56-5.48L15.3,32.2,18,31V28.32A6.946,6.946,0,0,1,14.08,23H13a2,2,0,0,1,0-4h1V17a2.015,2.015,0,0,1-2-2,2.006,2.006,0,0,1,2-2H28a2.015,2.015,0,0,1,2,2,2.006,2.006,0,0,1-2,2v2h1a2,2,0,0,1,0,4H27.92A6.952,6.952,0,0,1,24,28.32V31l2.7,1.2,2.74,1.22A6,6,0,0,1,33,38.9Z" style="fill:#3d9ae2"/><path d="M31,36.9V41H22l-1.82-8.18L21,32l3,1,.7-2.8,2.74,1.22A6,6,0,0,1,31,36.9Z" style="fill:#1e81ce"/><path d="M27.41,11.59A1.955,1.955,0,0,1,28,13a2.006,2.006,0,0,1-2,2H12a2.015,2.015,0,0,1-2-2,2.006,2.006,0,0,1,2-2H26A1.955,1.955,0,0,1,27.41,11.59Z" style="fill:#f7910c"/><path d="M26,11H21V5.09A5.984,5.984,0,0,1,25.91,10,5.47,5.47,0,0,1,26,11Z" style="fill:#ff9811"/><polygon points="24.7 30.2 24 33 21 32 20 30 22 29 24.7 30.2" style="fill:#1a6fb0"/><polygon points="20.18 32.82 22 41 16 41 17.82 32.82 19 34 20.18 32.82" style="fill:#ed1c24"/><path d="M21,5.09V11H17V4a1,1,0,0,1,1-1h2a1,1,0,0,1,1,1Z" style="fill:#ffa733"/><polygon points="20 30 21 32 20.18 32.82 19 34 17.82 32.82 17 32 18 30 20 30" style="fill:#ed1c24"/><polygon points="18 30 17 32 14 33 13.3 30.2 16 29 18 30" style="fill:#1a6fb0"/><path d="M17.82,32.82,16,41H7V36.9a6,6,0,0,1,3.56-5.48L13.3,30.2,14,33l3-1Z" style="fill:#1e81ce"/><path d="M17,5.09V11H12a5.47,5.47,0,0,1,.09-1A5.992,5.992,0,0,1,17,5.09Z" style="fill:#ff9811"/><polygon points="22 26 22 29 20 30 18 30 16 29 16 26 22 26" style="fill:#ffc477"/><path d="M13,17v4H11a2,2,0,0,1,0-4Z" style="fill:#ffb655"/><path d="M29,19a2.006,2.006,0,0,1-2,2H25V17h2A2.006,2.006,0,0,1,29,19Z" style="fill:#ffb655"/><path d="M22,26v2.32a6.958,6.958,0,0,1-6,0V26Z" style="fill:#ffb655"/><path d="M26,17v3a5.474,5.474,0,0,1-.08,1A6.952,6.952,0,0,1,22,26.32,6.982,6.982,0,0,1,12.08,21,5.474,5.474,0,0,1,12,20V15H26Z" style="fill:#ffc477"/><rect x="12" y="15" width="14" height="2" style="fill:#ffb655"/><polygon points="35.25 51 20.75 51 21 49 35 49 35.25 51" style="fill:#898890"/><rect x="31" y="12" width="5" height="2"/><path d="M52,30V40H32V36.9a7,7,0,0,0-4.15-6.39L23,28.35V26.92A8.06,8.06,0,0,0,26.74,22H27a3,3,0,0,0,0-6v-.18a2.983,2.983,0,0,0-.05-5.65,6.934,6.934,0,0,0-2-4.11A6.756,6.756,0,0,0,22,4.31V4a2.006,2.006,0,0,0-2-2H18a2.006,2.006,0,0,0-2,2v.3a6.96,6.96,0,0,0-4.95,5.87A2.983,2.983,0,0,0,11,15.82V16a3,3,0,0,0,0,6h.26A8.06,8.06,0,0,0,15,26.92v1.43l-4.85,2.16A7,7,0,0,0,6,36.9V40H4V17a3.009,3.009,0,0,1,3-3V12a5,5,0,0,0-5,5V45a5,5,0,0,0,5,5H19.87l-.75,6H18a3,3,0,0,0,0,6H38a3,3,0,0,0,0-6H36.88l-.75-6H49a5,5,0,0,0,5-5V30ZM11,20a1,1,0,0,1,0-2ZM24,34a1,1,0,0,0,.48-.12,1.017,1.017,0,0,0,.49-.64l.41-1.64,1.65.73A5,5,0,0,1,30,36.9V40H22.8l-1.52-6.85,2.4.8A1.185,1.185,0,0,0,24,34Zm-.47-3.23-.24.94-1.58-.53-.37-.73.69-.34ZM28,19a1,1,0,0,1-1,1V18A1,1,0,0,1,28,19ZM22,6.43a5.106,5.106,0,0,1,1.54,1.04A4.913,4.913,0,0,1,24.9,10H22ZM18,4h2v6H18ZM16,6.43V10H13.1A4.961,4.961,0,0,1,16,6.43ZM11,13a1,1,0,0,1,1-1H26a1,1,0,0,1,0,2H12A1,1,0,0,1,11,13Zm2,7V16H25v4a6,6,0,0,1-12,0Zm5.41,14.78a.9.9,0,0,0,1.18,0L20.75,40h-3.5Zm-.19-2.98.4-.8h.76l.4.8-.78.79ZM19.76,29H18.24L17,28.38v-.64a7.822,7.822,0,0,0,4,0v.64Zm-3.79,1.11.69.34-.37.73-1.58.53-.24-.94ZM8,36.9a5,5,0,0,1,2.97-4.57l1.65-.73.41,1.64a1.017,1.017,0,0,0,.49.64A1,1,0,0,0,14,34a1.185,1.185,0,0,0,.32-.05l2.4-.8L15.2,40H8ZM38,58a1,1,0,0,1,0,2H18a1,1,0,0,1,0-2ZM21.13,56l.75-6H34.12l.75,6ZM52,45a3.009,3.009,0,0,1-3,3H7a3.009,3.009,0,0,1-3-3V42H52Z"/><rect x="46" y="44" width="2" height="2"/><rect x="15" y="18" width="2" height="2"/><rect x="21" y="18" width="2" height="2"/><path d="M61.142,15.01l-2.682-.383a10.86,10.86,0,0,0-.679-1.639l1.625-2.166a1,1,0,0,0-.093-1.307L56.485,6.687a1,1,0,0,0-1.306-.093L53.012,8.218a10.9,10.9,0,0,0-1.639-.678L50.99,4.858A1,1,0,0,0,50,4H46a1,1,0,0,0-.99.858L44.627,7.54a10.855,10.855,0,0,0-1.639.678L40.821,6.594a1,1,0,0,0-1.306.093L36.687,9.515a1,1,0,0,0-.093,1.307l1.625,2.166a10.86,10.86,0,0,0-.679,1.639l-2.682.383A1,1,0,0,0,34,16v4a1,1,0,0,0,.858.99l2.682.383a10.86,10.86,0,0,0,.679,1.639l-1.625,2.166a1,1,0,0,0,.093,1.307l2.828,2.828a1,1,0,0,0,1.306.093l2.167-1.624a10.855,10.855,0,0,0,1.639.678l.383,2.682A1,1,0,0,0,46,32h4a1,1,0,0,0,.99-.858l.383-2.682a10.9,10.9,0,0,0,1.639-.678l2.167,1.624a1,1,0,0,0,1.306-.093l2.828-2.828a1,1,0,0,0,.093-1.307l-1.625-2.166a10.86,10.86,0,0,0,.679-1.639l2.682-.383A1,1,0,0,0,62,20V16A1,1,0,0,0,61.142,15.01ZM60,19.133l-2.463.352a1,1,0,0,0-.827.742,8.923,8.923,0,0,1-.977,2.357,1,1,0,0,0,.061,1.111l1.492,1.99-1.6,1.6-1.991-1.492a1,1,0,0,0-1.11-.06,8.859,8.859,0,0,1-2.356.975,1,1,0,0,0-.744.828L49.133,30H46.867l-.351-2.463a1,1,0,0,0-.744-.828,8.859,8.859,0,0,1-2.356-.975,1,1,0,0,0-1.11.06l-1.991,1.492-1.6-1.6,1.492-1.99a1,1,0,0,0,.061-1.111,8.923,8.923,0,0,1-.977-2.357,1,1,0,0,0-.827-.742L36,19.133V16.867l2.463-.352a1,1,0,0,0,.827-.742,8.923,8.923,0,0,1,.977-2.357,1,1,0,0,0-.061-1.111l-1.492-1.99,1.6-1.6,1.991,1.492a1,1,0,0,0,1.11.06,8.859,8.859,0,0,1,2.356-.975,1,1,0,0,0,.744-.828L46.867,6h2.266l.351,2.463a1,1,0,0,0,.744.828,8.859,8.859,0,0,1,2.356.975,1,1,0,0,0,1.11-.06l1.991-1.492,1.6,1.6-1.492,1.99a1,1,0,0,0-.061,1.111,8.923,8.923,0,0,1,.977,2.357,1,1,0,0,0,.827.742L60,16.867Z"/><path d="M48,12a6,6,0,1,0,6,6A6.006,6.006,0,0,0,48,12Zm0,10a4,4,0,1,1,4-4A4,4,0,0,1,48,22Z"/><rect x="36" y="32" width="8" height="2"/><rect x="36" y="36" width="8" height="2"/></g></svg>