<svg xmlns="http://www.w3.org/2000/svg" viewBox="0 0 64 64"><g id="Computer_Engineering-Engineer-Cogwheel-Network-Management" data-name="Computer Engineering-Engineer-Cogwheel-Network-Management"><polygon points="59 57 37 57 39 51 57 51 59 57" style="fill:#acabb1"/><polygon points="27 57 5 57 7 51 25 51 27 57" style="fill:#acabb1"/><path d="M59,57v3a1,1,0,0,1-1,1H38a1,1,0,0,1-1-1V57H59Z" style="fill:#898890"/><path d="M57,41V51H39V41a2.006,2.006,0,0,1,2-2H55A2.006,2.006,0,0,1,57,41Z" style="fill:#5aaae7"/><polygon points="51 54 52 57 44 57 45 54 51 54" style="fill:#c6c5ca"/><path d="M41.68,18.47a9.8,9.8,0,0,1-1.09,2.62l2.02,2.69-2.83,2.83-2.69-2.02a9.8,9.8,0,0,1-2.62,1.09L34,29H30l-.47-3.32a9.8,9.8,0,0,1-2.62-1.09l-2.69,2.02-2.83-2.83,2.02-2.69a9.8,9.8,0,0,1-1.09-2.62L19,18V14l3.32-.47a9.8,9.8,0,0,1,1.09-2.62L21.39,8.22l2.83-2.83,2.69,2.02a9.8,9.8,0,0,1,2.62-1.09L30,3h4l.47,3.32a9.8,9.8,0,0,1,2.62,1.09l2.69-2.02,2.83,2.83-2.02,2.69a9.8,9.8,0,0,1,1.09,2.62L45,14v4Z" style="fill:#ff9811"/><circle cx="32" cy="16" r="5" style="fill:#ffd422"/><circle cx="32" cy="35" r="2" style="fill:#ff9811"/><path d="M27,57v3a1,1,0,0,1-1,1H6a1,1,0,0,1-1-1V57H27Z" style="fill:#898890"/><path d="M25,41V51H7V41a2.006,2.006,0,0,1,2-2H23A2.006,2.006,0,0,1,25,41Z" style="fill:#5aaae7"/><polygon points="19 54 20 57 12 57 13 54 19 54" style="fill:#c6c5ca"/><path d="M59.948,56.684,58,50.839V41a3,3,0,0,0-3-3H49V37a3,3,0,0,0-3-3H34.816A3,3,0,0,0,33,32.184V30h1a1,1,0,0,0,.99-.858l.383-2.682a10.9,10.9,0,0,0,1.639-.679l2.167,1.625a1,1,0,0,0,1.306-.093l2.828-2.828a1,1,0,0,0,.093-1.306l-1.625-2.167a10.86,10.86,0,0,0,.679-1.639l2.682-.383A1,1,0,0,0,46,18V14a1,1,0,0,0-.858-.99l-2.682-.383a10.86,10.86,0,0,0-.679-1.639l1.625-2.167a1,1,0,0,0-.093-1.306L40.485,4.687a1,1,0,0,0-1.306-.093L37.012,6.219a10.9,10.9,0,0,0-1.639-.679L34.99,2.858A1,1,0,0,0,34,2H30a1,1,0,0,0-.99.858L28.627,5.54a10.86,10.86,0,0,0-1.639.679L24.822,4.594a1,1,0,0,0-1.307.093L20.687,7.515a1,1,0,0,0-.093,1.306l1.624,2.167a10.855,10.855,0,0,0-.678,1.639l-2.682.383A1,1,0,0,0,18,14v4a1,1,0,0,0,.858.99l2.682.383a10.855,10.855,0,0,0,.678,1.639l-1.624,2.167a1,1,0,0,0,.093,1.306l2.828,2.828a1,1,0,0,0,1.307.093l2.166-1.625a10.86,10.86,0,0,0,1.639.679l.383,2.682A1,1,0,0,0,30,30h1v2.184A3,3,0,0,0,29.184,34H18a3,3,0,0,0-3,3v1H9a3,3,0,0,0-3,3v9.837L4.051,56.684A1,1,0,0,0,4,57v3a2,2,0,0,0,2,2H26a2,2,0,0,0,2-2V57a1,1,0,0,0-.051-.316L26,50.837V41a3,3,0,0,0-3-3H17V37a1,1,0,0,1,1-1H29.184a2.982,2.982,0,0,0,5.632,0H46a1,1,0,0,1,1,1v1H41a3,3,0,0,0-3,3v9.839l-1.948,5.845A1,1,0,0,0,36,57v3a2,2,0,0,0,2,2H58a2,2,0,0,0,2-2V57A1,1,0,0,0,59.948,56.684ZM30.515,25.537a1,1,0,0,0-.742-.827,8.923,8.923,0,0,1-2.357-.977,1,1,0,0,0-1.111.061l-1.99,1.492-1.6-1.6,1.492-1.991a1,1,0,0,0,.06-1.11,8.859,8.859,0,0,1-.975-2.356,1,1,0,0,0-.828-.744L20,17.133V14.867l2.463-.351a1,1,0,0,0,.828-.744,8.859,8.859,0,0,1,.975-2.356,1,1,0,0,0-.06-1.11L22.714,8.315l1.6-1.6,1.99,1.492a1,1,0,0,0,1.111.061,8.923,8.923,0,0,1,2.357-.977,1,1,0,0,0,.742-.827L30.867,4h2.266l.351,2.463a1,1,0,0,0,.744.827,8.9,8.9,0,0,1,2.356.977,1,1,0,0,0,1.11-.061l1.991-1.492,1.6,1.6-1.492,1.991a1,1,0,0,0-.061,1.11,8.9,8.9,0,0,1,.977,2.356,1,1,0,0,0,.827.744L44,14.867v2.266l-2.463.351a1,1,0,0,0-.827.744,8.9,8.9,0,0,1-.977,2.356,1,1,0,0,0,.061,1.11l1.492,1.991-1.6,1.6-1.991-1.492a1,1,0,0,0-1.11-.061,8.9,8.9,0,0,1-2.356.977,1,1,0,0,0-.744.827L33.133,28H30.867ZM25.613,56H20.721l-.772-2.316A1,1,0,0,0,19,53H13a1,1,0,0,0-.949.684L11.279,56H6.387l1.334-4H24.279Zm-7,0H13.387l.334-1h4.558ZM6,60V58H26v2ZM24,41v9H8V41a1,1,0,0,1,1-1H23A1,1,0,0,1,24,41Zm8-5a1,1,0,1,1,1-1A1,1,0,0,1,32,36ZM52.72,56l-.772-2.316A1,1,0,0,0,51,53H45a1,1,0,0,0-.948.684L43.28,56H38.387l1.334-4H56.279l1.334,4Zm-2.107,0H45.387l.334-1h4.558ZM40,41a1,1,0,0,1,1-1H55a1,1,0,0,1,1,1v9H40ZM38,60V58H58v2Z"/><rect x="47" y="44" width="2" height="2"/><rect x="51" y="44" width="2" height="2"/><rect x="43" y="44" width="2" height="2"/><rect x="15" y="44" width="2" height="2"/><rect x="19" y="44" width="2" height="2"/><rect x="11" y="44" width="2" height="2"/><path d="M38,16a6,6,0,1,0-6,6A6.006,6.006,0,0,0,38,16Zm-6,4a4,4,0,1,1,4-4A4,4,0,0,1,32,20Z"/><rect x="16.277" y="6.5" width="2" height="2" transform="translate(2.143 18.712) rotate(-59.998)"/><rect x="14" y="15" width="2" height="2"/><rect x="16.278" y="23.5" width="2" height="2" transform="translate(-9.936 11.922) rotate(-30.002)"/><rect x="22.5" y="29.722" width="2" height="2" transform="translate(-14.856 35.716) rotate(-60.005)"/><rect x="39.5" y="29.722" width="2" height="2" transform="translate(-9.935 24.361) rotate(-29.995)"/><rect x="45.722" y="23.5" width="2" height="2" transform="translate(2.146 52.717) rotate(-60.005)"/><rect x="48" y="15" width="2" height="2"/><rect x="45.722" y="6.5" width="2" height="2" transform="translate(2.508 24.362) rotate(-29.995)"/></g></svg>