<svg xmlns="http://www.w3.org/2000/svg" viewBox="0 0 64 64"><g id="Computer-Engineer-Workflow-Algorithm-Programimng"><path d="M53,15V41H3V15a4,4,0,0,1,4-4H49A4,4,0,0,1,53,15Z" style="fill:#3d9ae2"/><path d="M47,5V9H9V5a2.006,2.006,0,0,1,2-2H45A2.006,2.006,0,0,1,47,5Z" style="fill:#ff5023"/><path d="M47,9V39a2.006,2.006,0,0,1-2,2H11a2.006,2.006,0,0,1-2-2V9Z" style="fill:#5aaae7"/><polygon points="41 27 41 31 38 31 35 31 35 27 38 27 41 27" style="fill:#00ccb3"/><rect x="16" y="57" width="24" height="4" rx="1" style="fill:#898890"/><polygon points="36 57 20 57 21 49 35 49 36 57" style="fill:#acabb1"/><polygon points="32 13 32 17 28 17 24 17 24 13 32 13" style="fill:#ffd422"/><polygon points="31 35 31 37 25 37 25 35 25 33 28 33 31 33 31 35" style="fill:#ff9811"/><rect x="25.879" y="21.879" width="4.243" height="4.243" transform="translate(-8.77 26.828) rotate(-45)" style="fill:#ff5023"/><polygon points="21 27 21 31 18 31 15 31 15 27 18 27 21 27" style="fill:#00ccb3"/><path d="M53,41v4a4,4,0,0,1-4,4H7a4,4,0,0,1-4-4V41Z" style="fill:#c6c5ca"/><path d="M61,58.9V61H52l-1.82-6.18L51,54l3,1,.7-2.8,2.74,1.22A6,6,0,0,1,61,58.9Z" style="fill:#3d9ae2"/><path d="M57.41,33.59A1.955,1.955,0,0,1,58,35a2.006,2.006,0,0,1-2,2H42a2.015,2.015,0,0,1-2-2,2.006,2.006,0,0,1,2-2H56A1.955,1.955,0,0,1,57.41,33.59Z" style="fill:#f7910c"/><path d="M56,33H51V27.09A5.984,5.984,0,0,1,55.91,32,5.47,5.47,0,0,1,56,33Z" style="fill:#ff9811"/><polygon points="54.7 52.2 54 55 51 54 50 52 52 51 54.7 52.2" style="fill:#1e81ce"/><polygon points="50.18 54.82 52 61 46 61 47.82 54.82 49 56 50.18 54.82" style="fill:#ed1c24"/><path d="M51,27.09V33H47V26a1,1,0,0,1,1-1h2a1,1,0,0,1,1,1Z" style="fill:#ffa733"/><polygon points="50 52 51 54 50.18 54.82 49 56 47.82 54.82 47 54 48 52 50 52" style="fill:#ed1c24"/><polygon points="48 52 47 54 44 55 43.3 52.2 46 51 48 52" style="fill:#1e81ce"/><path d="M47.82,54.82,46,61H37V58.9a6,6,0,0,1,3.56-5.48L43.3,52.2,44,55l3-1Z" style="fill:#3d9ae2"/><path d="M47,27.09V33H42a5.47,5.47,0,0,1,.09-1A5.992,5.992,0,0,1,47,27.09Z" style="fill:#ff9811"/><polygon points="52 48 52 51 50 52 48 52 46 51 46 48 52 48" style="fill:#ffc477"/><path d="M43,39v4H41a2,2,0,0,1,0-4Z" style="fill:#ffb655"/><path d="M59,41a2.006,2.006,0,0,1-2,2H55V39h2A2.006,2.006,0,0,1,59,41Z" style="fill:#ffb655"/><path d="M52,48v2.32a6.958,6.958,0,0,1-6,0V48Z" style="fill:#ffb655"/><path d="M56,39v3a5.474,5.474,0,0,1-.08,1A6.952,6.952,0,0,1,52,48.32,6.982,6.982,0,0,1,42.08,43,5.474,5.474,0,0,1,42,42V37H56Z" style="fill:#ffc477"/><rect x="42" y="37" width="14" height="2" style="fill:#ffb655"/><polygon points="35.25 51 20.75 51 21 49 35 49 35.25 51" style="fill:#898890"/><rect x="12" y="5" width="2" height="2"/><rect x="16" y="5" width="2" height="2"/><rect x="20" y="5" width="2" height="2"/><rect x="45" y="40" width="2" height="2"/><rect x="51" y="40" width="2" height="2"/><path d="M57.85,52.51,53,50.35V48.92A8.06,8.06,0,0,0,56.74,44H57a3,3,0,0,0,0-6v-.18a2.983,2.983,0,0,0-.05-5.65,6.934,6.934,0,0,0-2-4.11A6.756,6.756,0,0,0,52,26.31V26a2.006,2.006,0,0,0-2-2H48a2.006,2.006,0,0,0-2,2v.3a6.918,6.918,0,0,0-4,3.09V27a1,1,0,0,0-1-1H39V24a1,1,0,0,0-1-1H31.41L29,20.59V18h3a1,1,0,0,0,1-1V13a1,1,0,0,0-1-1H24a1,1,0,0,0-1,1v4a1,1,0,0,0,1,1h3v2.59L24.59,23H18a1,1,0,0,0-1,1v2H15a1,1,0,0,0-1,1v4a1,1,0,0,0,1,1h2v3a1,1,0,0,0,1,1h6v1a1,1,0,0,0,1,1h6a1,1,0,0,0,1-1V36h6a1,1,0,0,0,1-1V32h2a.235.235,0,0,0,.08-.02c-.01.06-.02.13-.03.19A2.983,2.983,0,0,0,41,37.82V38a3,3,0,0,0,0,6h.26A8.06,8.06,0,0,0,45,48.92v1.43l-4.85,2.16a6.95,6.95,0,0,0-3.31,3.11L36.13,50H42V48H7a3.009,3.009,0,0,1-3-3V42H36V40H11a1,1,0,0,1-1-1V10H46V22h2V12h1a3.009,3.009,0,0,1,3,3v8h2V15a5,5,0,0,0-5-5H48V5a3.009,3.009,0,0,0-3-3H11A3.009,3.009,0,0,0,8,5v5H7a5,5,0,0,0-5,5V45a5,5,0,0,0,5,5H19.87l-.75,6H17a2.006,2.006,0,0,0-2,2v2a2.006,2.006,0,0,0,2,2H61a1,1,0,0,0,1-1V58.9A7,7,0,0,0,57.85,52.51ZM25,16V14h6v2Zm3,6.41L29.59,24,28,25.59,26.41,24ZM16,30V28h4v2Zm8,3v1H19V32h2a1,1,0,0,0,1-1V27a1,1,0,0,0-1-1H19V25h5.59L27,27.41V32H25A1,1,0,0,0,24,33Zm6,3H26V34h4Zm7-2H32V33a1,1,0,0,0-1-1H29V27.41L31.41,25H37v1H35a1,1,0,0,0-1,1v4a1,1,0,0,0,1,1h2Zm3-4H36V28h4Zm1,12a1,1,0,0,1,0-2ZM10,5a1,1,0,0,1,1-1H45a1,1,0,0,1,1,1V8H10ZM4,15a3.009,3.009,0,0,1,3-3H8V39a3,3,0,0,0,.18,1H4ZM21.88,50H34.12l.75,6H21.13ZM36,58.9V60H17V58H36.07A6.819,6.819,0,0,0,36,58.9Zm17.53-6.13-.24.94-1.58-.53-.37-.73.68-.34ZM58,41a1,1,0,0,1-1,1V40A1,1,0,0,1,58,41ZM52,28.43a5.106,5.106,0,0,1,1.54,1.04A4.913,4.913,0,0,1,54.9,32H52ZM48,26h2v6H48Zm-2,2.43V32H43.1A4.943,4.943,0,0,1,46,28.43ZM41,35a1,1,0,0,1,1-1H56a1,1,0,0,1,0,2H42A1,1,0,0,1,41,35Zm2,7V38H55v4a6,6,0,0,1-12,0Zm2.98,10.11.68.34-.37.73-1.58.53-.24-.94ZM45.25,60H38V58.9a5,5,0,0,1,2.97-4.57l1.65-.73.41,1.64a1.017,1.017,0,0,0,.49.64A1,1,0,0,0,44,56a1.185,1.185,0,0,0,.32-.05l2.36-.79Zm2.09,0,.96-3.29a.99.99,0,0,0,1.4,0L50.66,60Zm.88-6.2.4-.8h.76l.4.8-.78.79ZM51,50.38,49.76,51H48.24L47,50.38v-.64a7.822,7.822,0,0,0,4,0ZM60,60H52.75l-1.43-4.84,2.36.79A1.185,1.185,0,0,0,54,56a1,1,0,0,0,.48-.12,1.017,1.017,0,0,0,.49-.64l.41-1.64,1.65.73A5,5,0,0,1,60,58.9Z"/></g></svg>