<svg xmlns="http://www.w3.org/2000/svg" viewBox="0 0 64 64"><g id="Computer-Engineer-Administrator-Programmer-Coding"><path d="M61,55v2H53V55a2.006,2.006,0,0,1,2-2h4A2.006,2.006,0,0,1,61,55Z" style="fill:#c6c5ca"/><path d="M49,57v3a1,1,0,0,1-1,1H4a1,1,0,0,1-1-1V57Z" style="fill:#acabb1"/><polygon points="49 57 3 57 9 51 40 51 43 51 49 57" style="fill:#c6c5ca"/><path d="M48,31v4a2.006,2.006,0,0,1-2,2H6a2.006,2.006,0,0,1-2-2V31H48Z" style="fill:#c6c5ca"/><polygon points="36 43 36 47 16 47 16 43 21 43 31 43 36 43" style="fill:#898890"/><rect x="21" y="37" width="10" height="6" style="fill:#acabb1"/><path d="M48,9V31H4V9A2.006,2.006,0,0,1,6,7H46A2.006,2.006,0,0,1,48,9Z" style="fill:#5aaae7"/><path d="M37,25.02V31H19V25.02a4,4,0,0,1,2.9-3.85l2.1-.6.55-.16L26,20V17.46A3.98,3.98,0,0,1,24,14V12H23a5.029,5.029,0,0,1,3-4.59V7h4v.41A5.029,5.029,0,0,1,33,12H32v2a4.025,4.025,0,0,1-1.17,2.83,4.225,4.225,0,0,1-.83.63V20l1.45.41.55.16,2.1.6A4,4,0,0,1,37,25.02Z" style="fill:#3d9ae2"/><polygon points="28 15 28 18 26 21 24 18 24 15 28 15" style="fill:#ffc477"/><path d="M35,23.02V31H17V23.02a4,4,0,0,1,2.9-3.85l2.1-.6V22l4-1,4,1V18.57l2.1.6A4,4,0,0,1,35,23.02Z" style="fill:#1e81ce"/><path d="M31,10H28V5.41A5.029,5.029,0,0,1,31,10Z" style="fill:#ff9811"/><polygon points="30 18.57 30 22 26 21 28 18 29.45 18.41 30 18.57" style="fill:#1a6fb0"/><path d="M28,15v1.46a3.974,3.974,0,0,1-4,0V15Z" style="fill:#ffb655"/><path d="M26,3a2.015,2.015,0,0,0-2,2v5h4V5A2.006,2.006,0,0,0,26,3Z" style="fill:#ffa733"/><polygon points="24 18 26 21 22 22 22 18.57 22.55 18.41 24 18" style="fill:#1a6fb0"/><path d="M24,5.41V10H21A5.029,5.029,0,0,1,24,5.41Z" style="fill:#ff9811"/><path d="M30,10v2a4.025,4.025,0,0,1-1.17,2.83,4.225,4.225,0,0,1-.83.63A4,4,0,0,1,22,12V10h8Z" style="fill:#ffc477"/><rect x="21" y="37" width="10" height="2" style="fill:#898890"/><rect x="22" y="10" width="8" height="2" style="fill:#ffb655"/><path d="M58,41H44a1,1,0,0,1-1-1V38h3a3.009,3.009,0,0,0,3-3V9a3.009,3.009,0,0,0-3-3H34V8H46a1,1,0,0,1,1,1V30H36V23.02a5.016,5.016,0,0,0-3.62-4.81L29,17.24V15.97A4.952,4.952,0,0,0,31,12V11h2V9H31.91a6.017,6.017,0,0,0-2.93-4.2,2.986,2.986,0,0,0-5.96,0A6.017,6.017,0,0,0,20.09,9H19v2h2v1a4.952,4.952,0,0,0,2,3.97v1.27l-3.37.97A5.013,5.013,0,0,0,16,23.02V30H5V9A1,1,0,0,1,6,8H18V6H6A3.009,3.009,0,0,0,3,9V35a3.009,3.009,0,0,0,3,3H20v4H16a1,1,0,0,0-1,1v4a1,1,0,0,0,1,1H36a1,1,0,0,0,1-1V43a1,1,0,0,0-1-1H32V38h9v2a3.009,3.009,0,0,0,3,3H58a1,1,0,0,1,0,2H42a3.009,3.009,0,0,0-3,3v2H9a1.033,1.033,0,0,0-.71.29l-6,6A1.033,1.033,0,0,0,2,57v3a2.006,2.006,0,0,0,2,2H48a2.006,2.006,0,0,0,2-2V57a1.033,1.033,0,0,0-.29-.71l-6-6A1.033,1.033,0,0,0,43,50H41V48a1,1,0,0,1,1-1H58a3,3,0,0,0,0-6ZM29.76,22.97A.986.986,0,0,0,30,23a.99.99,0,0,0,1-1V19.9l.83.23A3.012,3.012,0,0,1,34,23.02V30H27V22.28ZM26,19.2l-1-1.5v-.8a5.05,5.05,0,0,0,2,0v.8Zm1.62,1.17.81-1.21.57.17v1.39ZM29,7.36A3.927,3.927,0,0,1,29.86,9H29ZM25,5a1,1,0,0,1,2,0V9H25Zm4,6v1a3,3,0,0,1-6,0V11ZM22.14,9A3.927,3.927,0,0,1,23,7.36V9ZM23,19.33l.57-.17.81,1.21L23,20.72Zm-5,3.69a3.009,3.009,0,0,1,2.18-2.89L21,19.9V22a.99.99,0,0,0,1,1,.986.986,0,0,0,.24-.03L25,22.28V30H18ZM35,44v2H17V44ZM22,42V38h8v4ZM6,36a1,1,0,0,1-1-1V32H47v3a1,1,0,0,1-1,1ZM48,60H4V58H48Zm-5.41-8,4,4H5.41l4-4Z"/><rect x="10" y="53" width="2" height="2"/><rect x="14" y="53" width="24" height="2"/><rect x="40" y="53" width="2" height="2"/><path d="M59,52H55a3,3,0,0,0-3,3v2a1,1,0,0,0,1,1h8a1,1,0,0,0,1-1V55A3,3,0,0,0,59,52Zm1,4H54V55a1,1,0,0,1,1-1h4a1,1,0,0,1,1,1Z"/><rect x="41" y="33" width="2" height="2"/></g></svg>