<svg xmlns="http://www.w3.org/2000/svg" viewBox="0 0 64 64"><g id="Computer-Engineer-Coding-Programing-Configulation"><path d="M53,15V41H3V15a4,4,0,0,1,4-4H49A4,4,0,0,1,53,15Z" style="fill:#5aaae7"/><path d="M53,41v4a4,4,0,0,1-4,4H7a4,4,0,0,1-4-4V41Z" style="fill:#c6c5ca"/><path d="M53,15V26.64a9.427,9.427,0,0,1-2.53,1.04L50,31H46l-.47-3.32a9.8,9.8,0,0,1-2.62-1.09l-2.69,2.02-2.83-2.83,2.02-2.69a9.8,9.8,0,0,1-1.09-2.62L35,20V16l3.32-.47A9.427,9.427,0,0,1,39.36,13a.405.405,0,0,1,.05-.09L37.98,11H49A4,4,0,0,1,53,15Z" style="fill:#3d9ae2"/><path d="M57.68,18.47a9.8,9.8,0,0,1-1.09,2.62l2.02,2.69-2.83,2.83-2.69-2.02a.405.405,0,0,1-.09.05,9.427,9.427,0,0,1-2.53,1.04L50,29H46l-.47-3.32a9.8,9.8,0,0,1-2.62-1.09l-2.69,2.02-2.83-2.83,2.02-2.69a9.8,9.8,0,0,1-1.09-2.62L35,18V14l3.32-.47A9.427,9.427,0,0,1,39.36,11a.405.405,0,0,1,.05-.09L37.39,8.22l2.83-2.83,2.69,2.02a9.8,9.8,0,0,1,2.62-1.09L46,3h4l.47,3.32a9.8,9.8,0,0,1,2.62,1.09l2.69-2.02,2.83,2.83-2.02,2.69a9.8,9.8,0,0,1,1.09,2.62L61,14v4Z" style="fill:#ff9811"/><circle cx="48" cy="16" r="5" style="fill:#ffd422"/><path d="M40,58v2a1,1,0,0,1-1,1H17a1,1,0,0,1-1-1V58a1,1,0,0,1,1-1H39A1,1,0,0,1,40,58Z" style="fill:#898890"/><polygon points="36 57 20 57 21 49 35 49 36 57" style="fill:#acabb1"/><polygon points="35.25 51 20.75 51 21 49 35 49 35.25 51" style="fill:#898890"/><path d="M13.293,14.293l-3,3a1,1,0,0,0,0,1.414l3,3,1.414-1.414L12.414,18l2.293-2.293Z"/><rect x="14.228" y="17" width="8.544" height="2" transform="translate(-4.85 29.002) rotate(-69.444)"/><path d="M23.707,21.707l3-3a1,1,0,0,0,0-1.414l-3-3-1.414,1.414L24.586,18l-2.293,2.293Z"/><rect x="10" y="26" width="4" height="2"/><rect x="16" y="26" width="10" height="2"/><rect x="12" y="30" width="4" height="2"/><rect x="18" y="30" width="10" height="2"/><rect x="30" y="30" width="2" height="2"/><rect x="12" y="34" width="4" height="2"/><rect x="18" y="34" width="10" height="2"/><rect x="30" y="34" width="2" height="2"/><path d="M61.142,13.01l-2.682-.383a10.86,10.86,0,0,0-.679-1.639l1.625-2.166a1,1,0,0,0-.093-1.307L56.485,4.687a1,1,0,0,0-1.306-.093L53.012,6.218a10.9,10.9,0,0,0-1.639-.678L50.99,2.858A1,1,0,0,0,50,2H46a1,1,0,0,0-.99.858L44.627,5.54a10.855,10.855,0,0,0-1.639.678L40.821,4.594a1,1,0,0,0-1.306.093L36.687,7.515a1,1,0,0,0-.093,1.307l1.625,2.166a10.86,10.86,0,0,0-.679,1.639l-2.682.383A1,1,0,0,0,34,14v4a1,1,0,0,0,.858.99l2.682.383a10.86,10.86,0,0,0,.679,1.639l-1.625,2.166a1,1,0,0,0,.093,1.307l2.828,2.828a1,1,0,0,0,1.306.093l2.167-1.624a10.855,10.855,0,0,0,1.639.678l.383,2.682A1,1,0,0,0,46,30h4a1,1,0,0,0,.99-.858l.383-2.682a10.9,10.9,0,0,0,1.639-.678l2.167,1.624a1,1,0,0,0,1.306-.093l2.828-2.828a1,1,0,0,0,.093-1.307l-1.625-2.166a10.86,10.86,0,0,0,.679-1.639l2.682-.383A1,1,0,0,0,62,18V14A1,1,0,0,0,61.142,13.01ZM60,17.133l-2.463.352a1,1,0,0,0-.827.742,8.923,8.923,0,0,1-.977,2.357,1,1,0,0,0,.061,1.111l1.492,1.99-1.6,1.6-1.991-1.492a1,1,0,0,0-1.11-.06,8.859,8.859,0,0,1-2.356.975,1,1,0,0,0-.744.828L49.133,28H46.867l-.351-2.463a1,1,0,0,0-.744-.828,8.859,8.859,0,0,1-2.356-.975,1,1,0,0,0-1.11.06l-1.991,1.492-1.6-1.6,1.492-1.99a1,1,0,0,0,.061-1.111,8.923,8.923,0,0,1-.977-2.357,1,1,0,0,0-.827-.742L36,17.133V14.867l2.463-.352a1,1,0,0,0,.827-.742,8.923,8.923,0,0,1,.977-2.357,1,1,0,0,0-.061-1.111l-1.492-1.99,1.6-1.6,1.991,1.492a1,1,0,0,0,1.11.06,8.859,8.859,0,0,1,2.356-.975,1,1,0,0,0,.744-.828L46.867,4h2.266l.351,2.463a1,1,0,0,0,.744.828,8.859,8.859,0,0,1,2.356.975,1,1,0,0,0,1.11-.06l1.991-1.492,1.6,1.6-1.492,1.99a1,1,0,0,0-.061,1.111,8.923,8.923,0,0,1,.977,2.357,1,1,0,0,0,.827.742L60,14.867Z"/><path d="M48,10a6,6,0,1,0,6,6A6.006,6.006,0,0,0,48,10Zm0,10a4,4,0,1,1,4-4A4,4,0,0,1,48,20Z"/><path d="M52,40H4V15a3,3,0,0,1,3-3H35V10H7a5.006,5.006,0,0,0-5,5V45a5.006,5.006,0,0,0,5,5H19.867l-.75,6H17a2,2,0,0,0-2,2v2a2,2,0,0,0,2,2H39a2,2,0,0,0,2-2V58a2,2,0,0,0-2-2H36.883l-.75-6H49a5.006,5.006,0,0,0,5-5V29H52ZM39,60H17V58H39Zm-4.133-4H21.133l.75-6H34.117ZM49,48H7a3,3,0,0,1-3-3V42H52v3A3,3,0,0,1,49,48Z"/><rect x="46" y="44" width="2" height="2"/></g></svg>