<svg xmlns="http://www.w3.org/2000/svg" viewBox="0 0 64 64"><g id="Computer-Engineer-Coding-Programing-Programmer"><path d="M61,13V47a4,4,0,0,1-4,4H27a4,4,0,0,1-4-4V7a4,4,0,0,1,4-4H52v8a2.006,2.006,0,0,0,2,2Z" style="fill:#5aaae7"/><path d="M52,3l9,10H54a2.006,2.006,0,0,1-2-2Z" style="fill:#3d9ae2"/><path d="M57.22,37.81l-1.4-.93-1.67-1.11A2.991,2.991,0,0,0,56,33V30a3,3,0,0,0-6,0v3a2.991,2.991,0,0,0,1.85,2.77l-1.67,1.11-1.4.93A4,4,0,0,0,47,41.14V43H59V41.14A4,4,0,0,0,57.22,37.81Z" style="fill:#3d9ae2"/><path d="M57,39.14V41H45V39.14a4,4,0,0,1,1.78-3.33l1.4-.93L51,38l2.82-3.12,1.4.93A4,4,0,0,1,57,39.14Z" style="fill:#00b39d"/><path d="M54,29v2a2.991,2.991,0,0,1-1.85,2.77,2.99,2.99,0,0,1-2.3,0A2.991,2.991,0,0,1,48,31V29h6Z" style="fill:#ffc477"/><path d="M54,28v1H51V25a3,3,0,0,1,3,3Z" style="fill:#ff9811"/><path d="M53.82,34.88,51,38l-2.82-3.12,1.67-1.11a2.99,2.99,0,0,0,2.3,0Z" style="fill:#ffc477"/><path d="M53,57v3a1,1,0,0,1-1,1H4a1,1,0,0,1-1-1V57Z" style="fill:#acabb1"/><path d="M51,25v4H48V28A3,3,0,0,1,51,25Z" style="fill:#ff9811"/><polygon points="53 57 3 57 9 45 47 45 53 57" style="fill:#d8d7da"/><rect x="10" y="52" width="2" height="2"/><rect x="14" y="52" width="28" height="2"/><rect x="44" y="52" width="2" height="2"/><rect x="11" y="48" width="2" height="2"/><rect x="15" y="48" width="2" height="2"/><rect x="19" y="48" width="2" height="2"/><rect x="23" y="48" width="2" height="2"/><rect x="27" y="48" width="2" height="2"/><rect x="31" y="48" width="2" height="2"/><rect x="35" y="48" width="2" height="2"/><rect x="39" y="48" width="2" height="2"/><rect x="43" y="48" width="2" height="2"/><path d="M61.74,12.33l-9-10A1,1,0,0,0,52,2H27a5,5,0,0,0-5,5V31H19a1,1,0,0,1-1-1V12a4,4,0,0,0-8,0V44H9a.988.988,0,0,0-.89.55l-6,12A1,1,0,0,0,2,57v3a2.006,2.006,0,0,0,2,2H52a2.006,2.006,0,0,0,2-2V57a1,1,0,0,0-.11-.45l-6-12A.988.988,0,0,0,47,44H12V12a2,2,0,0,1,4,0V30a3.009,3.009,0,0,0,3,3h3v9h2V7a3.009,3.009,0,0,1,3-3H51v7a3.009,3.009,0,0,0,3,3h6V47a3.009,3.009,0,0,1-3,3H54v2h3a5,5,0,0,0,5-5V13A.971.971,0,0,0,61.74,12.33ZM52,60H4V58H52ZM46.38,46l5,10H4.62l5-10ZM54,12a1,1,0,0,1-1-1V5.61L58.75,12Z"/><path d="M31.293,8.293l-3,3a1,1,0,0,0,0,1.414l3,3,1.414-1.414L30.414,12l2.293-2.293Z"/><path d="M43.707,11.293l-3-3L39.293,9.707,41.586,12l-2.293,2.293,1.414,1.414,3-3A1,1,0,0,0,43.707,11.293Z"/><rect x="32.838" y="11" width="6.325" height="1.999" transform="translate(13.232 42.358) rotate(-71.565)"/><rect x="28" y="19" width="4" height="2"/><rect x="34" y="19" width="8" height="2"/><rect x="30" y="23" width="6" height="2"/><rect x="38" y="23" width="4" height="2"/><rect x="28" y="27" width="4" height="2"/><rect x="34" y="27" width="6" height="2"/><rect x="30" y="31" width="8" height="2"/><rect x="40" y="31" width="2" height="2"/><path d="M55.77,34.98,53.9,33.74A3.976,3.976,0,0,0,55,31V30h1V28H55a4,4,0,0,0-3-3.86V23H50v1.14A4,4,0,0,0,47,28H46v2h1v1a3.976,3.976,0,0,0,1.1,2.74l-1.87,1.24A4.987,4.987,0,0,0,44,39.14V41a1,1,0,0,0,1,1H57a1,1,0,0,0,1-1V39.14A4.987,4.987,0,0,0,55.77,34.98ZM52,26.28A2,2,0,0,1,53,28H52Zm-2,0V28H49A2,2,0,0,1,50,26.28ZM49,30h4v1a2,2,0,0,1-4,0Zm3.3,5.07L51,36.51l-1.3-1.44.31-.21a3.57,3.57,0,0,0,1.98,0ZM56,40H46v-.86a3.006,3.006,0,0,1,1.34-2.5l.68-.45,2.24,2.48a.995.995,0,0,0,1.48,0l2.24-2.48.68.45A3.006,3.006,0,0,1,56,39.14Z"/></g></svg>