<svg xmlns="http://www.w3.org/2000/svg" viewBox="0 0 64 64"><g id="Construction-Engineer-House-Plan-Teamwork"><polygon points="34 15 34 18 32 21 30 18 30 15 34 15" style="fill:#ffc477"/><polygon points="47 53 47 61 51 61 55 61 59 61 59 53 47 53" style="fill:#ffa733"/><polygon points="26 61 30 61 34 61 38 61 38 53 26 53 26 61" style="fill:#ffa733"/><polygon points="5 61 9 61 13 61 17 61 17 53 5 53 5 61" style="fill:#ffa733"/><polygon points="59 49 61 53 59 53 47 53 45 53 47 49 59 49" style="fill:#ff5023"/><rect x="51" y="57" width="4" height="4" style="fill:#e6e7e8"/><path d="M41,23.02V28H23V23.02a4,4,0,0,1,2.9-3.85l2.1-.6V22l4-1,4,1V18.57l2.1.6A4,4,0,0,1,41,23.02Z" style="fill:#3d9ae2"/><polygon points="38 49 40 53 38 53 26 53 24 53 26 49 38 49" style="fill:#ff5023"/><path d="M37,35a2.006,2.006,0,0,1,2,2,2.015,2.015,0,0,1-2,2H27a2.006,2.006,0,0,1-2-2,2.015,2.015,0,0,1,2-2H37Z" style="fill:#ff9811"/><path d="M37,10H34V5.41A5.029,5.029,0,0,1,37,10Z" style="fill:#ff9811"/><polygon points="36 18.57 36 22 32 21 34 18 35.45 18.41 36 18.57" style="fill:#1e81ce"/><path d="M34,15v1.46a3.974,3.974,0,0,1-4,0V15Z" style="fill:#ffb655"/><rect x="30" y="57" width="4" height="4" style="fill:#e6e7e8"/><path d="M32,3a2.015,2.015,0,0,0-2,2v5h4V5A2.006,2.006,0,0,0,32,3Z" style="fill:#ffa733"/><polygon points="30 18 32 21 28 22 28 18.57 28.55 18.41 30 18" style="fill:#1e81ce"/><path d="M30,5.41V10H27A5.029,5.029,0,0,1,30,5.41Z" style="fill:#ff9811"/><polygon points="17 49 19 53 17 53 5 53 3 53 5 49 17 49" style="fill:#ff5023"/><rect x="9" y="57" width="4" height="4" style="fill:#e6e7e8"/><path d="M36,10v2a4.025,4.025,0,0,1-1.17,2.83,4.225,4.225,0,0,1-.83.63A4,4,0,0,1,28,12V10h8Z" style="fill:#ffc477"/><path d="M17.9,48.553A1,1,0,0,0,17,48H5a1,1,0,0,0-.895.553l-2,4A1,1,0,0,0,3,54H4v7a1,1,0,0,0,1,1H17a1,1,0,0,0,1-1V54h1a1,1,0,0,0,.895-1.447ZM5.618,50H16.382l1,2H4.618ZM12,60H10V58h2Zm4,0H14V57a1,1,0,0,0-1-1H9a1,1,0,0,0-1,1v3H6V54H16Z"/><path d="M40.89,52.55l-2-4A.977.977,0,0,0,38,48H26a.977.977,0,0,0-.89.55l-2,4A1,1,0,0,0,24,54h1v7a1,1,0,0,0,1,1H38a1,1,0,0,0,1-1V54h1a1,1,0,0,0,.89-1.45ZM33,60H31V58h2Zm4,0H35V57a1,1,0,0,0-1-1H30a1,1,0,0,0-1,1v3H27V54H37ZM25.62,52l1-2H37.38l1,2Z"/><path d="M53,36H39.82A3.01,3.01,0,0,0,37,34H33V29h8a1,1,0,0,0,1-1V23.02a5.025,5.025,0,0,0-3.62-4.81L35,17.24V15.97A4.952,4.952,0,0,0,37,12V11h2V9H37.91a6.017,6.017,0,0,0-2.93-4.2,2.986,2.986,0,0,0-5.96,0A6.017,6.017,0,0,0,26.09,9H25v2h2v1a4.952,4.952,0,0,0,2,3.97v1.27l-3.37.97A5.022,5.022,0,0,0,22,23.02V28a1,1,0,0,0,1,1h8v5H27a3.01,3.01,0,0,0-2.82,2H11a1,1,0,0,0-1,1v9h2V38H24.18A3.01,3.01,0,0,0,27,40h4v6h2V40h4a3.01,3.01,0,0,0,2.82-2H52v8h2V37A1,1,0,0,0,53,36ZM35,7.36A3.927,3.927,0,0,1,35.86,9H35ZM31,5a1,1,0,0,1,2,0V9H31Zm4,6v1a3,3,0,0,1-6,0V11Zm0,8.33v1.39l-1.38-.35.81-1.21ZM33,16.9v.8l-1,1.5-1-1.5v-.8a5.05,5.05,0,0,0,2,0ZM28.14,9A3.927,3.927,0,0,1,29,7.36V9ZM29,19.33l.57-.17.81,1.21L29,20.72ZM24,27V23.02a3.009,3.009,0,0,1,2.18-2.89L27,19.9V22a.99.99,0,0,0,1,1,.986.986,0,0,0,.24-.03L32,22.03l3.76.94A.986.986,0,0,0,36,23a.99.99,0,0,0,1-1V19.9l.83.23A3.012,3.012,0,0,1,40,23.02V27ZM37,38H27a1,1,0,0,1,0-2H37a1,1,0,0,1,0,2Z"/><path d="M61.9,52.553l-2-4A1,1,0,0,0,59,48H47a1,1,0,0,0-.9.553l-2,4A1,1,0,0,0,45,54h1v7a1,1,0,0,0,1,1H59a1,1,0,0,0,1-1V54h1a1,1,0,0,0,.9-1.447ZM47.618,50H58.382l1,2H46.618ZM54,60H52V58h2Zm4,0H56V57a1,1,0,0,0-1-1H51a1,1,0,0,0-1,1v3H48V54H58Z"/><rect x="6" y="44" width="2" height="2"/><rect x="6" y="40" width="2" height="2"/><rect x="6" y="36" width="2" height="2"/><rect x="56" y="44" width="2" height="2"/><rect x="56" y="40" width="2" height="2"/><rect x="56" y="36" width="2" height="2"/><rect x="42" y="32" width="2" height="2"/><rect x="46" y="32" width="2" height="2"/><rect x="50" y="32" width="2" height="2"/><rect x="20" y="32" width="2" height="2"/><rect x="16" y="32" width="2" height="2"/><rect x="12" y="32" width="2" height="2"/></g></svg>