<svg xmlns="http://www.w3.org/2000/svg" viewBox="0 0 64 64"><g id="CPU-Computer-Processor-Cogwheel-Technology"><circle cx="59" cy="48" r="2" style="fill:#ff9811"/><circle cx="56" cy="37" r="2" style="fill:#ff9811"/><circle cx="56" cy="59" r="2" style="fill:#ff9811"/><path d="M41.68,22.47a9.8,9.8,0,0,1-1.09,2.62l2.02,2.69-2.83,2.83-2.69-2.02a9.8,9.8,0,0,1-2.62,1.09L34,33H30l-.47-3.32a9.8,9.8,0,0,1-2.62-1.09l-2.69,2.02-2.83-2.83,2.02-2.69a9.8,9.8,0,0,1-1.09-2.62L19,22V18l3.32-.47a9.8,9.8,0,0,1,1.09-2.62l-2.02-2.69,2.83-2.83,2.69,2.02a9.8,9.8,0,0,1,2.62-1.09L30,7h4l.47,3.32a9.8,9.8,0,0,1,2.62,1.09l2.69-2.02,2.83,2.83-2.02,2.69a9.8,9.8,0,0,1,1.09,2.62L45,18v4Z" style="fill:#ff9811"/><rect x="23" y="39" width="18" height="18" style="fill:#acabb1"/><polygon points="37 43 37 50 34 53 27 53 27 43 37 43" style="fill:#e6e7e8"/><circle cx="32" cy="20" r="5" style="fill:#ffd422"/><circle cx="8" cy="37" r="2" style="fill:#ff9811"/><circle cx="8" cy="59" r="2" style="fill:#ff9811"/><circle cx="5" cy="48" r="2" style="fill:#ff9811"/><path d="M41,38H33V36H31v2H23a1,1,0,0,0-1,1V57a1,1,0,0,0,1,1H41a1,1,0,0,0,1-1V39A1,1,0,0,0,41,38ZM40,56H24V40H40Z"/><path d="M27,54h7a1,1,0,0,0,.707-.293l3-3A1,1,0,0,0,38,50V43a1,1,0,0,0-1-1H27a1,1,0,0,0-1,1V53A1,1,0,0,0,27,54Zm1-10h8v5.586L33.588,52H28Z"/><path d="M44,42v2h6a1,1,0,0,0,.707-.293l3-3-1.414-1.414L49.586,42Z"/><path d="M50.707,52.293A1,1,0,0,0,50,52H44v2h5.586l2.707,2.707,1.414-1.414Z"/><rect x="44" y="47" width="10" height="2"/><path d="M11.707,39.293l-1.414,1.414,3,3A1,1,0,0,0,14,44h6V42H14.414Z"/><path d="M13.293,52.293l-3,3,1.414,1.414L14.414,54H20V52H14A1,1,0,0,0,13.293,52.293Z"/><rect x="10" y="47" width="10" height="2"/><path d="M56,40a3,3,0,1,0-3-3A3,3,0,0,0,56,40Zm0-4a1,1,0,1,1-1,1A1,1,0,0,1,56,36Z"/><path d="M59,45a3,3,0,1,0,3,3A3,3,0,0,0,59,45Zm0,4a1,1,0,1,1,1-1A1,1,0,0,1,59,49Z"/><path d="M56,56a3,3,0,1,0,3,3A3,3,0,0,0,56,56Zm0,4a1,1,0,1,1,1-1A1,1,0,0,1,56,60Z"/><path d="M8,40a3,3,0,1,0-3-3A3,3,0,0,0,8,40Zm0-4a1,1,0,1,1-1,1A1,1,0,0,1,8,36Z"/><path d="M8,48a3,3,0,1,0-3,3A3,3,0,0,0,8,48ZM4,48a1,1,0,1,1,1,1A1,1,0,0,1,4,48Z"/><path d="M8,56a3,3,0,1,0,3,3A3,3,0,0,0,8,56Zm0,4a1,1,0,1,1,1-1A1,1,0,0,1,8,60Z"/><rect x="31" y="60" width="2" height="2"/><rect x="35" y="60" width="2" height="2"/><rect x="39" y="60" width="2" height="2"/><rect x="23" y="60" width="2" height="2"/><rect x="27" y="60" width="2" height="2"/><path d="M41.782,25.012a10.96,10.96,0,0,0,.678-1.639l2.682-.383A1,1,0,0,0,46,22V18a1,1,0,0,0-.858-.99l-2.682-.383a10.96,10.96,0,0,0-.678-1.639l1.624-2.166a1,1,0,0,0-.093-1.307L40.485,8.687a1,1,0,0,0-1.307-.093l-2.166,1.624a10.96,10.96,0,0,0-1.639-.678L34.99,6.858A1,1,0,0,0,34,6H30a1,1,0,0,0-.99.858L28.627,9.54a10.96,10.96,0,0,0-1.639.678L24.822,8.594a1,1,0,0,0-1.307.093l-2.828,2.828a1,1,0,0,0-.093,1.307l1.624,2.166a10.96,10.96,0,0,0-.678,1.639l-2.682.383A1,1,0,0,0,18,18v4a1,1,0,0,0,.858.99l2.682.383a10.96,10.96,0,0,0,.678,1.639l-1.624,2.166a1,1,0,0,0,.093,1.307l2.828,2.828a1,1,0,0,0,1.307.093l2.166-1.624a10.96,10.96,0,0,0,1.639.678l.383,2.682A1,1,0,0,0,30,34h4a1,1,0,0,0,.99-.858l.383-2.682a10.96,10.96,0,0,0,1.639-.678l2.166,1.624a1,1,0,0,0,1.307-.093l2.828-2.828a1,1,0,0,0,.093-1.307Zm-1.988.683,1.492,1.99-1.6,1.6L37.7,27.794a1,1,0,0,0-1.111-.06,8.892,8.892,0,0,1-2.356.975,1,1,0,0,0-.743.828L33.133,32H30.867l-.352-2.463a1,1,0,0,0-.743-.828,8.892,8.892,0,0,1-2.356-.975,1,1,0,0,0-1.111.06l-1.99,1.492-1.6-1.6,1.492-1.99a1,1,0,0,0,.06-1.111,8.892,8.892,0,0,1-.975-2.356,1,1,0,0,0-.828-.743L20,21.133V18.867l2.463-.352a1,1,0,0,0,.828-.743,8.892,8.892,0,0,1,.975-2.356,1,1,0,0,0-.06-1.111l-1.492-1.99,1.6-1.6,1.99,1.492a1,1,0,0,0,1.111.06,8.892,8.892,0,0,1,2.356-.975,1,1,0,0,0,.743-.828L30.867,8h2.266l.352,2.463a1,1,0,0,0,.743.828,8.892,8.892,0,0,1,2.356.975,1,1,0,0,0,1.111-.06l1.99-1.492,1.6,1.6-1.492,1.99a1,1,0,0,0-.06,1.111,8.892,8.892,0,0,1,.975,2.356,1,1,0,0,0,.828.743L44,18.867v2.266l-2.463.352a1,1,0,0,0-.828.743,8.892,8.892,0,0,1-.975,2.356A1,1,0,0,0,39.794,25.7Z"/><path d="M32,14a6,6,0,1,0,6,6A6.006,6.006,0,0,0,32,14Zm0,10a4,4,0,1,1,4-4A4,4,0,0,1,32,24Z"/><rect x="31" y="2" width="2" height="2"/><rect x="22.5" y="4.278" width="2" height="2" transform="translate(0.51 12.458) rotate(-30.002)"/><rect x="16.277" y="10.5" width="2" height="2" transform="translate(-1.321 20.712) rotate(-59.998)"/><rect x="14" y="19" width="2" height="2"/><rect x="16.278" y="27.5" width="2" height="2" transform="translate(-11.936 12.458) rotate(-30.002)"/><rect x="22.5" y="33.722" width="2" height="2" transform="translate(-18.32 37.717) rotate(-60.005)"/><rect x="39.5" y="33.722" width="2" height="2" transform="translate(-11.934 24.897) rotate(-29.995)"/><rect x="45.722" y="27.5" width="2" height="2" transform="translate(-1.318 54.717) rotate(-60.005)"/><rect x="48" y="19" width="2" height="2"/><rect x="45.722" y="10.5" width="2" height="2" transform="translate(0.508 24.898) rotate(-29.995)"/><rect x="39.5" y="4.277" width="2" height="2" transform="translate(15.682 37.715) rotate(-60.005)"/></g></svg>