<svg xmlns="http://www.w3.org/2000/svg" viewBox="0 0 64 64"><g id="Engineer-Occupation-Avatar-Worker-Prize"><path d="M61.13,27.86l-.98,2.27a4.055,4.055,0,0,1-2.75,2.3L55,33l.98-2.27a4.014,4.014,0,0,1,2.74-2.3Z" style="fill:#00b39d"/><path d="M60.52,40.26l-1.7,1.8a3.994,3.994,0,0,1-3.36,1.22L53,43l1.7-1.8a4.024,4.024,0,0,1,3.36-1.22Z" style="fill:#00b39d"/><path d="M56.02,17.94A4.024,4.024,0,0,1,54.8,21.3L53,23l-.28-2.46a3.994,3.994,0,0,1,1.22-3.36l1.8-1.7Z" style="fill:#00b39d"/><path d="M53,51l-2.21,1.11a4.024,4.024,0,0,1-3.58,0L45,51l2.21-1.11a4.024,4.024,0,0,1,3.58,0Z" style="fill:#00b39d"/><path d="M46.11,9.21a4.024,4.024,0,0,1,0,3.58L45,15l-1.11-2.21a4.024,4.024,0,0,1,0-3.58L45,7Z" style="fill:#00b39d"/><path d="M20.11,9.21a4.024,4.024,0,0,1,0,3.58L19,15l-1.11-2.21a4.024,4.024,0,0,1,0-3.58L19,7Z" style="fill:#00b39d"/><path d="M19,51l-2.21,1.11a4.024,4.024,0,0,1-3.58,0L11,51l2.21-1.11a4.024,4.024,0,0,1,3.58,0Z" style="fill:#00b39d"/><path d="M10.06,17.18a3.994,3.994,0,0,1,1.22,3.36L11,23,9.2,21.3a4.024,4.024,0,0,1-1.22-3.36l.28-2.46Z" style="fill:#00b39d"/><path d="M9.3,41.2,11,43l-2.46.28a3.994,3.994,0,0,1-3.36-1.22l-1.7-1.8,2.46-.28A4.024,4.024,0,0,1,9.3,41.2Z" style="fill:#00b39d"/><path d="M8.02,30.73,9,33l-2.4-.57a4.055,4.055,0,0,1-2.75-2.3l-.98-2.27,2.41.57A4.014,4.014,0,0,1,8.02,30.73Z" style="fill:#00b39d"/><path d="M44,44.9V47H35l-1.82-6.18L34,40l3,1,.7-2.8,2.74,1.22A6,6,0,0,1,44,44.9Z" style="fill:#3d9ae2"/><path d="M40.41,19.59A1.955,1.955,0,0,1,41,21a2.006,2.006,0,0,1-2,2H25a2.015,2.015,0,0,1-2-2,2.006,2.006,0,0,1,2-2H39A1.955,1.955,0,0,1,40.41,19.59Z" style="fill:#f7910c"/><path d="M39,19H34V13.09A5.984,5.984,0,0,1,38.91,18,5.47,5.47,0,0,1,39,19Z" style="fill:#ff9811"/><polygon points="37.7 38.2 37 41 34 40 33 38 35 37 37.7 38.2" style="fill:#1e81ce"/><polygon points="33.18 40.82 35 47 29 47 30.82 40.82 32 42 33.18 40.82" style="fill:#ed1c24"/><path d="M34,13.09V19H30V12a1,1,0,0,1,1-1h2a1,1,0,0,1,1,1Z" style="fill:#ffa733"/><polygon points="33 38 34 40 33.18 40.82 32 42 30.82 40.82 30 40 31 38 33 38" style="fill:#ed1c24"/><polygon points="31 38 30 40 27 41 26.3 38.2 29 37 31 38" style="fill:#1e81ce"/><path d="M30.82,40.82,29,47H20V44.9a6,6,0,0,1,3.56-5.48L26.3,38.2,27,41l3-1Z" style="fill:#3d9ae2"/><path d="M30,13.09V19H25a5.47,5.47,0,0,1,.09-1A5.992,5.992,0,0,1,30,13.09Z" style="fill:#ff9811"/><polygon points="35 34 35 37 33 38 31 38 29 37 29 34 35 34" style="fill:#ffc477"/><path d="M26,25v4H24a2,2,0,0,1,0-4Z" style="fill:#ffb655"/><path d="M42,27a2.006,2.006,0,0,1-2,2H38V25h2A2.006,2.006,0,0,1,42,27Z" style="fill:#ffb655"/><path d="M35,34v2.32a6.958,6.958,0,0,1-6,0V34Z" style="fill:#ffb655"/><path d="M39,25v3a5.474,5.474,0,0,1-.08,1A6.952,6.952,0,0,1,35,34.32,6.982,6.982,0,0,1,25.08,29,5.474,5.474,0,0,1,25,28V23H39Z" style="fill:#ffc477"/><rect x="25" y="23" width="14" height="2" style="fill:#ffb655"/><path d="M19.524,50.148a20.2,20.2,0,0,1,0-34.3h0a1.006,1.006,0,0,0,.371-.4L21,13.236a5.024,5.024,0,0,0,0-4.472L19.9,6.553a1.042,1.042,0,0,0-1.79,0L17,8.764a5.024,5.024,0,0,0,0,4.472l.71,1.42A21.915,21.915,0,0,0,12.3,19.883a5.016,5.016,0,0,0-1.55-3.427l-1.795-1.7a1,1,0,0,0-1.68.612l-.283,2.456a5.022,5.022,0,0,0,1.53,4.2l1.609,1.524a22.352,22.352,0,0,0-1.8,5.75,5.027,5.027,0,0,0-2.816-1.841L3.1,26.885a1,1,0,0,0-1.15,1.37l.983,2.268h0A5.024,5.024,0,0,0,6.363,33.4l1.677.4a22.163,22.163,0,0,0,1.031,5.939,5.027,5.027,0,0,0-3.247-.751l-2.456.283a1,1,0,0,0-.612,1.681l1.7,1.8h0a5.028,5.028,0,0,0,3.638,1.562,4.849,4.849,0,0,0,.564-.033l2.3-.265a22.271,22.271,0,0,0,3.363,4.51A4.954,4.954,0,0,0,12.764,49l-2.211,1.1a1,1,0,0,0,0,1.79L12.764,53a5.024,5.024,0,0,0,4.472,0l2.211-1.1a1,1,0,0,0,.077-1.747Zm-.735-40.49L19,9.236l.211.422a3.01,3.01,0,0,1,0,2.684L19,12.764l-.211-.422A3.01,3.01,0,0,1,18.789,9.658Zm-9.814,8.4h0l.053-.469.343.325a3.011,3.011,0,0,1,.918,2.521l-.054.468-.342-.324A3.01,3.01,0,0,1,8.975,18.053Zm-2.147,13.4a3.018,3.018,0,0,1-2.057-1.725L4.584,29.3l.46.11A3.016,3.016,0,0,1,7.1,31.13l.187.432Zm1.6,10.836a3.015,3.015,0,0,1-2.523-.918l-.324-.343.47-.053a3.014,3.014,0,0,1,2.521.918l.325.342Zm7.912,8.922a3.016,3.016,0,0,1-2.684,0L13.236,51l.422-.211a3.016,3.016,0,0,1,2.684,0l.422.211Z"/><path d="M57.637,33.4a5.021,5.021,0,0,0,3.425-2.874h0l.983-2.268a1,1,0,0,0-1.15-1.37l-2.405.574A5.027,5.027,0,0,0,55.675,29.3a22.352,22.352,0,0,0-1.8-5.75l1.609-1.524a5.022,5.022,0,0,0,1.53-4.2l-.283-2.456a1,1,0,0,0-1.68-.612l-1.8,1.7a5.016,5.016,0,0,0-1.55,3.427,21.915,21.915,0,0,0-5.414-5.227l.71-1.42a5.024,5.024,0,0,0,0-4.472L45.9,6.553a1.042,1.042,0,0,0-1.79,0L43,8.764a5.024,5.024,0,0,0,0,4.472l1.1,2.211a1.006,1.006,0,0,0,.371.4h0a20.2,20.2,0,0,1,0,34.3,1,1,0,0,0,.077,1.747L46.764,53a5.024,5.024,0,0,0,4.472,0l2.211-1.1a1,1,0,0,0,0-1.79L51.236,49a4.954,4.954,0,0,0-1.559-.479,22.271,22.271,0,0,0,3.363-4.51l2.3.265a4.849,4.849,0,0,0,.564.033,5.028,5.028,0,0,0,3.638-1.562h0l1.7-1.8a1,1,0,0,0-.612-1.681l-2.456-.283a5.016,5.016,0,0,0-3.247.75A22.117,22.117,0,0,0,55.96,33.8ZM56.9,31.13a3.016,3.016,0,0,1,2.056-1.725l.46-.11-.187.433a3.018,3.018,0,0,1-2.057,1.725l-.459.109ZM54.629,17.908l.343-.324.053.469h0a3.01,3.01,0,0,1-.918,2.521l-.342.324-.054-.469A3.013,3.013,0,0,1,54.629,17.908Zm-9.84-8.25L45,9.236l.211.422a3.01,3.01,0,0,1,0,2.684L45,12.764l-.211-.422A3.01,3.01,0,0,1,44.789,9.658Zm5.553,41.131.422.211-.422.211a3.016,3.016,0,0,1-2.684,0L47.236,51l.422-.211A3.016,3.016,0,0,1,50.342,50.789Zm5.083-8.9a3.016,3.016,0,0,1,2.522-.918l.47.053-.324.343a3.014,3.014,0,0,1-2.523.918l-.469-.054Z"/><rect x="28" y="26" width="2" height="2"/><rect x="34" y="26" width="2" height="2"/><path d="M40.85,38.51,36,36.35V34.92A8.06,8.06,0,0,0,39.74,30H40a3,3,0,0,0,0-6v-.18a2.983,2.983,0,0,0-.05-5.65,6.934,6.934,0,0,0-2-4.11A6.756,6.756,0,0,0,35,12.31V12a2.006,2.006,0,0,0-2-2H31a2.006,2.006,0,0,0-2,2v.3a6.96,6.96,0,0,0-4.95,5.87A2.983,2.983,0,0,0,24,23.82V24a3,3,0,0,0,0,6h.26A8.06,8.06,0,0,0,28,34.92v1.43l-4.85,2.16A7,7,0,0,0,19,44.9V47a1,1,0,0,0,1,1H44a1,1,0,0,0,1-1V44.9A7,7,0,0,0,40.85,38.51ZM24,28a1,1,0,0,1,0-2ZM36.53,38.77l-.24.94-1.58-.53-.37-.73.69-.34ZM41,27a1,1,0,0,1-1,1V26A1,1,0,0,1,41,27ZM35,14.43a5.106,5.106,0,0,1,1.54,1.04A4.913,4.913,0,0,1,37.9,18H35ZM31,12h2v6H31Zm-2,2.43V18H26.1A4.961,4.961,0,0,1,29,14.43ZM24,21a1,1,0,0,1,1-1H39a1,1,0,0,1,0,2H25A1,1,0,0,1,24,21Zm2,7V24H38v4a6,6,0,0,1-12,0Zm2.97,10.11.69.34-.37.73-1.58.53-.24-.94ZM28.25,46H21V44.9a5,5,0,0,1,2.97-4.57l1.65-.73.41,1.64a1.017,1.017,0,0,0,.49.64A1,1,0,0,0,27,42a1.185,1.185,0,0,0,.32-.05l2.36-.79Zm2.09,0,.96-3.29a.99.99,0,0,0,1.4,0L33.66,46Zm.88-6.2.4-.8h.76l.4.8-.78.79ZM34,36.38,32.76,37H31.24L30,36.38v-.64a7.822,7.822,0,0,0,4,0ZM43,46H35.75l-1.43-4.84,2.36.79A1.185,1.185,0,0,0,37,42a1,1,0,0,0,.48-.12,1.017,1.017,0,0,0,.49-.64l.41-1.64,1.65.73A5,5,0,0,1,43,44.9Z"/></g></svg>