<svg xmlns="http://www.w3.org/2000/svg" viewBox="0 0 64 64"><g id="Engineer-Avatar-Worker-Management-Occupation"><path d="M50.42,42.57a18.624,18.624,0,0,1-2.16,5.22l2.83,3.65-5.65,5.65-3.65-2.83a18.624,18.624,0,0,1-5.22,2.16L36,61H28l-.57-4.58a18.624,18.624,0,0,1-5.22-2.16l-3.65,2.83-5.65-5.65,2.83-3.65a18.624,18.624,0,0,1-2.16-5.22L9,42V34l1.61-.2.22,2.38a2.009,2.009,0,0,0,2,1.82H51.17a2.009,2.009,0,0,0,2-1.82l.22-2.38L55,34v8Z" style="fill:#ff9811"/><path d="M53.2,23H49V21H48a1.976,1.976,0,0,1-.55-.08,1.885,1.885,0,0,1-.86-.51,2,2,0,0,1-.53-1.9A2.089,2.089,0,0,1,48.11,17h.61a4,4,0,0,1,3.92,3.22Z" style="fill:#ffc477"/><path d="M42,38h1a11,11,0,0,1-22,0H42Z" style="fill:#ffd422"/><path d="M38,29H35l-2,1,1,2,3,1,1.54-3.85.05-.12C38.51,29.02,38.12,29,38,29Z" style="fill:#1e81ce"/><polygon points="33.18 32.82 35 38 29 38 30.82 32.82 32 34 33.18 32.82" style="fill:#ed1c24"/><polygon points="33 30 34 32 33.18 32.82 32 34 30.82 32.82 30 32 31 30 33 30" style="fill:#ed1c24"/><path d="M29,29H26c-.11,0-.51.02-.59.03l.05.12L27,33l3-1,1-2Z" style="fill:#1e81ce"/><path d="M54,27l-.61,6.8-.22,2.38a2.009,2.009,0,0,1-2,1.82H35l-1.82-5.18L34,32l3,1,1.54-3.85.05-.12a5.949,5.949,0,0,1,2.97,1.15A5.72,5.72,0,0,1,44.97,29,5.959,5.959,0,0,1,49,30.54V23h4.2Z" style="fill:#3d9ae2"/><path d="M27,33l-1.54-3.85-.05-.12a5.949,5.949,0,0,0-2.97,1.15A5.72,5.72,0,0,0,19.03,29,5.959,5.959,0,0,0,15,30.54V23H10.8L10,27l.61,6.8.22,2.38a2.009,2.009,0,0,0,2,1.82H29l1.82-5.18L30,32Z" style="fill:#3d9ae2"/><path d="M17.94,19.49c-.01.02-.01.04-.02.06a1.972,1.972,0,0,1-1.33,1.33,2.06,2.06,0,0,1-.7.12H15v2H10.8l.56-2.78A4,4,0,0,1,15.28,17H16a2.011,2.011,0,0,1,1.94,2.49Z" style="fill:#ffc477"/><path d="M40.41,11.59A1.955,1.955,0,0,1,41,13a2.006,2.006,0,0,1-2,2H25a2.015,2.015,0,0,1-2-2,2.006,2.006,0,0,1,2-2H39A1.955,1.955,0,0,1,40.41,11.59Z" style="fill:#f7910c"/><path d="M39,11H34V5.09A5.984,5.984,0,0,1,38.91,10,5.47,5.47,0,0,1,39,11Z" style="fill:#ff9811"/><path d="M34,5.09V11H30V4a1,1,0,0,1,1-1h2a1,1,0,0,1,1,1Z" style="fill:#ffa733"/><path d="M30,5.09V11H25a5.47,5.47,0,0,1,.09-1A5.992,5.992,0,0,1,30,5.09Z" style="fill:#ff9811"/><polygon points="35 26 35 29 33 30 31 30 29 29 29 26 35 26" style="fill:#ffc477"/><path d="M26,17v4H24a2,2,0,0,1,0-4Z" style="fill:#ffb655"/><path d="M42,19a2.006,2.006,0,0,1-2,2H38V17h2A2.006,2.006,0,0,1,42,19Z" style="fill:#ffb655"/><path d="M35,26v2.32a6.958,6.958,0,0,1-6,0V26Z" style="fill:#ffb655"/><path d="M39,17v3a5.474,5.474,0,0,1-.08,1A6.952,6.952,0,0,1,35,26.32,6.982,6.982,0,0,1,25.08,21,5.474,5.474,0,0,1,25,20V15H39Z" style="fill:#ffc477"/><rect x="25" y="15" width="14" height="2" style="fill:#ffb655"/><rect x="28" y="18" width="2" height="2"/><rect x="34" y="18" width="2" height="2"/><path d="M55.12,33.01l-.65-.08L55,27.09a1.415,1.415,0,0,0-.02-.29l-1.36-6.77A5,5,0,0,0,48.72,16h-.61a3.053,3.053,0,0,0-3.01,2.26A2.995,2.995,0,0,0,48,22v6.68A7.185,7.185,0,0,0,44.96,28a6.607,6.607,0,0,0-3.41.98,6.769,6.769,0,0,0-2.85-.94A5.374,5.374,0,0,0,38,28H36V26.92A8.06,8.06,0,0,0,39.74,22H40a3,3,0,0,0,0-6v-.18a2.983,2.983,0,0,0-.05-5.65,6.934,6.934,0,0,0-2-4.11A6.756,6.756,0,0,0,35,4.31V4a2.006,2.006,0,0,0-2-2H31a2.006,2.006,0,0,0-2,2v.3a6.96,6.96,0,0,0-4.95,5.87A2.983,2.983,0,0,0,24,15.82V16a3,3,0,0,0,0,6h.26A8.06,8.06,0,0,0,28,26.92V28H26a6.961,6.961,0,0,0-3.56.98,6.546,6.546,0,0,0-3.4-.98,6.792,6.792,0,0,0-3.04.68V22a3.049,3.049,0,0,0,2.9-2.26A2.995,2.995,0,0,0,16,16h-.72a5,5,0,0,0-4.9,4.02L9.02,26.8a1.415,1.415,0,0,0-.02.29l.53,5.84-.65.08A1,1,0,0,0,8,34v8a1,1,0,0,0,.88.99l3.91.49a19.349,19.349,0,0,0,1.75,4.23l-2.42,3.12a1.006,1.006,0,0,0,.08,1.32l5.65,5.65a1.006,1.006,0,0,0,1.32.08l3.12-2.42a19.349,19.349,0,0,0,4.23,1.75l.49,3.91A1,1,0,0,0,28,62h8a1,1,0,0,0,.99-.88l.49-3.91a19.349,19.349,0,0,0,4.23-1.75l3.12,2.42a1.006,1.006,0,0,0,1.32-.08l5.65-5.65a1.006,1.006,0,0,0,.08-1.32l-2.42-3.12a19.349,19.349,0,0,0,1.75-4.23l3.91-.49A1,1,0,0,0,56,42V34A1,1,0,0,0,55.12,33.01ZM24,20a1,1,0,0,1,0-2Zm23.29-.31a.949.949,0,0,1-.26-.94A1.1,1.1,0,0,1,48.11,18h.61a3.007,3.007,0,0,1,2.94,2.42L51.98,22H50V21a1,1,0,0,0-1-1H48A.949.949,0,0,1,47.29,19.69ZM37.93,33.37l1.29-3.21a4.967,4.967,0,0,1,1.74.82,1,1,0,0,0,1.2,0A4.774,4.774,0,0,1,44.98,30a4.89,4.89,0,0,1,3.35,1.28A1,1,0,0,0,50,30.54V24h2.38l.61,3.05-.82,9.04a1,1,0,0,1-1,.91H35.71l-1.35-3.82,2.32.77A1.248,1.248,0,0,0,37,34,1,1,0,0,0,37.93,33.37Zm-6.69,1.28.05.06a1.014,1.014,0,0,0,1.42,0l.05-.06L33.59,37H30.41Zm-.02-2.85.4-.8h.76l.4.8-.78.79ZM32.76,29H31.24L30,28.38v-.64a7.822,7.822,0,0,0,4,0v.64Zm9.19,10a10,10,0,0,1-19.9,0Zm-4.83-9-.7,1.75-1.71-.57-.37-.73.9-.45ZM41,19a1,1,0,0,1-1,1V18A1,1,0,0,1,41,19ZM35,6.43a5.106,5.106,0,0,1,1.54,1.04A4.913,4.913,0,0,1,37.9,10H35ZM31,4h2v6H31ZM29,6.43V10H26.1A4.943,4.943,0,0,1,29,6.43ZM24,13a1,1,0,0,1,1-1H39a1,1,0,0,1,0,2H25A1,1,0,0,1,24,13Zm2,7V16H38v4a6,6,0,0,1-12,0Zm2.76,10,.9.45-.37.73-1.71.57L26.88,30ZM12.34,20.41A3.009,3.009,0,0,1,15.28,18H16a1.019,1.019,0,0,1,.97,1.25,1.1,1.1,0,0,1-1.08.75H15a1,1,0,0,0-1,1v1H12.02ZM11.62,24H14v6.54a1,1,0,0,0,1.67.74A5,5,0,0,1,18.99,30h.03a4.774,4.774,0,0,1,2.82.98.975.975,0,0,0,1.19,0,4.942,4.942,0,0,1,1.76-.81l1.28,3.2A1,1,0,0,0,27,34a1.248,1.248,0,0,0,.32-.05l2.32-.77L28.29,37H12.83a1,1,0,0,1-1-.91l-.82-9.04ZM54,41.12l-3.7.46a.992.992,0,0,0-.85.75,17.441,17.441,0,0,1-2.05,4.94,1.012,1.012,0,0,0,.07,1.13l2.29,2.96-4.4,4.4L42.4,53.47a.977.977,0,0,0-1.13-.06,17.711,17.711,0,0,1-4.94,2.04.992.992,0,0,0-.75.85L35.12,60H28.88l-.46-3.7a.992.992,0,0,0-.75-.85,17.711,17.711,0,0,1-4.94-2.04.979.979,0,0,0-1.13.06l-2.96,2.29-4.4-4.4,2.29-2.96a1.012,1.012,0,0,0,.07-1.13,17.441,17.441,0,0,1-2.05-4.94.992.992,0,0,0-.85-.75L10,41.12V36.98A2.972,2.972,0,0,0,12.83,39h7.22a11.991,11.991,0,0,0,23.9,0h7.22A2.972,2.972,0,0,0,54,36.98Z"/><rect x="18.979" y="49.021" width="2" height="2" transform="translate(-29.518 28.778) rotate(-45)"/><rect x="31" y="54" width="2" height="2"/><rect x="43.021" y="49.02" width="2" height="2" transform="translate(-22.477 45.79) rotate(-45.01)"/><path d="M4.6,43.794l-1.957.412c.146.7.319,1.392.513,2.069l1.923-.55C4.9,45.092,4.736,44.442,4.6,43.794Z"/><path d="M5.709,47.655l-1.877.69a30.1,30.1,0,0,0,8.513,12.319l1.31-1.51A28.111,28.111,0,0,1,5.709,47.655Z"/><path d="M50.352,59.154l1.308,1.514c.53-.459,1.056-.947,1.561-1.453L51.808,57.8C51.336,58.271,50.846,58.728,50.352,59.154Z"/><path d="M59.4,43.789a28.122,28.122,0,0,1-6.2,12.525l1.514,1.307A30.129,30.129,0,0,0,61.353,44.2Z"/></g></svg>