<svg xmlns="http://www.w3.org/2000/svg" viewBox="0 0 64 64"><g id="Engineer-Gear-Worker-Man-Occupation"><path d="M55.34,37.57a23.494,23.494,0,0,1-2.9,7l3.6,4.4L50,55.01l-1.03,1.03-4.4-3.6c-.51.32-1.03.61-1.57.89a23.557,23.557,0,0,1-5.43,2.01L37,61H27l-.57-5.66A23.557,23.557,0,0,1,21,53.33c-.54-.28-1.06-.57-1.57-.89l-4.4,3.6L14,55.01,7.96,48.97l3.6-4.4a23.494,23.494,0,0,1-2.9-7L3,37V27l5.66-.57a23.494,23.494,0,0,1,2.9-7l-3.6-4.4,7.07-7.07,4.4,3.6a22.856,22.856,0,0,1,4.93-2.3,21.281,21.281,0,0,1,2.07-.6l.19-1.87A8.968,8.968,0,0,1,30,5.22a9.2,9.2,0,0,1,4,0,8.968,8.968,0,0,1,3.38,1.57l.19,1.87a21.281,21.281,0,0,1,2.07.6,22.856,22.856,0,0,1,4.93,2.3l4.4-3.6,7.07,7.07-3.6,4.4a23.494,23.494,0,0,1,2.9,7L61,27V37Z" style="fill:#ee8700"/><circle cx="32" cy="32" r="17" style="fill:#ffd422"/><path d="M40,34.16V39a2,2,0,0,0-4,0V33Z" style="fill:#1e81ce"/><path d="M28,36v3a2,2,0,0,0-4,0V34.16L28,33Z" style="fill:#1e81ce"/><path d="M39.64,9.26a8.589,8.589,0,0,0-2.26-2.47A8.968,8.968,0,0,0,34,5.22V14h7A8.837,8.837,0,0,0,39.64,9.26Z" style="fill:#ff9811"/><path d="M24.36,9.26A8.837,8.837,0,0,0,23,14h7V5.22a8.968,8.968,0,0,0-3.38,1.57A8.589,8.589,0,0,0,24.36,9.26Z" style="fill:#ff9811"/><path d="M50,41.58V61H14V41.58a6.023,6.023,0,0,1,1.83-4.32,6.172,6.172,0,0,1,2.59-1.47L24,34.16V39a2,2,0,0,1,4,0V36l4,3,4-3v3a2,2,0,0,1,4,0V34.16l5.58,1.63a6.172,6.172,0,0,1,2.59,1.47A6.023,6.023,0,0,1,50,41.58Z" style="fill:#3d9ae2"/><path d="M43,16a1.986,1.986,0,0,1-1.47,1.92A1.586,1.586,0,0,1,41,18H23a1.586,1.586,0,0,1-.53-.08,1.785,1.785,0,0,1-.88-.51A1.955,1.955,0,0,1,21,16a2.006,2.006,0,0,1,2-2H41a2.015,2.015,0,0,1,2,2Z" style="fill:#f7910c"/><path d="M33,3H31a1,1,0,0,0-1,1V14h4V4A1,1,0,0,0,33,3Z" style="fill:#ffa733"/><polygon points="36 29 36 36 32 39 28 36 28 29 36 29" style="fill:#ffc477"/><path d="M36,29v3.06a8.981,8.981,0,0,1-8,0V29Z" style="fill:#ffb655"/><path d="M41,18v4a9,9,0,0,1-13,8.06A9.028,9.028,0,0,1,23,22V18Z" style="fill:#ffc477"/><rect x="23" y="18" width="18" height="2" style="fill:#ffb655"/><path d="M36,24H34a2,2,0,0,1-4,0H28a4,4,0,0,0,8,0Z"/><path d="M45.86,34.83,37,32.25v-1.6A10.023,10.023,0,0,0,42,22V18.82a2.986,2.986,0,0,0-.04-5.65A9.9,9.9,0,0,0,35,4.46V4a2.006,2.006,0,0,0-2-2H31a2.006,2.006,0,0,0-2,2v.46a9.9,9.9,0,0,0-6.96,8.71A2.986,2.986,0,0,0,22,18.82V22a10.023,10.023,0,0,0,5,8.65v1.6l-8.85,2.58A7.021,7.021,0,0,0,13,41.58V61a1,1,0,0,0,1,1H50a1,1,0,0,0,1-1V41.58A7.024,7.024,0,0,0,45.86,34.83ZM39,34.92v1.25a3.113,3.113,0,0,0-2,0V34.33ZM35,6.58A8.108,8.108,0,0,1,39.93,13H35ZM31,4h2v9H31ZM29,6.58V13H24.07A8.108,8.108,0,0,1,29,6.58ZM22,16a1,1,0,0,1,1-1H41a1,1,0,0,1,0,2H23A1,1,0,0,1,22,16Zm2,6V19H40v3a8,8,0,0,1-16,0Zm11,9.54V35.5l-3,2.25L29,35.5V31.54a10.013,10.013,0,0,0,6,0ZM25,34.92l2-.59v1.84a3.113,3.113,0,0,0-2,0ZM49,60H44V45H42V60H22V45H20V60H15V41.58a5.035,5.035,0,0,1,3.7-4.83L23,35.5V39a1,1,0,0,0,2,0,1,1,0,0,1,2,0,1,1,0,0,0,2,0V38l2.4,1.8a1,1,0,0,0,1.2,0L35,38v1a1,1,0,0,0,2,0,1,1,0,0,1,2,0,1,1,0,0,0,2,0V35.5l4.31,1.25A5.038,5.038,0,0,1,49,41.58Z"/><rect x="27" y="20" width="2" height="2"/><rect x="35" y="20" width="2" height="2"/><path d="M19.294,19.251A17.873,17.873,0,0,0,14,32a18.185,18.185,0,0,0,.279,3.175l1.969-.35A16.143,16.143,0,0,1,16,32a15.887,15.887,0,0,1,4.706-11.333Z"/><path d="M43.333,20.706A15.893,15.893,0,0,1,48,32a16.143,16.143,0,0,1-.248,2.825l1.969.35A18.185,18.185,0,0,0,50,32a17.884,17.884,0,0,0-5.25-12.706Z"/><path d="M61.1,26.005l-4.958-.495a24.778,24.778,0,0,0-2.48-5.993l3.153-3.855a1,1,0,0,0-.066-1.34L49.678,7.251a1,1,0,0,0-1.341-.067l-4.4,3.6,1.267,1.549,3.7-3.026L54.694,15.1l-3.025,3.7a1,1,0,0,0-.077,1.157,22.81,22.81,0,0,1,2.779,6.715,1,1,0,0,0,.874.764L60,27.905V36.1l-4.755.475a1,1,0,0,0-.874.764,22.81,22.81,0,0,1-2.779,6.715,1,1,0,0,0,.077,1.157l3.025,3.7-3.389,3.39,1.414,1.414,4.03-4.029a1,1,0,0,0,.066-1.34l-3.153-3.855a24.778,24.778,0,0,0,2.48-5.993l4.958-.5A1,1,0,0,0,62,37V27A1,1,0,0,0,61.1,26.005Z"/><path d="M12.331,45.206a1,1,0,0,0,.077-1.157,22.81,22.81,0,0,1-2.779-6.715,1,1,0,0,0-.874-.764L4,36.1v-8.19l4.755-.475a1,1,0,0,0,.874-.764,22.81,22.81,0,0,1,2.779-6.715,1,1,0,0,0-.077-1.157L9.306,15.1,15.1,9.305l3.7,3.026,1.267-1.548-4.4-3.6a1,1,0,0,0-1.341.067L7.251,14.322a1,1,0,0,0-.066,1.34l3.153,3.855a24.778,24.778,0,0,0-2.48,5.993L2.9,26.005A1,1,0,0,0,2,27V37a1,1,0,0,0,.9.995l4.958.5a24.778,24.778,0,0,0,2.48,5.993L7.185,48.338a1,1,0,0,0,.066,1.34l4.042,4.041,1.414-1.414-3.4-3.4Z"/><rect x="14.737" y="14.736" width="2" height="2" transform="translate(-6.518 15.737) rotate(-45)"/><rect x="8" y="31" width="2" height="2"/><rect x="54" y="31" width="2" height="2"/><rect x="47.263" y="14.736" width="2" height="2" transform="translate(3.005 38.729) rotate(-44.99)"/></g></svg>