<svg xmlns="http://www.w3.org/2000/svg" viewBox="0 0 64 64"><g id="Engineer-Box-Construction-Tool-Business"><polygon points="43.69 35 33.82 35 30.18 35 20.31 35 12 35 12 43 22 43 23 45 41 45 42 43 52 43 52 35 43.69 35" style="fill:#a97c50"/><path d="M61,43V59a2.006,2.006,0,0,1-2,2H5a2.006,2.006,0,0,1-2-2V43H22l1,2H41l1-2Z" style="fill:#8b5e3c"/><polygon points="61 43 52 43 52 35 61 43" style="fill:#8b5e3c"/><path d="M42,51a2.006,2.006,0,0,1,2,2,2.015,2.015,0,0,1-2,2H22a2.006,2.006,0,0,1-2-2,2.015,2.015,0,0,1,2-2Z" style="fill:#754c29"/><polygon points="12 35 12 43 3 43 12 35" style="fill:#8b5e3c"/><path d="M44,36.9V39H35l-1.82-6.18L34,32l3,1,.7-2.8,2.74,1.22A6,6,0,0,1,44,36.9Z" style="fill:#3d9ae2"/><path d="M40.41,11.59A1.955,1.955,0,0,1,41,13a2.006,2.006,0,0,1-2,2H25a2.015,2.015,0,0,1-2-2,2.006,2.006,0,0,1,2-2H39A1.955,1.955,0,0,1,40.41,11.59Z" style="fill:#f7910c"/><path d="M39,11H34V5.09A5.984,5.984,0,0,1,38.91,10,5.47,5.47,0,0,1,39,11Z" style="fill:#ff9811"/><polygon points="37.7 30.2 37 33 34 32 33 30 35 29 37.7 30.2" style="fill:#1e81ce"/><polygon points="33.18 32.82 35 39 29 39 30.82 32.82 32 34 33.18 32.82" style="fill:#ed1c24"/><path d="M34,5.09V11H30V4a1,1,0,0,1,1-1h2a1,1,0,0,1,1,1Z" style="fill:#ffa733"/><polygon points="33 30 34 32 33.18 32.82 32 34 30.82 32.82 30 32 31 30 33 30" style="fill:#ed1c24"/><polygon points="31 30 30 32 27 33 26.3 30.2 29 29 31 30" style="fill:#1e81ce"/><path d="M30.82,32.82,29,39H20V36.9a6,6,0,0,1,3.56-5.48L26.3,30.2,27,33l3-1Z" style="fill:#3d9ae2"/><path d="M30,5.09V11H25a5.47,5.47,0,0,1,.09-1A5.992,5.992,0,0,1,30,5.09Z" style="fill:#ff9811"/><polygon points="35 26 35 29 33 30 31 30 29 29 29 26 35 26" style="fill:#ffc477"/><path d="M26,17v4H24a2,2,0,0,1,0-4Z" style="fill:#ffb655"/><path d="M42,19a2.006,2.006,0,0,1-2,2H38V17h2A2.006,2.006,0,0,1,42,19Z" style="fill:#ffb655"/><path d="M35,26v2.32a6.958,6.958,0,0,1-6,0V26Z" style="fill:#ffb655"/><path d="M39,17v3a5.474,5.474,0,0,1-.08,1A6.952,6.952,0,0,1,35,26.32,6.982,6.982,0,0,1,25.08,21,5.474,5.474,0,0,1,25,20V15H39Z" style="fill:#ffc477"/><rect x="25" y="15" width="14" height="2" style="fill:#ffb655"/><path d="M5,14.414V22H7V14.414l1.293,1.293,1.414-1.414-3-3a1,1,0,0,0-1.414,0l-3,3,1.414,1.414Z"/><rect x="5" y="24" width="2" height="2"/><rect x="5" y="28" width="2" height="2"/><path d="M12,5.414V13h2V5.414l1.293,1.293,1.414-1.414-3-3a1,1,0,0,0-1.414,0l-3,3,1.414,1.414Z"/><rect x="12" y="16" width="2" height="2"/><path d="M55.707,15.707,57,14.414V22h2V14.414l1.293,1.293,1.414-1.414-3-3a1,1,0,0,0-1.414,0l-3,3Z"/><rect x="57" y="24" width="2" height="2"/><rect x="57" y="28" width="2" height="2"/><path d="M50,5.414V13h2V5.414l1.293,1.293,1.414-1.414-3-3a1,1,0,0,0-1.414,0l-3,3,1.414,1.414Z"/><rect x="50" y="16" width="2" height="2"/><path d="M42,50H22a3,3,0,0,0,0,6H42a3,3,0,0,0,0-6Zm0,4H22a1,1,0,0,1,0-2H42a1,1,0,0,1,0,2Z"/><path d="M61.66,42.25l-9-8A.985.985,0,0,0,52,34H47v2h4v6H42a.988.988,0,0,0-.89.55L40.38,44H23.62l-.73-1.45A.988.988,0,0,0,22,42H13V36h4V34H12a.985.985,0,0,0-.66.25l-9,8A.981.981,0,0,0,2,43V59a3.009,3.009,0,0,0,3,3H59a3.009,3.009,0,0,0,3-3V43A.981.981,0,0,0,61.66,42.25ZM53,37.23,58.37,42H53Zm-42,0V42H5.63ZM60,59a1,1,0,0,1-1,1H5a1,1,0,0,1-1-1V44H21.38l.73,1.45A.988.988,0,0,0,23,46H41a.988.988,0,0,0,.89-.55L42.62,44H60Z"/><rect x="28" y="18" width="2" height="2"/><rect x="34" y="18" width="2" height="2"/><path d="M40.85,30.51,36,28.35V26.92A8.06,8.06,0,0,0,39.74,22H40a3,3,0,0,0,0-6v-.18a2.983,2.983,0,0,0-.05-5.65,6.934,6.934,0,0,0-2-4.11A6.756,6.756,0,0,0,35,4.31V4a2.006,2.006,0,0,0-2-2H31a2.006,2.006,0,0,0-2,2v.3a6.96,6.96,0,0,0-4.95,5.87A2.983,2.983,0,0,0,24,15.82V16a3,3,0,0,0,0,6h.26A8.06,8.06,0,0,0,28,26.92v1.43l-4.85,2.16A7,7,0,0,0,19,36.9V39a1,1,0,0,0,1,1H44a1,1,0,0,0,1-1V36.9A7,7,0,0,0,40.85,30.51ZM24,20a1,1,0,0,1,0-2ZM36.53,30.77l-.24.94-1.58-.53-.37-.73.69-.34ZM41,19a1,1,0,0,1-1,1V18A1,1,0,0,1,41,19ZM35,6.43a5.106,5.106,0,0,1,1.54,1.04A4.913,4.913,0,0,1,37.9,10H35ZM31,4h2v6H31ZM29,6.43V10H26.1A4.961,4.961,0,0,1,29,6.43ZM24,13a1,1,0,0,1,1-1H39a1,1,0,0,1,0,2H25A1,1,0,0,1,24,13Zm2,7V16H38v4a6,6,0,0,1-12,0Zm2.97,10.11.69.34-.37.73-1.58.53-.24-.94ZM28.25,38H21V36.9a5,5,0,0,1,2.97-4.57l1.65-.73.41,1.64a1.017,1.017,0,0,0,.49.64A1,1,0,0,0,27,34a1.185,1.185,0,0,0,.32-.05l2.36-.79Zm2.09,0,.96-3.29a.99.99,0,0,0,1.4,0L33.66,38Zm.88-6.2.4-.8h.76l.4.8-.78.79ZM34,28.38,32.76,29H31.24L30,28.38v-.64a7.822,7.822,0,0,0,4,0ZM43,38H35.75l-1.43-4.84,2.36.79A1.185,1.185,0,0,0,37,34a1,1,0,0,0,.48-.12,1.017,1.017,0,0,0,.49-.64l.41-1.64,1.65.73A5,5,0,0,1,43,36.9Z"/></g></svg>