<svg xmlns="http://www.w3.org/2000/svg" viewBox="0 0 64 64"><g id="Engineer-Software-Worker-Man-Occupation"><path d="M55,13V43H9V13a2,2,0,0,1,1.31-1.87A1.766,1.766,0,0,1,11,11H53A2.006,2.006,0,0,1,55,13Z" style="fill:#5aaae7"/><path d="M55,13V33.27a14.94,14.94,0,0,1-14.65-.39L34,35l2.01-6.02A14.954,14.954,0,0,1,34.73,13a14.439,14.439,0,0,1,1.28-2H53A2.006,2.006,0,0,1,55,13Z" style="fill:#3d9ae2"/><path d="M61,18A15,15,0,0,1,46,33a14.844,14.844,0,0,1-7.65-2.12L32,33l2.01-6.02A14.992,14.992,0,1,1,61,18Z" style="fill:#ffd422"/><path d="M57,16v4H53.74a8.285,8.285,0,0,1-.85,2.06L55,24.17v.38l-2.64,2.64-2.3-2.3a8.285,8.285,0,0,1-2.06.85V29H44V25.74a8.285,8.285,0,0,1-2.06-.85l-2.3,2.3-2.83-2.83,2.3-2.3A8.285,8.285,0,0,1,38.26,20H35V16h3.26a8.285,8.285,0,0,1,.85-2.06l-2.3-2.3,2.83-2.83,2.3,2.3a2.116,2.116,0,0,1,.21-.11A8.038,8.038,0,0,1,44,10.26V7h4v3.26a8.038,8.038,0,0,1,1.85.74,2.116,2.116,0,0,1,.21.11l2.3-2.3,2.83,2.83-2.3,2.3A8.285,8.285,0,0,1,53.74,16Z" style="fill:#ff9811"/><polygon points="61 55 3 55 9 43 55 43 61 55" style="fill:#acabb1"/><path d="M61,55v4a2.006,2.006,0,0,1-2,2H5a2.006,2.006,0,0,1-2-2V55H61Z" style="fill:#898890"/><polygon points="55.19 24.36 55 24.55 55 24.17 55.19 24.36" style="fill:#bddbff"/><circle cx="46" cy="18" r="4" style="fill:#ffd422"/><polygon points="38 51 40 55 24 55 26 51 38 51" style="fill:#c6c5ca"/><path d="M29,38.9V41H9V33.22l2.3-1.02L14,31V28.32A6.946,6.946,0,0,1,10.08,23H9V19h1V17a2,2,0,0,1-1-.27V13.27A2,2,0,0,1,10,13a5.47,5.47,0,0,1,.09-1,5.039,5.039,0,0,1,.22-.87A1.766,1.766,0,0,1,11,11H23.66a5.628,5.628,0,0,1,.25,1A5.47,5.47,0,0,1,24,13a2.015,2.015,0,0,1,2,2,2.006,2.006,0,0,1-2,2v2h1a2,2,0,0,1,0,4H23.92A6.952,6.952,0,0,1,20,28.32V31l2.7,1.2,2.74,1.22A6,6,0,0,1,29,38.9Z" style="fill:#3d9ae2"/><path d="M27,36.9V39H18l-1.82-6.18L17,32l3,1,.7-2.8,2.74,1.22A6,6,0,0,1,27,36.9Z" style="fill:#1e81ce"/><path d="M23.41,11.59A1.955,1.955,0,0,1,24,13a2.006,2.006,0,0,1-2,2H8a2.015,2.015,0,0,1-2-2,2.006,2.006,0,0,1,2-2H22A1.955,1.955,0,0,1,23.41,11.59Z" style="fill:#f7910c"/><path d="M22,11H17V5.09A5.984,5.984,0,0,1,21.91,10,5.47,5.47,0,0,1,22,11Z" style="fill:#ff9811"/><polygon points="20.7 30.2 20 33 17 32 16 30 18 29 20.7 30.2" style="fill:#1a6fb0"/><polygon points="16.18 32.82 18 39 12 39 13.82 32.82 15 34 16.18 32.82" style="fill:#ed1c24"/><path d="M17,5.09V11H13V4a1,1,0,0,1,1-1h2a1,1,0,0,1,1,1Z" style="fill:#ffa733"/><polygon points="16 30 17 32 16.18 32.82 15 34 13.82 32.82 13 32 14 30 16 30" style="fill:#ed1c24"/><polygon points="14 30 13 32 10 33 9.3 30.2 12 29 14 30" style="fill:#1a6fb0"/><path d="M13.82,32.82,12,39H3V36.9a6,6,0,0,1,3.56-5.48L9.3,30.2,10,33l3-1Z" style="fill:#1e81ce"/><path d="M13,5.09V11H8a5.47,5.47,0,0,1,.09-1A5.992,5.992,0,0,1,13,5.09Z" style="fill:#ff9811"/><polygon points="18 26 18 29 16 30 14 30 12 29 12 26 18 26" style="fill:#ffc477"/><path d="M9,17v4H7a2,2,0,0,1,0-4Z" style="fill:#ffb655"/><path d="M25,19a2.006,2.006,0,0,1-2,2H21V17h2A2.006,2.006,0,0,1,25,19Z" style="fill:#ffb655"/><path d="M18,26v2.32a6.958,6.958,0,0,1-6,0V26Z" style="fill:#ffb655"/><path d="M22,17v3a5.474,5.474,0,0,1-.08,1A6.952,6.952,0,0,1,18,26.32,6.982,6.982,0,0,1,8.08,21,5.474,5.474,0,0,1,8,20V15H22Z" style="fill:#ffc477"/><rect x="8" y="15" width="14" height="2" style="fill:#ffb655"/><path d="M56,42.76V30.47A15.988,15.988,0,1,0,32.16,10H22.92a6.847,6.847,0,0,0-1.97-3.94A6.756,6.756,0,0,0,18,4.31V4a2.006,2.006,0,0,0-2-2H14a2.006,2.006,0,0,0-2,2v.3a6.96,6.96,0,0,0-4.95,5.87A2.983,2.983,0,0,0,7,15.82V16a3,3,0,0,0,0,6h.26A8.06,8.06,0,0,0,11,26.92v1.43L6.15,30.51A7,7,0,0,0,2,36.9V39a1,1,0,0,0,1,1H8v2.76L2.11,54.55A1,1,0,0,0,2,55v4a3.009,3.009,0,0,0,3,3H59a3.009,3.009,0,0,0,3-3V55a1,1,0,0,0-.11-.45ZM7,20a1,1,0,0,1,0-2ZM46,4a14,14,0,1,1-7.14,26.03.946.946,0,0,0-.51-.15.866.866,0,0,0-.32.06l-4.45,1.48,1.37-4.12a1.006,1.006,0,0,0-.14-.92A13.84,13.84,0,0,1,32,18,14.015,14.015,0,0,1,46,4ZM24.82,12h6.36a15.9,15.9,0,0,0,1.71,15.15l-1.84,5.53a1.028,1.028,0,0,0,.24,1.03A1.007,1.007,0,0,0,32,34a1.185,1.185,0,0,0,.32-.05l5.92-1.97A15.873,15.873,0,0,0,54,31.83V42H10V40H27a1,1,0,0,0,1-1V36.9a7,7,0,0,0-4.15-6.39L19,28.35V26.92A8.06,8.06,0,0,0,22.74,22H23a3,3,0,0,0,0-6v-.18A2.964,2.964,0,0,0,24.82,12ZM14.3,34.71a.99.99,0,0,0,1.4,0L16.66,38H13.34Zm-.08-2.91.4-.8h.76l.4.8-.78.79ZM15.76,29H14.24L13,28.38v-.64a7.822,7.822,0,0,0,4,0v.64Zm3.92,4.95A1.185,1.185,0,0,0,20,34a1,1,0,0,0,.48-.12,1.017,1.017,0,0,0,.49-.64l.41-1.64,1.65.73A5,5,0,0,1,26,36.9V38H18.75l-1.43-4.84Zm-2.34-3.5.68-.34,1.51.66-.24.94-1.58-.53ZM23,20V18a1,1,0,0,1,0,2ZM18,6.43a5.106,5.106,0,0,1,1.54,1.04A4.913,4.913,0,0,1,20.9,10H18ZM14,4h2v6H14ZM12,6.43V10H9.1A4.943,4.943,0,0,1,12,6.43ZM7,13a1,1,0,0,1,1-1H22a1,1,0,0,1,0,2H8A1,1,0,0,1,7,13Zm2,7V16H21v4A6,6,0,0,1,9,20Zm2.98,10.11.68.34-.37.73-1.58.53-.24-.94ZM4,38V36.9a5,5,0,0,1,2.97-4.57l1.65-.73.41,1.64a1.017,1.017,0,0,0,.49.64A1,1,0,0,0,10,34a1.185,1.185,0,0,0,.32-.05l2.36-.79L11.25,38Zm5.62,6H54.38l5,10H40.62l-1.73-3.45A.988.988,0,0,0,38,50H26a.988.988,0,0,0-.89.55L23.38,54H4.62ZM38.38,54H25.62l1-2H37.38ZM60,59a1,1,0,0,1-1,1H5a1,1,0,0,1-1-1V56H60Z"/><rect x="10" y="50" width="2" height="2"/><rect x="14" y="50" width="2" height="2"/><rect x="48" y="50" width="2" height="2"/><rect x="52" y="50" width="2" height="2"/><rect x="15" y="46" width="2" height="2"/><rect x="11" y="46" width="2" height="2"/><rect x="19" y="46" width="2" height="2"/><rect x="23" y="46" width="2" height="2"/><rect x="27" y="46" width="2" height="2"/><rect x="31" y="46" width="2" height="2"/><rect x="35" y="46" width="2" height="2"/><rect x="39" y="46" width="2" height="2"/><rect x="43" y="46" width="2" height="2"/><rect x="47" y="46" width="2" height="2"/><rect x="51" y="46" width="2" height="2"/><rect x="18" y="50" width="4" height="2"/><rect x="42" y="50" width="4" height="2"/><rect x="11" y="18" width="2" height="2"/><rect x="17" y="18" width="2" height="2"/><path d="M35,21h2.522a9.015,9.015,0,0,0,.363.873L36.1,23.657a1,1,0,0,0,0,1.414L38.929,27.9a1,1,0,0,0,1.414,0l1.783-1.783a9.026,9.026,0,0,0,.874.362V29a1,1,0,0,0,1,1h4a1,1,0,0,0,1-1V26.478a9.026,9.026,0,0,0,.874-.362L51.657,27.9a1,1,0,0,0,1.414,0L55.9,25.071a1,1,0,0,0,0-1.414l-1.784-1.784A9.015,9.015,0,0,0,54.478,21H57a1,1,0,0,0,1-1V16a1,1,0,0,0-1-1H54.478a9.015,9.015,0,0,0-.363-.873L55.9,12.343a1,1,0,0,0,0-1.414L53.071,8.1a1,1,0,0,0-1.414,0L49.874,9.884A9.026,9.026,0,0,0,49,9.522V7a1,1,0,0,0-1-1H44a1,1,0,0,0-1,1V9.522a9.026,9.026,0,0,0-.874.362L40.343,8.1a1,1,0,0,0-1.414,0L36.1,10.929a1,1,0,0,0,0,1.414l1.784,1.784a9.015,9.015,0,0,0-.363.873H35a1,1,0,0,0-1,1v4A1,1,0,0,0,35,21Zm1-4h2.262a1,1,0,0,0,.967-.75,7.046,7.046,0,0,1,.747-1.8,1,1,0,0,0-.155-1.215l-1.6-1.6,1.414-1.414,1.6,1.6a1,1,0,0,0,1.217.154,6.989,6.989,0,0,1,1.8-.746,1,1,0,0,0,.75-.967V8h2v2.262a1,1,0,0,0,.75.967,6.989,6.989,0,0,1,1.8.746,1,1,0,0,0,1.217-.154l1.6-1.6,1.414,1.414-1.6,1.6a1,1,0,0,0-.155,1.215,7.046,7.046,0,0,1,.747,1.8,1,1,0,0,0,.967.75H56v2H53.738a1,1,0,0,0-.967.75,7.046,7.046,0,0,1-.747,1.8,1,1,0,0,0,.155,1.215l1.6,1.6-1.414,1.414-1.6-1.6a1,1,0,0,0-1.217-.154,6.989,6.989,0,0,1-1.8.746,1,1,0,0,0-.75.967V28H45V25.738a1,1,0,0,0-.75-.967,6.989,6.989,0,0,1-1.8-.746,1,1,0,0,0-1.217.154l-1.6,1.6-1.414-1.414,1.6-1.6a1,1,0,0,0,.155-1.215,7.046,7.046,0,0,1-.747-1.8,1,1,0,0,0-.967-.75H36Z"/><path d="M46,23a5,5,0,1,0-5-5A5.006,5.006,0,0,0,46,23Zm0-8a3,3,0,1,1-3,3A3,3,0,0,1,46,15Z"/></g></svg>