<svg xmlns="http://www.w3.org/2000/svg" viewBox="0 0 64 64"><g id="Engineer-Company-Network-Worker-Team"><path d="M61,59.14V61H49V59.14a4,4,0,0,1,1.78-3.33l1.4-.93L55,58l2.82-3.12,1.4.93A4,4,0,0,1,61,59.14Z" style="fill:#00b39d"/><path d="M61,18.14V20H49V18.14a4,4,0,0,1,1.78-3.33l1.4-.93L55,17l2.82-3.12,1.4.93A4,4,0,0,1,61,18.14Z" style="fill:#00b39d"/><path d="M58,49v2a2.991,2.991,0,0,1-1.85,2.77,2.99,2.99,0,0,1-2.3,0A2.991,2.991,0,0,1,52,51V49h6Z" style="fill:#ffc477"/><path d="M58,48v1H55V45a3,3,0,0,1,3,3Z" style="fill:#ff9811"/><path d="M58,8v2a2.991,2.991,0,0,1-1.85,2.77,2.99,2.99,0,0,1-2.3,0A2.991,2.991,0,0,1,52,10V8h6Z" style="fill:#ffc477"/><path d="M58,7V8H55V4a3,3,0,0,1,3,3Z" style="fill:#ff9811"/><path d="M57.82,13.88,55,17l-2.82-3.12,1.67-1.11a2.99,2.99,0,0,0,2.3,0Z" style="fill:#ffc477"/><path d="M57.82,54.88,55,58l-2.82-3.12,1.67-1.11a2.99,2.99,0,0,0,2.3,0Z" style="fill:#ffc477"/><path d="M55,45v4H52V48A3,3,0,0,1,55,45Z" style="fill:#ff9811"/><path d="M55,4V8H52V7A3,3,0,0,1,55,4Z" style="fill:#ff9811"/><path d="M15,59.14V61H3V59.14a4,4,0,0,1,1.78-3.33l1.4-.93L9,58l2.82-3.12,1.4.93A4,4,0,0,1,15,59.14Z" style="fill:#00b39d"/><path d="M15,18.14V20H3V18.14a4,4,0,0,1,1.78-3.33l1.4-.93L9,17l2.82-3.12,1.4.93A4,4,0,0,1,15,18.14Z" style="fill:#00b39d"/><path d="M12,49v2a2.991,2.991,0,0,1-1.85,2.77,2.99,2.99,0,0,1-2.3,0A2.991,2.991,0,0,1,6,51V49h6Z" style="fill:#ffc477"/><path d="M12,48v1H9V45a3,3,0,0,1,3,3Z" style="fill:#ff9811"/><path d="M12,8v2a2.991,2.991,0,0,1-1.85,2.77,2.99,2.99,0,0,1-2.3,0A2.991,2.991,0,0,1,6,10V8h6Z" style="fill:#ffc477"/><path d="M12,7V8H9V4a3,3,0,0,1,3,3Z" style="fill:#ff9811"/><path d="M11.82,13.88,9,17,6.18,13.88l1.67-1.11a2.99,2.99,0,0,0,2.3,0Z" style="fill:#ffc477"/><path d="M11.82,54.88,9,58,6.18,54.88l1.67-1.11a2.99,2.99,0,0,0,2.3,0Z" style="fill:#ffc477"/><path d="M9,45v4H6V48A3,3,0,0,1,9,45Z" style="fill:#ff9811"/><path d="M9,4V8H6V7A3,3,0,0,1,9,4Z" style="fill:#ff9811"/><path d="M44,47.9V50H35l-1.82-6.18L34,43l3,1,.7-2.8,2.74,1.22A6,6,0,0,1,44,47.9Z" style="fill:#3d9ae2"/><path d="M40.41,22.59A1.955,1.955,0,0,1,41,24a2.006,2.006,0,0,1-2,2H25a2.015,2.015,0,0,1-2-2,2.006,2.006,0,0,1,2-2H39A1.955,1.955,0,0,1,40.41,22.59Z" style="fill:#f7910c"/><path d="M39,22H34V16.09A5.984,5.984,0,0,1,38.91,21,5.47,5.47,0,0,1,39,22Z" style="fill:#ff9811"/><polygon points="37.7 41.2 37 44 34 43 33 41 35 40 37.7 41.2" style="fill:#1e81ce"/><polygon points="33.18 43.82 35 50 29 50 30.82 43.82 32 45 33.18 43.82" style="fill:#ed1c24"/><path d="M34,16.09V22H30V15a1,1,0,0,1,1-1h2a1,1,0,0,1,1,1Z" style="fill:#ffa733"/><polygon points="33 41 34 43 33.18 43.82 32 45 30.82 43.82 30 43 31 41 33 41" style="fill:#ed1c24"/><polygon points="31 41 30 43 27 44 26.3 41.2 29 40 31 41" style="fill:#1e81ce"/><path d="M30.82,43.82,29,50H20V47.9a6,6,0,0,1,3.56-5.48L26.3,41.2,27,44l3-1Z" style="fill:#3d9ae2"/><path d="M30,16.09V22H25a5.47,5.47,0,0,1,.09-1A5.992,5.992,0,0,1,30,16.09Z" style="fill:#ff9811"/><polygon points="35 37 35 40 33 41 31 41 29 40 29 37 35 37" style="fill:#ffc477"/><path d="M26,28v4H24a2,2,0,0,1,0-4Z" style="fill:#ffb655"/><path d="M42,30a2.006,2.006,0,0,1-2,2H38V28h2A2.006,2.006,0,0,1,42,30Z" style="fill:#ffb655"/><path d="M35,37v2.32a6.958,6.958,0,0,1-6,0V37Z" style="fill:#ffb655"/><path d="M39,28v3a5.474,5.474,0,0,1-.08,1A6.952,6.952,0,0,1,35,37.32,6.982,6.982,0,0,1,25.08,32,5.474,5.474,0,0,1,25,31V26H39Z" style="fill:#ffc477"/><rect x="25" y="26" width="14" height="2" style="fill:#ffb655"/><path d="M59.771,54.98,57.9,53.736A3.981,3.981,0,0,0,59,51V50h1V48H59a4,4,0,0,0-3-3.858V43H54v1.142A4,4,0,0,0,51,48H50v2h1v1a3.981,3.981,0,0,0,1.1,2.736L50.228,54.98A4.993,4.993,0,0,0,48,59.142V61a1,1,0,0,0,1,1H61a1,1,0,0,0,1-1V59.142A4.991,4.991,0,0,0,59.771,54.98Zm-5.758-.118a3.6,3.6,0,0,0,1.974,0l.313.208L55,56.509,53.7,55.07ZM57,48H56V46.278A1.993,1.993,0,0,1,57,48Zm-3-1.722V48H53A1.993,1.993,0,0,1,54,46.278ZM57,50v1a2,2,0,0,1-4,0V50Zm3,10H50v-.858a3,3,0,0,1,1.337-2.5l.68-.454,2.241,2.48a1,1,0,0,0,1.484,0l2.24-2.48.681.454A3,3,0,0,1,60,59.142Z"/><path d="M13.771,54.98,11.9,53.736A3.981,3.981,0,0,0,13,51V50h1V48H13a4,4,0,0,0-3-3.858V43H8v1.142A4,4,0,0,0,5,48H4v2H5v1a3.981,3.981,0,0,0,1.1,2.736L4.228,54.98A4.993,4.993,0,0,0,2,59.142V61a1,1,0,0,0,1,1H15a1,1,0,0,0,1-1V59.142A4.991,4.991,0,0,0,13.771,54.98Zm-5.758-.118A3.978,3.978,0,0,0,9,55a3.978,3.978,0,0,0,.987-.138l.313.208L9,56.509,7.7,55.07ZM11,48H10V46.278A1.993,1.993,0,0,1,11,48ZM8,46.278V48H7A1.993,1.993,0,0,1,8,46.278ZM11,50v1a2,2,0,0,1-4,0V50Zm3,10H4v-.858a3,3,0,0,1,1.337-2.5l.68-.454,2.241,2.48a1,1,0,0,0,1.484,0l2.24-2.48.681.454A3,3,0,0,1,14,59.142Z"/><path d="M59.771,13.98,57.9,12.736A3.981,3.981,0,0,0,59,10V9h1V7H59a4,4,0,0,0-3-3.858V2H54V3.142A4,4,0,0,0,51,7H50V9h1v1a3.981,3.981,0,0,0,1.1,2.736L50.228,13.98A4.993,4.993,0,0,0,48,18.142V20a1,1,0,0,0,1,1H61a1,1,0,0,0,1-1V18.142A4.991,4.991,0,0,0,59.771,13.98Zm-5.758-.118a3.6,3.6,0,0,0,1.974,0l.313.208L55,15.509,53.7,14.07ZM57,7H56V5.278A1.993,1.993,0,0,1,57,7ZM54,5.278V7H53A1.993,1.993,0,0,1,54,5.278ZM57,9v1a2,2,0,0,1-4,0V9Zm3,10H50v-.858a3,3,0,0,1,1.337-2.5l.68-.454,2.241,2.48a1,1,0,0,0,1.484,0l2.24-2.48.681.454A3,3,0,0,1,60,18.142Z"/><path d="M3,21H15a1,1,0,0,0,1-1V18.142a4.991,4.991,0,0,0-2.229-4.162L11.9,12.736A3.981,3.981,0,0,0,13,10V9h1V7H13a4,4,0,0,0-3-3.858V2H8V3.142A4,4,0,0,0,5,7H4V9H5v1a3.981,3.981,0,0,0,1.1,2.736L4.228,13.98A4.993,4.993,0,0,0,2,18.142V20A1,1,0,0,0,3,21Zm5.013-7.138A3.978,3.978,0,0,0,9,14a3.978,3.978,0,0,0,.987-.138l.313.208L9,15.509,7.7,14.07ZM11,7H10V5.278A1.993,1.993,0,0,1,11,7ZM8,5.278V7H7A1.993,1.993,0,0,1,8,5.278ZM11,9v1a2,2,0,0,1-4,0V9ZM4,18.142a3,3,0,0,1,1.337-2.5l.68-.454,2.241,2.48a1,1,0,0,0,1.484,0l2.24-2.48.681.454A3,3,0,0,1,14,18.142V19H4Z"/><path d="M56,27V23H54v4H45v2h9A2,2,0,0,0,56,27Z"/><path d="M54,41h2V37a2,2,0,0,0-2-2H45v2h9Z"/><rect x="53" y="31" width="2" height="2"/><rect x="49" y="31" width="2" height="2"/><rect x="45" y="31" width="2" height="2"/><path d="M19,27H10V23H8v4a2,2,0,0,0,2,2h9Z"/><path d="M8,37v4h2V37h9V35H10A2,2,0,0,0,8,37Z"/><rect x="9" y="31" width="2" height="2"/><rect x="13" y="31" width="2" height="2"/><rect x="17" y="31" width="2" height="2"/><rect x="28" y="29" width="2" height="2"/><rect x="34" y="29" width="2" height="2"/><path d="M40.85,41.51,36,39.35V37.92A8.06,8.06,0,0,0,39.74,33H40a3,3,0,0,0,0-6v-.18a2.983,2.983,0,0,0-.05-5.65,6.934,6.934,0,0,0-2-4.11A6.756,6.756,0,0,0,35,15.31V15a2.006,2.006,0,0,0-2-2H31a2.006,2.006,0,0,0-2,2v.3a6.96,6.96,0,0,0-4.95,5.87A2.983,2.983,0,0,0,24,26.82V27a3,3,0,0,0,0,6h.26A8.06,8.06,0,0,0,28,37.92v1.43l-4.85,2.16A7,7,0,0,0,19,47.9V50a1,1,0,0,0,1,1H44a1,1,0,0,0,1-1V47.9A7,7,0,0,0,40.85,41.51ZM24,31a1,1,0,0,1,0-2ZM36.53,41.77l-.24.94-1.58-.53-.37-.73.68-.34ZM41,30a1,1,0,0,1-1,1V29A1,1,0,0,1,41,30ZM35,17.43A4.946,4.946,0,0,1,37.9,21H35ZM31,15h2v6H31Zm-2,2.43V21H26.1A4.961,4.961,0,0,1,29,17.43ZM24,24a1,1,0,0,1,1-1H39a1,1,0,0,1,0,2H25A1,1,0,0,1,24,24Zm2,7V27H38v4a6,6,0,0,1-12,0Zm2.98,10.11.68.34-.37.73-1.58.53-.24-.94ZM28.25,49H21V47.9a5,5,0,0,1,2.97-4.57l1.65-.73.41,1.64a1.017,1.017,0,0,0,.49.64A1,1,0,0,0,27,45a1.185,1.185,0,0,0,.32-.05l2.36-.79Zm2.09,0,.96-3.29a.99.99,0,0,0,1.4,0L33.66,49Zm.88-6.2.4-.8h.76l.4.8-.78.79ZM34,39.38,32.76,40H31.24L30,39.38v-.64a7.822,7.822,0,0,0,4,0ZM43,49H35.75l-1.43-4.84,2.36.79A1.185,1.185,0,0,0,37,45a1,1,0,0,0,.48-.12,1.017,1.017,0,0,0,.49-.64l.41-1.64,1.65.73A5,5,0,0,1,43,47.9Z"/></g></svg>