<svg xmlns="http://www.w3.org/2000/svg" viewBox="0 0 64 64"><g id="Engineer-Avatar-Worker-Man-Occupation"><path d="M42,41.58V61H6V41.58a6.013,6.013,0,0,1,4.42-5.79L16,34.16V39a2,2,0,0,1,4,0V36l4,3,4-3v3a2,2,0,0,1,4,0V34.16l5.58,1.63A6.014,6.014,0,0,1,41.97,41,5.49,5.49,0,0,1,42,41.58Z" style="fill:#3d9ae2"/><polygon points="41.97 41 39 41 39 45 42 45 49 45 49 41 41.97 41" style="fill:#ff5023"/><polygon points="38 49 38 61 26 61 26 49 28 45 36 45 38 49" style="fill:#ed1c24"/><polygon points="58 49 58 52 38 52 38 49 36 45 56 45 58 49" style="fill:#e01a22"/><rect x="38" y="52" width="20" height="9" style="fill:#ff5023"/><path d="M50,52v1a2,2,0,0,1-4,0V51a2.006,2.006,0,0,1,2-2,2.015,2.015,0,0,1,2,2Z" style="fill:#d1d3d4"/><path d="M32,34.16V39a2,2,0,0,0-4,0V33Z" style="fill:#1e81ce"/><path d="M20,36v3a2,2,0,0,0-4,0V34.16L20,33Z" style="fill:#1e81ce"/><path d="M35,16a1.986,1.986,0,0,1-1.47,1.92A1.586,1.586,0,0,1,33,18H15a1.586,1.586,0,0,1-.53-.08,1.785,1.785,0,0,1-.88-.51A1.955,1.955,0,0,1,13,16a2.006,2.006,0,0,1,2-2H33a2.015,2.015,0,0,1,2,2Z" style="fill:#f7910c"/><path d="M25,3H23a1,1,0,0,0-1,1V14h4V4A1,1,0,0,0,25,3Z" style="fill:#ffa733"/><polygon points="28 29 28 36 24 39 20 36 20 29 28 29" style="fill:#ffc477"/><path d="M28,29v3.06a8.981,8.981,0,0,1-8,0V29Z" style="fill:#ffb655"/><path d="M33,18v4a9,9,0,0,1-13,8.06A9.028,9.028,0,0,1,15,22V18Z" style="fill:#ffc477"/><rect x="15" y="18" width="18" height="2" style="fill:#ffb655"/><path d="M31.64,9.26a8.589,8.589,0,0,0-2.26-2.47A8.968,8.968,0,0,0,26,5.22V14h7A8.837,8.837,0,0,0,31.64,9.26Z" style="fill:#ff9811"/><path d="M16.36,9.26A8.837,8.837,0,0,0,15,14h7V5.22a8.968,8.968,0,0,0-3.38,1.57A8.589,8.589,0,0,0,16.36,9.26Z" style="fill:#ff9811"/><path d="M28,24H26a2,2,0,0,1-4,0H20a4,4,0,0,0,8,0Z"/><rect x="19" y="20" width="2" height="2"/><rect x="27" y="20" width="2" height="2"/><path d="M58.89,48.55l-2-4A.988.988,0,0,0,56,44H50V41a1,1,0,0,0-1-1H42.81a7.065,7.065,0,0,0-4.95-5.17L29,32.25v-1.6A10.023,10.023,0,0,0,34,22V18.82a2.986,2.986,0,0,0-.04-5.65A9.9,9.9,0,0,0,27,4.46V4a2.006,2.006,0,0,0-2-2H23a2.006,2.006,0,0,0-2,2v.46a9.9,9.9,0,0,0-6.96,8.71A2.986,2.986,0,0,0,14,18.82V22a10.023,10.023,0,0,0,5,8.65v1.6l-8.85,2.58A7.021,7.021,0,0,0,5,41.58V61a1,1,0,0,0,1,1H58a1,1,0,0,0,1-1V49A1,1,0,0,0,58.89,48.55ZM48,42v2H40V42ZM31,34.91v1.26a3.113,3.113,0,0,0-2,0V34.33ZM27,6.58A8.108,8.108,0,0,1,31.93,13H27ZM23,4h2v9H23ZM21,6.58V13H16.07A8.108,8.108,0,0,1,21,6.58ZM14,16a1,1,0,0,1,1-1H33a1,1,0,0,1,0,2H15A1,1,0,0,1,14,16Zm2,6V19H32v3a8,8,0,0,1-16,0Zm11,9.54V35.5l-3,2.25L21,35.5V31.54a10.013,10.013,0,0,0,6,0ZM17,34.91l2-.58v1.84a3.113,3.113,0,0,0-2,0Zm8.11,13.64A1,1,0,0,0,25,49V60H14V45H12V60H7V41.58a5.035,5.035,0,0,1,3.7-4.83L15,35.5V39a1,1,0,0,0,2,0,1,1,0,0,1,2,0,1,1,0,0,0,2,0V38l2.4,1.8a1,1,0,0,0,1.2,0L27,38v1a1,1,0,0,0,2,0,1,1,0,0,1,2,0,1,1,0,0,0,2,0V35.5l4.31,1.25A5,5,0,0,1,40.73,40H39a1,1,0,0,0-1,1v3H28a.988.988,0,0,0-.89.55ZM37,60H27V49.24L28.62,46h6.76L37,49.24Zm20,0H39V53h6a3,3,0,0,0,6,0h6ZM47,53V51a1,1,0,0,1,2,0v2a1,1,0,0,1-2,0Zm10-2H51a3,3,0,0,0-6,0H39V49a1,1,0,0,0-.11-.45L37.62,46H55.38L57,49.24Z"/></g></svg>