<svg xmlns="http://www.w3.org/2000/svg" viewBox="0 0 64 64"><g id="Engineer-Manufacturing-Hand-Construction-Worker"><path d="M55,31.65V22a3,3,0,0,1,6,0V46l-4,5v2H45V45.05L46.18,43,49,38.12l2.9-5.02a1.3,1.3,0,0,1,.1-.15,3.032,3.032,0,0,1,2.5-1.35A2.071,2.071,0,0,1,55,31.65Z" style="fill:#ffc477"/><polygon points="59 53 59 61 43 61 43 53 45 53 57 53 59 53" style="fill:#1e81ce"/><polygon points="21 53 21 61 5 61 5 53 7 53 19 53 21 53" style="fill:#1e81ce"/><path d="M9,31.65a2.071,2.071,0,0,1,.5-.05A3.032,3.032,0,0,1,12,32.95a1.3,1.3,0,0,1,.1.15L15,38.12,17.82,43,19,45.05V53H7V51L3,46V22a3,3,0,0,1,6,0Z" style="fill:#ffc477"/><path d="M44,36.9V39H35l-1.82-6.18L34,32l3,1,.7-2.8,2.74,1.22A6,6,0,0,1,44,36.9Z" style="fill:#3d9ae2"/><path d="M40.41,11.59A1.955,1.955,0,0,1,41,13a2.006,2.006,0,0,1-2,2H25a2.015,2.015,0,0,1-2-2,2.006,2.006,0,0,1,2-2H39A1.955,1.955,0,0,1,40.41,11.59Z" style="fill:#f7910c"/><path d="M39,11H34V5.09A5.984,5.984,0,0,1,38.91,10,5.47,5.47,0,0,1,39,11Z" style="fill:#ff9811"/><polygon points="37.7 30.2 37 33 34 32 33 30 35 29 37.7 30.2" style="fill:#1e81ce"/><polygon points="33.18 32.82 35 39 29 39 30.82 32.82 32 34 33.18 32.82" style="fill:#ed1c24"/><path d="M34,5.09V11H30V4a1,1,0,0,1,1-1h2a1,1,0,0,1,1,1Z" style="fill:#ffa733"/><polygon points="33 30 34 32 33.18 32.82 32 34 30.82 32.82 30 32 31 30 33 30" style="fill:#ed1c24"/><polygon points="31 30 30 32 27 33 26.3 30.2 29 29 31 30" style="fill:#1e81ce"/><path d="M30.82,32.82,29,39H20V36.9a6,6,0,0,1,3.56-5.48L26.3,30.2,27,33l3-1Z" style="fill:#3d9ae2"/><path d="M30,5.09V11H25a5.47,5.47,0,0,1,.09-1A5.992,5.992,0,0,1,30,5.09Z" style="fill:#ff9811"/><polygon points="35 26 35 29 33 30 31 30 29 29 29 26 35 26" style="fill:#ffc477"/><path d="M26,17v4H24a2,2,0,0,1,0-4Z" style="fill:#ffb655"/><path d="M42,19a2.006,2.006,0,0,1-2,2H38V17h2A2.006,2.006,0,0,1,42,19Z" style="fill:#ffb655"/><path d="M35,26v2.32a6.958,6.958,0,0,1-6,0V26Z" style="fill:#ffb655"/><path d="M39,17v3a5.474,5.474,0,0,1-.08,1A6.952,6.952,0,0,1,35,26.32,6.982,6.982,0,0,1,25.08,21,5.474,5.474,0,0,1,25,20V15H39Z" style="fill:#ffc477"/><rect x="25" y="15" width="14" height="2" style="fill:#ffb655"/><path d="M21,52H20V45.05a1.094,1.094,0,0,0-.13-.5L12.95,32.57a1.214,1.214,0,0,0-.14-.2,3.789,3.789,0,0,0-1.3-1.22A3.992,3.992,0,0,0,10,30.63V22a4,4,0,0,0-8,0V46a.977.977,0,0,0,.22.62L6,51.35V52H5a1,1,0,0,0-1,1v8a1,1,0,0,0,1,1H21a1,1,0,0,0,1-1V53A1,1,0,0,0,21,52ZM4,45.65V22a2.006,2.006,0,0,1,2-2,2.015,2.015,0,0,1,2,2v8.91a3.165,3.165,0,0,0-.5.22A4.018,4.018,0,0,0,6.03,36.6l5.72,9.9,1.74-1L7.77,35.6a2.012,2.012,0,0,1,.72-2.73,1.956,1.956,0,0,1,.65-.23.3.3,0,0,0,.1-.02,1.513,1.513,0,0,1,.26-.02,1.951,1.951,0,0,1,1.01.28,1.9,1.9,0,0,1,.65.61c.02.03.05.08.07.11L18,45.32V52H8V51a.977.977,0,0,0-.22-.62ZM20,60H6V54H20Z"/><rect x="16" y="56" width="2" height="2"/><path d="M58,18a3.995,3.995,0,0,0-4,4v8.63a4.05,4.05,0,0,0-2.81,1.74,1.882,1.882,0,0,0-.16.23l-6.9,11.95a1.094,1.094,0,0,0-.13.5V52H43a1,1,0,0,0-1,1v8a1,1,0,0,0,1,1H59a1,1,0,0,0,1-1V53a1,1,0,0,0-1-1H58v-.65l3.78-4.73A.977.977,0,0,0,62,46V22A4,4,0,0,0,58,18Zm0,42H44V54H58Zm2-14.35-3.78,4.73A.977.977,0,0,0,56,51v1H46V45.32l6.78-11.74.06-.09a2.038,2.038,0,0,1,1.66-.89,1.513,1.513,0,0,1,.26.02.355.355,0,0,0,.1.02,1.834,1.834,0,0,1,.64.23,2.006,2.006,0,0,1,.73,2.73l-5.72,9.9,1.74,1,5.72-9.9a4.012,4.012,0,0,0-1.48-5.47,3.518,3.518,0,0,0-.49-.22V22a2.015,2.015,0,0,1,2-2,2.006,2.006,0,0,1,2,2Z"/><rect x="46" y="56" width="2" height="2"/><path d="M50,9.414V17h2V9.414l1.293,1.293,1.414-1.414-3-3a1,1,0,0,0-1.414,0l-3,3,1.414,1.414Z"/><rect x="50" y="19" width="2" height="2"/><rect x="50" y="23" width="2" height="2"/><path d="M12,9.414V17h2V9.414l1.293,1.293,1.414-1.414-3-3a1,1,0,0,0-1.414,0l-3,3,1.414,1.414Z"/><rect x="12" y="19" width="2" height="2"/><rect x="12" y="23" width="2" height="2"/><rect x="28" y="18" width="2" height="2"/><rect x="34" y="18" width="2" height="2"/><path d="M40.85,30.51,36,28.35V26.92A8.06,8.06,0,0,0,39.74,22H40a3,3,0,0,0,0-6v-.18a2.983,2.983,0,0,0-.05-5.65,6.934,6.934,0,0,0-2-4.11A6.756,6.756,0,0,0,35,4.31V4a2.006,2.006,0,0,0-2-2H31a2.006,2.006,0,0,0-2,2v.3a6.96,6.96,0,0,0-4.95,5.87A2.983,2.983,0,0,0,24,15.82V16a3,3,0,0,0,0,6h.26A8.06,8.06,0,0,0,28,26.92v1.43l-4.85,2.16A7,7,0,0,0,19,36.9V39a1,1,0,0,0,1,1H44a1,1,0,0,0,1-1V36.9A7,7,0,0,0,40.85,30.51ZM24,20a1,1,0,0,1,0-2ZM36.53,30.77l-.24.94-1.58-.53-.37-.73.68-.34ZM41,19a1,1,0,0,1-1,1V18A1,1,0,0,1,41,19ZM35,6.43a5.106,5.106,0,0,1,1.54,1.04A4.913,4.913,0,0,1,37.9,10H35ZM31,4h2v6H31ZM29,6.43V10H26.1A4.961,4.961,0,0,1,29,6.43ZM24,13a1,1,0,0,1,1-1H39a1,1,0,0,1,0,2H25A1,1,0,0,1,24,13Zm2,7V16H38v4a6,6,0,0,1-12,0Zm2.98,10.11.68.34-.37.73-1.58.53-.24-.94ZM28.25,38H21V36.9a5,5,0,0,1,2.97-4.57l1.65-.73.41,1.64a1.017,1.017,0,0,0,.49.64A1,1,0,0,0,27,34a1.185,1.185,0,0,0,.32-.05l2.36-.79Zm2.09,0,.96-3.29a.99.99,0,0,0,1.4,0L33.66,38Zm.88-6.2.4-.8h.76l.4.8-.78.79ZM34,28.38,32.76,29H31.24L30,28.38v-.64a7.822,7.822,0,0,0,4,0ZM43,38H35.75l-1.43-4.84,2.36.79A1.185,1.185,0,0,0,37,34a1,1,0,0,0,.48-.12,1.017,1.017,0,0,0,.49-.64l.41-1.64,1.65.73A5,5,0,0,1,43,36.9Z"/></g></svg>