<svg xmlns="http://www.w3.org/2000/svg" viewBox="0 0 64 64"><g id="Engineer-Occupation-Avatar-Worker-Profession"><path d="M51.68,41.83a1.959,1.959,0,0,0,.26,2.12l4.1,5.02-7.07,7.07-5.02-4.1a2.024,2.024,0,0,0-1.27-.46,1.831,1.831,0,0,0-.85.2,21.931,21.931,0,0,1-2.87,1.19,1.972,1.972,0,0,0-1.32,1.68L37,61H27l-.64-6.45a1.972,1.972,0,0,0-1.32-1.68,21.931,21.931,0,0,1-2.87-1.19,1.831,1.831,0,0,0-.85-.2,2.024,2.024,0,0,0-1.27.46l-5.02,4.1L7.96,48.97l4.1-5.02a1.959,1.959,0,0,0,.26-2.12,21.931,21.931,0,0,1-1.19-2.87,1.972,1.972,0,0,0-1.68-1.32L3,37V27l6.45-.64a1.972,1.972,0,0,0,1.68-1.32,21.931,21.931,0,0,1,1.19-2.87,1.959,1.959,0,0,0-.26-2.12l-4.1-5.02,7.07-7.07,5.02,4.1a1.959,1.959,0,0,0,2.12.26,21.931,21.931,0,0,1,2.87-1.19,1.972,1.972,0,0,0,1.32-1.68L27,3H37l.64,6.45a1.972,1.972,0,0,0,1.32,1.68,21.931,21.931,0,0,1,2.87,1.19,1.959,1.959,0,0,0,2.12-.26l5.02-4.1,7.07,7.07-4.1,5.02a1.959,1.959,0,0,0-.26,2.12,21.931,21.931,0,0,1,1.19,2.87,1.972,1.972,0,0,0,1.68,1.32L61,27V37l-6.45.64a1.972,1.972,0,0,0-1.68,1.32A21.931,21.931,0,0,1,51.68,41.83Z" style="fill:#ee8700"/><circle cx="32" cy="32" r="15" style="fill:#ffd422"/><path d="M44,46.9V49H35l-1.82-6.18L34,42l3,1,.7-2.8,2.74,1.22A6,6,0,0,1,44,46.9Z" style="fill:#3d9ae2"/><path d="M40.41,21.59A1.955,1.955,0,0,1,41,23a2.006,2.006,0,0,1-2,2H25a2.015,2.015,0,0,1-2-2,2.006,2.006,0,0,1,2-2H39A1.955,1.955,0,0,1,40.41,21.59Z" style="fill:#f7910c"/><path d="M39,21H34V15.09A5.984,5.984,0,0,1,38.91,20,5.47,5.47,0,0,1,39,21Z" style="fill:#ff9811"/><polygon points="37.7 40.2 37 43 34 42 33 40 35 39 37.7 40.2" style="fill:#1e81ce"/><polygon points="33.18 42.82 35 49 29 49 30.82 42.82 32 44 33.18 42.82" style="fill:#ed1c24"/><path d="M34,15.09V21H30V14a1,1,0,0,1,1-1h2a1,1,0,0,1,1,1Z" style="fill:#ffa733"/><polygon points="33 40 34 42 33.18 42.82 32 44 30.82 42.82 30 42 31 40 33 40" style="fill:#ed1c24"/><polygon points="31 40 30 42 27 43 26.3 40.2 29 39 31 40" style="fill:#1e81ce"/><path d="M30.82,42.82,29,49H20V46.9a6,6,0,0,1,3.56-5.48L26.3,40.2,27,43l3-1Z" style="fill:#3d9ae2"/><path d="M30,15.09V21H25a5.47,5.47,0,0,1,.09-1A5.992,5.992,0,0,1,30,15.09Z" style="fill:#ff9811"/><polygon points="35 36 35 39 33 40 31 40 29 39 29 36 35 36" style="fill:#ffc477"/><path d="M26,27v4H24a2,2,0,0,1,0-4Z" style="fill:#ffb655"/><path d="M42,29a2.006,2.006,0,0,1-2,2H38V27h2A2.006,2.006,0,0,1,42,29Z" style="fill:#ffb655"/><path d="M35,36v2.32a6.958,6.958,0,0,1-6,0V36Z" style="fill:#ffb655"/><path d="M39,27v3a5.474,5.474,0,0,1-.08,1A6.952,6.952,0,0,1,35,36.32,6.982,6.982,0,0,1,25.08,31,5.474,5.474,0,0,1,25,30V25H39Z" style="fill:#ffc477"/><rect x="25" y="25" width="14" height="2" style="fill:#ffb655"/><rect x="28" y="28" width="2" height="2"/><rect x="34" y="28" width="2" height="2"/><path d="M61.1,26l-6.45-.64a.957.957,0,0,1-.83-.64,23.551,23.551,0,0,0-1.24-2.99.964.964,0,0,1,.13-1.05l4.11-5.02a1.01,1.01,0,0,0-.07-1.34L49.68,7.25a1.01,1.01,0,0,0-1.34-.07l-5.02,4.11a.964.964,0,0,1-1.05.13,22.96,22.96,0,0,0-2.99-1.24.957.957,0,0,1-.64-.83L38,2.9A1.015,1.015,0,0,0,37,2H27a1.015,1.015,0,0,0-1,.9l-.64,6.45a.957.957,0,0,1-.64.83,22.96,22.96,0,0,0-2.99,1.24.964.964,0,0,1-1.05-.13L15.66,7.18a1.009,1.009,0,0,0-1.34.07L7.25,14.32a1.009,1.009,0,0,0-.07,1.34l4.11,5.02a.964.964,0,0,1,.13,1.05,22.96,22.96,0,0,0-1.24,2.99.957.957,0,0,1-.83.64L2.9,26A1.015,1.015,0,0,0,2,27V37a1.015,1.015,0,0,0,.9,1l6.45.64a.957.957,0,0,1,.83.64,22.96,22.96,0,0,0,1.24,2.99.964.964,0,0,1-.13,1.05L7.18,48.34a1.009,1.009,0,0,0,.07,1.34l7.07,7.07a1.009,1.009,0,0,0,1.34.07l5.02-4.11a.964.964,0,0,1,1.05-.13,22.96,22.96,0,0,0,2.99,1.24.957.957,0,0,1,.64.83L26,61.1a1.015,1.015,0,0,0,1,.9H37a1.015,1.015,0,0,0,1-.9l.64-6.45a.957.957,0,0,1,.64-.83,22.96,22.96,0,0,0,2.99-1.24.964.964,0,0,1,1.05.13l5.02,4.11a1.01,1.01,0,0,0,1.34-.07l7.07-7.07a1.01,1.01,0,0,0,.07-1.34l-4.11-5.02a.964.964,0,0,1-.13-1.05,23.551,23.551,0,0,0,1.24-2.99.957.957,0,0,1,.83-.64L61.1,38a1.015,1.015,0,0,0,.9-1V27A1.015,1.015,0,0,0,61.1,26ZM60,36.1l-5.55.55a2.978,2.978,0,0,0-2.53,2,21.514,21.514,0,0,1-1.13,2.73,2.987,2.987,0,0,0,.37,3.21L54.7,48.9l-5.8,5.79-4.31-3.53a2.987,2.987,0,0,0-3.21-.37,20.925,20.925,0,0,1-2.73,1.13,2.978,2.978,0,0,0-2,2.53L36.09,60H27.9l-.55-5.55a2.978,2.978,0,0,0-2-2.53,20.925,20.925,0,0,1-2.73-1.13,2.99,2.99,0,0,0-3.21.37L15.1,54.69,9.31,48.9l3.53-4.31a2.987,2.987,0,0,0,.37-3.21,20.925,20.925,0,0,1-1.13-2.73,2.978,2.978,0,0,0-2.53-2L4,36.1V27.9l5.55-.55a2.978,2.978,0,0,0,2.53-2,20.925,20.925,0,0,1,1.13-2.73,2.987,2.987,0,0,0-.37-3.21L9.31,15.1,15.1,9.31l4.31,3.53a2.99,2.99,0,0,0,3.21.37,20.925,20.925,0,0,1,2.73-1.13,2.978,2.978,0,0,0,2-2.53L27.9,4h8.19l.56,5.55a2.978,2.978,0,0,0,2,2.53,20.925,20.925,0,0,1,2.73,1.13,2.985,2.985,0,0,0,3.21-.37L48.9,9.31l5.8,5.79-3.54,4.31a2.99,2.99,0,0,0-.37,3.21,21.514,21.514,0,0,1,1.13,2.73,2.978,2.978,0,0,0,2.53,2L60,27.9Z"/><path d="M40.85,40.51,36,38.35V36.92A8.06,8.06,0,0,0,39.74,32H40a3,3,0,0,0,0-6v-.18a2.983,2.983,0,0,0-.05-5.65,6.934,6.934,0,0,0-2-4.11A6.756,6.756,0,0,0,35,14.31V14a2.006,2.006,0,0,0-2-2H31a2.006,2.006,0,0,0-2,2v.3a6.96,6.96,0,0,0-4.95,5.87A2.983,2.983,0,0,0,24,25.82V26a3,3,0,0,0,0,6h.26A8.06,8.06,0,0,0,28,36.92v1.43l-4.85,2.16A7,7,0,0,0,19,46.9V49a1,1,0,0,0,1,1H44a1,1,0,0,0,1-1V46.9A7,7,0,0,0,40.85,40.51ZM24,30a1,1,0,0,1,0-2ZM36.53,40.77l-.24.94-1.58-.53-.37-.73.69-.34ZM41,29a1,1,0,0,1-1,1V28A1,1,0,0,1,41,29ZM35,16.43a5.106,5.106,0,0,1,1.54,1.04A4.913,4.913,0,0,1,37.9,20H35ZM31,14h2v6H31Zm-2,2.43V20H26.1A4.961,4.961,0,0,1,29,16.43ZM24,23a1,1,0,0,1,1-1H39a1,1,0,0,1,0,2H25A1,1,0,0,1,24,23Zm2,7V26H38v4a6,6,0,0,1-12,0Zm2.97,10.11.69.34-.37.73-1.58.53-.24-.94ZM28.25,48H21V46.9a5,5,0,0,1,2.97-4.57l1.65-.73.41,1.64a1.017,1.017,0,0,0,.49.64A1,1,0,0,0,27,44a1.185,1.185,0,0,0,.32-.05l2.36-.79Zm2.09,0,.96-3.29a.99.99,0,0,0,1.4,0L33.66,48Zm.88-6.2.4-.8h.76l.4.8-.78.79ZM34,38.38,32.76,39H31.24L30,38.38v-.64a7.822,7.822,0,0,0,4,0ZM43,48H35.75l-1.43-4.84,2.36.79A1.185,1.185,0,0,0,37,44a1,1,0,0,0,.48-.12,1.017,1.017,0,0,0,.49-.64l.41-1.64,1.65.73A5,5,0,0,1,43,46.9Z"/><path d="M44.8,22.4l-1.6,1.2a14.006,14.006,0,0,1,.645,15.867l1.691,1.068A16.008,16.008,0,0,0,44.8,22.4Z"/><path d="M18,32a13.883,13.883,0,0,1,2.8-8.4l-1.6-1.2a16.009,16.009,0,0,0-.738,18.136l1.692-1.068A13.958,13.958,0,0,1,18,32Z"/><rect x="31" y="8" width="2" height="2"/><rect x="14.737" y="14.736" width="2" height="2" transform="translate(-6.518 15.737) rotate(-45)"/><rect x="8" y="31" width="2" height="2"/><rect x="14.736" y="47.264" width="2" height="2" transform="translate(-29.518 25.263) rotate(-45)"/><rect x="31" y="54" width="2" height="2"/><rect x="47.264" y="47.263" width="2" height="2" transform="translate(-19.991 48.252) rotate(-44.99)"/><rect x="54" y="31" width="2" height="2"/><rect x="47.264" y="14.737" width="2" height="2" transform="translate(3.009 38.737) rotate(-45)"/></g></svg>