<svg xmlns="http://www.w3.org/2000/svg" viewBox="0 0 64 64"><g id="Engineer-Team-Idea-Creative-Brainstorm"><path d="M39,14a6.975,6.975,0,0,1-2.16,5.05A5.936,5.936,0,0,0,35,23.36V24H29v-.64a6.156,6.156,0,0,0-1.91-4.38A6.955,6.955,0,0,1,25,13.74,7.1,7.1,0,0,1,31.88,7,7,7,0,0,1,39,14Z" style="fill:#ffd422"/><path d="M35,24v3a1,1,0,0,1-1,1H30a1,1,0,0,1-1-1V24Z" style="fill:#ee8700"/><path d="M61,58.9V61H52l-1.82-6.18L51,54l3,1,.7-2.8,2.74,1.22A6,6,0,0,1,61,58.9Z" style="fill:#3d9ae2"/><path d="M57.41,33.59A1.955,1.955,0,0,1,58,35a2.006,2.006,0,0,1-2,2H42a2.015,2.015,0,0,1-2-2,2.006,2.006,0,0,1,2-2H56A1.955,1.955,0,0,1,57.41,33.59Z" style="fill:#f7910c"/><path d="M56,33H51V27.09A5.984,5.984,0,0,1,55.91,32,5.47,5.47,0,0,1,56,33Z" style="fill:#ff9811"/><polygon points="54.7 52.2 54 55 51 54 50 52 52 51 54.7 52.2" style="fill:#1e81ce"/><polygon points="50.18 54.82 52 61 46 61 47.82 54.82 49 56 50.18 54.82" style="fill:#ed1c24"/><path d="M51,27.09V33H47V26a1,1,0,0,1,1-1h2a1,1,0,0,1,1,1Z" style="fill:#ffa733"/><polygon points="50 52 51 54 50.18 54.82 49 56 47.82 54.82 47 54 48 52 50 52" style="fill:#ed1c24"/><polygon points="48 52 47 54 44 55 43.3 52.2 46 51 48 52" style="fill:#1e81ce"/><path d="M47.82,54.82,46,61H37V58.9a6,6,0,0,1,3.56-5.48L43.3,52.2,44,55l3-1Z" style="fill:#3d9ae2"/><path d="M47,27.09V33H42a5.47,5.47,0,0,1,.09-1A5.992,5.992,0,0,1,47,27.09Z" style="fill:#ff9811"/><polygon points="52 48 52 51 50 52 48 52 46 51 46 48 52 48" style="fill:#ffc477"/><path d="M43,39v4H41a2,2,0,0,1,0-4Z" style="fill:#ffb655"/><path d="M59,41a2.006,2.006,0,0,1-2,2H55V39h2A2.006,2.006,0,0,1,59,41Z" style="fill:#ffb655"/><path d="M52,48v2.32a6.958,6.958,0,0,1-6,0V48Z" style="fill:#ffb655"/><path d="M56,39v3a5.474,5.474,0,0,1-.08,1A6.952,6.952,0,0,1,52,48.32,6.982,6.982,0,0,1,42.08,43,5.474,5.474,0,0,1,42,42V37H56Z" style="fill:#ffc477"/><rect x="42" y="37" width="14" height="2" style="fill:#ffb655"/><path d="M27,58.9V61H18l-1.82-6.18L17,54l3,1,.7-2.8,2.74,1.22A6,6,0,0,1,27,58.9Z" style="fill:#3d9ae2"/><path d="M23.41,33.59A1.955,1.955,0,0,1,24,35a2.006,2.006,0,0,1-2,2H8a2.015,2.015,0,0,1-2-2,2.006,2.006,0,0,1,2-2H22A1.955,1.955,0,0,1,23.41,33.59Z" style="fill:#f7910c"/><path d="M22,33H17V27.09A5.984,5.984,0,0,1,21.91,32,5.47,5.47,0,0,1,22,33Z" style="fill:#ff9811"/><polygon points="20.7 52.2 20 55 17 54 16 52 18 51 20.7 52.2" style="fill:#1e81ce"/><polygon points="16.18 54.82 18 61 12 61 13.82 54.82 15 56 16.18 54.82" style="fill:#ed1c24"/><path d="M17,27.09V33H13V26a1,1,0,0,1,1-1h2a1,1,0,0,1,1,1Z" style="fill:#ffa733"/><polygon points="16 52 17 54 16.18 54.82 15 56 13.82 54.82 13 54 14 52 16 52" style="fill:#ed1c24"/><polygon points="14 52 13 54 10 55 9.3 52.2 12 51 14 52" style="fill:#1e81ce"/><path d="M13.82,54.82,12,61H3V58.9a6,6,0,0,1,3.56-5.48L9.3,52.2,10,55l3-1Z" style="fill:#3d9ae2"/><path d="M13,27.09V33H8a5.47,5.47,0,0,1,.09-1A5.992,5.992,0,0,1,13,27.09Z" style="fill:#ff9811"/><polygon points="18 48 18 51 16 52 14 52 12 51 12 48 18 48" style="fill:#ffc477"/><path d="M9,39v4H7a2,2,0,0,1,0-4Z" style="fill:#ffb655"/><path d="M25,41a2.006,2.006,0,0,1-2,2H21V39h2A2.006,2.006,0,0,1,25,41Z" style="fill:#ffb655"/><path d="M18,48v2.32a6.958,6.958,0,0,1-6,0V48Z" style="fill:#ffb655"/><path d="M22,39v3a5.474,5.474,0,0,1-.08,1A6.952,6.952,0,0,1,18,48.32,6.982,6.982,0,0,1,8.08,43,5.474,5.474,0,0,1,8,42V37H22Z" style="fill:#ffc477"/><rect x="8" y="37" width="14" height="2" style="fill:#ffb655"/><rect x="11" y="40" width="2" height="2"/><rect x="17" y="40" width="2" height="2"/><path d="M23.85,52.51,19,50.35V48.92A8.06,8.06,0,0,0,22.74,44H23a3,3,0,0,0,0-6v-.18a2.983,2.983,0,0,0-.05-5.65,6.934,6.934,0,0,0-2-4.11A6.756,6.756,0,0,0,18,26.31V26a2.006,2.006,0,0,0-2-2H14a2.006,2.006,0,0,0-2,2v.3a6.96,6.96,0,0,0-4.95,5.87A2.983,2.983,0,0,0,7,37.82V38a3,3,0,0,0,0,6h.26A8.06,8.06,0,0,0,11,48.92v1.43L6.15,52.51A7,7,0,0,0,2,58.9V61a1,1,0,0,0,1,1H27a1,1,0,0,0,1-1V58.9A7,7,0,0,0,23.85,52.51ZM7,42a1,1,0,0,1,0-2ZM19.53,52.77l-.24.94-1.58-.53-.37-.73.69-.34ZM24,41a1,1,0,0,1-1,1V40A1,1,0,0,1,24,41ZM18,28.43A4.946,4.946,0,0,1,20.9,32H18ZM14,26h2v6H14Zm-2,2.43V32H9.1A4.961,4.961,0,0,1,12,28.43ZM7,35a1,1,0,0,1,1-1H22a1,1,0,0,1,0,2H8A1,1,0,0,1,7,35Zm2,7V38H21v4A6,6,0,0,1,9,42Zm2.97,10.11.69.34-.37.73-1.58.53-.24-.94ZM11.25,60H4V58.9a5,5,0,0,1,2.97-4.57l1.65-.73.41,1.64a1.017,1.017,0,0,0,.49.64A1,1,0,0,0,10,56a1.185,1.185,0,0,0,.32-.05l2.36-.79Zm2.09,0,.96-3.29a.99.99,0,0,0,1.4,0L16.66,60Zm.88-6.2.4-.8h.76l.4.8-.78.79ZM17,50.38,15.76,51H14.24L13,50.38v-.64a7.822,7.822,0,0,0,4,0ZM26,60H18.75l-1.43-4.84,2.36.79A1.185,1.185,0,0,0,20,56a1,1,0,0,0,.48-.12,1.017,1.017,0,0,0,.49-.64l.41-1.64,1.65.73A5,5,0,0,1,26,58.9Z"/><rect x="45" y="40" width="2" height="2"/><rect x="51" y="40" width="2" height="2"/><path d="M57.85,52.51,53,50.35V48.92A8.06,8.06,0,0,0,56.74,44H57a3,3,0,0,0,0-6v-.18a2.983,2.983,0,0,0-.05-5.65,6.934,6.934,0,0,0-2-4.11A6.756,6.756,0,0,0,52,26.31V26a2.006,2.006,0,0,0-2-2H48a2.006,2.006,0,0,0-2,2v.3a6.96,6.96,0,0,0-4.95,5.87A2.983,2.983,0,0,0,41,37.82V38a3,3,0,0,0,0,6h.26A8.06,8.06,0,0,0,45,48.92v1.43l-4.85,2.16A7,7,0,0,0,36,58.9V61a1,1,0,0,0,1,1H61a1,1,0,0,0,1-1V58.9A7,7,0,0,0,57.85,52.51ZM41,42a1,1,0,0,1,0-2ZM53.53,52.77l-.24.94-1.58-.53-.37-.73.69-.34ZM58,41a1,1,0,0,1-1,1V40A1,1,0,0,1,58,41ZM52,28.43A4.946,4.946,0,0,1,54.9,32H52ZM48,26h2v6H48Zm-2,2.43V32H43.1A4.961,4.961,0,0,1,46,28.43ZM41,35a1,1,0,0,1,1-1H56a1,1,0,0,1,0,2H42A1,1,0,0,1,41,35Zm2,7V38H55v4a6,6,0,0,1-12,0Zm2.97,10.11.69.34-.37.73-1.58.53-.24-.94ZM45.25,60H38V58.9a5,5,0,0,1,2.97-4.57l1.65-.73.41,1.64a1.017,1.017,0,0,0,.49.64A1,1,0,0,0,44,56a1.185,1.185,0,0,0,.32-.05l2.36-.79Zm2.09,0,.96-3.29a.99.99,0,0,0,1.4,0L50.66,60Zm.88-6.2.4-.8h.76l.4.8-.78.79ZM51,50.38,49.76,51H48.24L47,50.38v-.64a7.822,7.822,0,0,0,4,0ZM60,60H52.75l-1.43-4.84,2.36.79A1.185,1.185,0,0,0,54,56a1,1,0,0,0,.48-.12,1.017,1.017,0,0,0,.49-.64l.41-1.64,1.65.73A5,5,0,0,1,60,58.9Z"/><path d="M36,25h2V23H36.037a4.981,4.981,0,0,1,1.5-3.231A7.99,7.99,0,0,0,37.61,8.3,8,8,0,0,0,31.865,6a8.093,8.093,0,0,0-7.86,7.7,8.011,8.011,0,0,0,2.387,5.99A5.17,5.17,0,0,1,27.961,23H26v2h2v2a2,2,0,0,0,2,2h4a2,2,0,0,0,2-2Zm-8.207-6.731A5.927,5.927,0,0,1,26,13.778,6.069,6.069,0,0,1,31.9,8,5.993,5.993,0,0,1,36.15,18.324,7.011,7.011,0,0,0,34.01,23H29.99A7.162,7.162,0,0,0,27.793,18.269ZM30,27V25h4v2Z"/><path d="M35,14H33a1,1,0,0,1-2,0H29a3,3,0,0,0,2,2.816V21h2V16.816A3,3,0,0,0,35,14Z"/><rect x="31" y="2" width="2" height="2"/><rect x="25.5" y="3.474" width="2" height="2" transform="translate(1.314 13.85) rotate(-30.002)"/><rect x="21.474" y="7.5" width="2" height="2" transform="translate(3.875 23.712) rotate(-59.998)"/><rect x="20" y="13" width="2" height="2"/><rect x="21.474" y="18.5" width="2" height="2" transform="translate(-6.739 13.847) rotate(-29.995)"/><rect x="40.526" y="18.5" width="2" height="2" transform="translate(3.875 45.712) rotate(-59.998)"/><rect x="42" y="13" width="2" height="2"/><rect x="40.526" y="7.5" width="2" height="2" transform="translate(1.312 21.898) rotate(-29.995)"/><rect x="36.5" y="3.474" width="2" height="2" transform="translate(14.878 34.715) rotate(-60.005)"/><path d="M49.293,17.707l1.414-1.414-1.271-1.271A7,7,0,0,1,56,22h2a9,9,0,0,0-8.606-8.98l1.313-1.313-1.414-1.414-3,3a1,1,0,0,0,0,1.414Z"/><rect x="56" y="24" width="2" height="2"/><path d="M14.564,15.022l-1.271,1.271,1.414,1.414,3-3a1,1,0,0,0,0-1.414l-3-3-1.414,1.414,1.313,1.313A9,9,0,0,0,6,22H8A7,7,0,0,1,14.564,15.022Z"/><rect x="6" y="24" width="2" height="2"/></g></svg>