<svg xmlns="http://www.w3.org/2000/svg" viewBox="0 0 64 64"><g id="Engineer-Occupation-Avatar-Worker-Man"><path d="M43,49.32V61H24l2-4L24.1,40.9,25,40l3,2,2.79-5.58,4.42,1.66a11.675,11.675,0,0,1,2.81,1.51A11.984,11.984,0,0,1,43,49.32Z" style="fill:#3d9ae2"/><path d="M57.68,50.47a9.8,9.8,0,0,1-1.09,2.62l2.02,2.69-2.83,2.83-2.69-2.02a9.8,9.8,0,0,1-2.62,1.09L50,61H46l-.47-3.32A9.427,9.427,0,0,1,43,56.64a.405.405,0,0,1-.09-.05l-2.69,2.02-2.83-2.83,2.02-2.69a9.8,9.8,0,0,1-1.09-2.62L35,50V46l3.32-.47a9.8,9.8,0,0,1,1.09-2.62l-2.02-2.69,2.83-2.83,2.69,2.02a9.8,9.8,0,0,1,2.62-1.09L46,35h4l.47,3.32a9.8,9.8,0,0,1,2.62,1.09l2.69-2.02,2.83,2.83-2.02,2.69a9.8,9.8,0,0,1,1.09,2.62L61,46v4Z" style="fill:#ff9811"/><polygon points="19 32 19 32.16 19 33 19 35 22 37 24 37 27 35 27 33 27 32.16 27 32 19 32" style="fill:#ffc477"/><path d="M56.41,27.59A1.955,1.955,0,0,1,57,29a2.006,2.006,0,0,1-2,2H41a2.015,2.015,0,0,1-2-2,2.006,2.006,0,0,1,2-2H55A1.955,1.955,0,0,1,56.41,27.59Z" style="fill:#ff9811"/><path d="M55,27H50V21.09a5.832,5.832,0,0,1,3.24,1.67A5.944,5.944,0,0,1,55,27Z" style="fill:#ff9811"/><circle cx="48" cy="48" r="5" style="fill:#ffd422"/><path d="M50,21.09V27H46V20a1,1,0,0,1,1-1h2a1,1,0,0,1,1,1Z" style="fill:#ffa733"/><path d="M46,21.09V27H41A5.99,5.99,0,0,1,46,21.09Z" style="fill:#ff9811"/><path d="M35,17a3,3,0,0,1,0,6,2.965,2.965,0,0,1-2-.77V17.77A2.965,2.965,0,0,1,35,17Z" style="fill:#ffb655"/><path d="M35,9v5l-2,2H31.47a4.02,4.02,0,0,1-3.58-2.21L27,12l-2.26,1.81A9.993,9.993,0,0,1,18.49,16H13L8,13l3-4L7,3H29A6,6,0,0,1,35,9Z" style="fill:#57565c"/><path d="M33,22.23V23a9.991,9.991,0,0,1-6,9.16A10,10,0,0,1,13,23V16h5.49a9.993,9.993,0,0,0,6.25-2.19L27,12l.89,1.79A4.02,4.02,0,0,0,31.47,16H33v6.23Z" style="fill:#ffc477"/><polygon points="30.79 36.42 28 42 25 40 24 37 27 35 30.79 36.42" style="fill:#1e81ce"/><polygon points="24.1 40.9 26 57 24 61 22 61 20 57 21.9 40.9 23 42 24.1 40.9" style="fill:#ed1c24"/><polygon points="24 37 25 40 24.1 40.9 23 42 21.9 40.9 21 40 22 37 24 37" style="fill:#ed1c24"/><polygon points="22 37 21 40 18 42 15.21 36.42 19 35 22 37" style="fill:#1e81ce"/><path d="M11,61H3V49.32a12,12,0,0,1,7.79-11.24l4.42-1.66L18,42l3-2,.9.9L20,57l2,4Z" style="fill:#3d9ae2"/><path d="M13,17.77v4.46A2.965,2.965,0,0,1,11,23a3,3,0,0,1,0-6A2.965,2.965,0,0,1,13,17.77Z" style="fill:#ffb655"/><path d="M27,32.16v2a9.944,9.944,0,0,1-8,0v-2a9.944,9.944,0,0,0,8,0Z" style="fill:#ffb655"/><rect x="18" y="19" width="2" height="2"/><rect x="26" y="19" width="2" height="2"/><path d="M28,24H26a3,3,0,0,1-6,0H18a5,5,0,0,0,10,0Z"/><path d="M61.14,45.01l-2.68-.38a10.291,10.291,0,0,0-.68-1.64l1.63-2.17a.994.994,0,0,0-.1-1.31l-2.82-2.82a.994.994,0,0,0-1.31-.1l-2.17,1.63a10.291,10.291,0,0,0-1.64-.68l-.38-2.68A1,1,0,0,0,50,34H46a1,1,0,0,0-.99.86l-.38,2.68a10.291,10.291,0,0,0-1.64.68l-2.17-1.63a.994.994,0,0,0-1.31.1l-1.63,1.63a13.318,13.318,0,0,0-2.32-1.18L28,34.31V32.79a11.023,11.023,0,0,0,5.96-8.95A3.642,3.642,0,0,0,35,24a4,4,0,0,0,0-8,3.573,3.573,0,0,0-.65.06l1.36-1.35A1.033,1.033,0,0,0,36,14V9a7.008,7.008,0,0,0-7-7H7a.984.984,0,0,0-.88.53.963.963,0,0,0,.05,1.02L9.78,8.97,7.2,12.4a1,1,0,0,0,.29,1.46l3.58,2.15c-.03,0-.05-.01-.07-.01a4,4,0,0,0,0,8,3.642,3.642,0,0,0,1.04-.16A11.023,11.023,0,0,0,18,32.79v1.52l-7.56,2.83A13.075,13.075,0,0,0,2,49.32V61a1,1,0,0,0,1,1H43a1,1,0,0,0,1-1V58.23c.21.08.41.16.63.23l.38,2.68A1,1,0,0,0,46,62h4a1,1,0,0,0,.99-.86l.38-2.68a10.291,10.291,0,0,0,1.64-.68l2.17,1.63a1.006,1.006,0,0,0,1.31-.1l2.82-2.82a.994.994,0,0,0,.1-1.31l-1.63-2.17a10.291,10.291,0,0,0,.68-1.64l2.68-.38A1,1,0,0,0,62,50V46A1,1,0,0,0,61.14,45.01ZM29.4,36.97l-1.79,3.57-1.77-1.18-.65-1.95,1.94-1.29ZM23.7,36H22.3L20,34.46v-.89a10.68,10.68,0,0,0,6,0v.89Zm.16,3.73-.86.86-.86-.86L22.72,38h.56ZM35,18a2,2,0,1,1-1,3.73V18.27A2.023,2.023,0,0,1,35,18ZM12,21.73a2,2,0,1,1,0-3.46ZM9.47,12.71,11.8,9.6a.992.992,0,0,0,.03-1.15L8.87,4H29a5,5,0,0,1,5,5v4.59L32.59,15H31.47a2.988,2.988,0,0,1-2.68-1.66l-.9-1.79a.994.994,0,0,0-.68-.53A1.492,1.492,0,0,0,27,11a.977.977,0,0,0-.62.22l-2.27,1.81A9.027,9.027,0,0,1,18.49,15H13.28ZM14,23V17h4.49a11.051,11.051,0,0,0,6.87-2.41l1.3-1.04.34.69A4.979,4.979,0,0,0,31.47,17H32v6a9,9,0,0,1-18,0Zm4.87,13.12,1.94,1.29-.65,1.95-1.77,1.18L16.6,36.97Zm.24,21.33L20.38,60H12V45H10V60H4V49.32a11.051,11.051,0,0,1,7.14-10.3l3.58-1.35,2.39,4.78a1.024,1.024,0,0,0,.63.52A1.153,1.153,0,0,0,18,43a.967.967,0,0,0,.55-.17l2.3-1.52L19.01,56.88A.94.94,0,0,0,19.11,57.45ZM23.38,60h-.76l-1.59-3.18,1.64-13.88a.938.938,0,0,0,.66,0l1.64,13.88ZM34,46V60H25.62l1.27-2.55a.94.94,0,0,0,.1-.57L25.15,41.31l2.3,1.52A.967.967,0,0,0,28,43a1.153,1.153,0,0,0,.26-.03,1.024,1.024,0,0,0,.63-.52l2.39-4.78,3.58,1.35a10.611,10.611,0,0,1,1.63.78,1.013,1.013,0,0,0,.1,1.02l1.63,2.17a10.291,10.291,0,0,0-.68,1.64l-2.68.38A1,1,0,0,0,34,46Zm8,14H36V51.15l1.54.22a10.291,10.291,0,0,0,.68,1.64l-1.63,2.17a.994.994,0,0,0,.1,1.31l2.82,2.82a1.006,1.006,0,0,0,1.31.1L42,58.52ZM60,49.13l-2.46.35a1.019,1.019,0,0,0-.83.75,8.664,8.664,0,0,1-.98,2.35,1.017,1.017,0,0,0,.06,1.11l1.5,1.99-1.61,1.61-1.99-1.5a1.017,1.017,0,0,0-1.11-.06,8.664,8.664,0,0,1-2.35.98,1.019,1.019,0,0,0-.75.83L49.13,60H46.87l-.35-2.46a1.019,1.019,0,0,0-.75-.83,8.664,8.664,0,0,1-2.35-.98,1.017,1.017,0,0,0-1.11.06l-1.99,1.5-1.61-1.61,1.5-1.99a1.017,1.017,0,0,0,.06-1.11,8.664,8.664,0,0,1-.98-2.35,1.019,1.019,0,0,0-.83-.75L36,49.13V46.87l2.46-.35a1.019,1.019,0,0,0,.83-.75,8.664,8.664,0,0,1,.98-2.35,1.017,1.017,0,0,0-.06-1.11l-1.5-1.99,1.61-1.61,1.99,1.5a1.017,1.017,0,0,0,1.11.06,8.664,8.664,0,0,1,2.35-.98,1.019,1.019,0,0,0,.75-.83L46.87,36h2.26l.35,2.46a1.019,1.019,0,0,0,.75.83,8.664,8.664,0,0,1,2.35.98,1.017,1.017,0,0,0,1.11-.06l1.99-1.5,1.61,1.61-1.5,1.99a1.017,1.017,0,0,0-.06,1.11,8.664,8.664,0,0,1,.98,2.35,1.019,1.019,0,0,0,.83.75l2.46.35Z"/><path d="M48,42a6,6,0,1,0,6,6A6.006,6.006,0,0,0,48,42Zm0,10a4,4,0,1,1,4-4A4,4,0,0,1,48,52Z"/><path d="M55.95,26.17a6.934,6.934,0,0,0-2-4.11A6.756,6.756,0,0,0,51,20.31V20a2.006,2.006,0,0,0-2-2H47a2.006,2.006,0,0,0-2,2v.3a6.96,6.96,0,0,0-4.95,5.87A2.991,2.991,0,0,0,41,32H55a2.991,2.991,0,0,0,.95-5.83ZM51,22.43A4.946,4.946,0,0,1,53.9,26H51ZM47,20h2v6H47Zm-2,2.43V26H42.1A4.961,4.961,0,0,1,45,22.43ZM55,30H41a1,1,0,0,1,0-2H55a1,1,0,0,1,0,2Z"/></g></svg>