<svg xmlns="http://www.w3.org/2000/svg" viewBox="0 0 64 64"><g id="Engineering-Construction-Plan-Organization-Team"><path d="M60.41,13.59A1.955,1.955,0,0,1,61,15a2.006,2.006,0,0,1-2,2H45a2.015,2.015,0,0,1-2-2,2.006,2.006,0,0,1,2-2H59A1.955,1.955,0,0,1,60.41,13.59Z" style="fill:#f7910c"/><path d="M60.41,34.59A1.955,1.955,0,0,1,61,36a2.006,2.006,0,0,1-2,2H45a2.015,2.015,0,0,1-2-2,2.006,2.006,0,0,1,2-2H59A1.955,1.955,0,0,1,60.41,34.59Z" style="fill:#f7910c"/><path d="M60.41,55.59A1.955,1.955,0,0,1,61,57a2.006,2.006,0,0,1-2,2H45a2.015,2.015,0,0,1-2-2,2.006,2.006,0,0,1,2-2H59A1.955,1.955,0,0,1,60.41,55.59Z" style="fill:#f7910c"/><path d="M59,13H54V7.09a5.832,5.832,0,0,1,3.24,1.67A5.944,5.944,0,0,1,59,13Z" style="fill:#ff9811"/><path d="M59,34H54V28.09a5.832,5.832,0,0,1,3.24,1.67A5.944,5.944,0,0,1,59,34Z" style="fill:#ff9811"/><path d="M59,55H54V49.09a5.832,5.832,0,0,1,3.24,1.67A5.944,5.944,0,0,1,59,55Z" style="fill:#ff9811"/><path d="M54,49.09V55H50V48a1,1,0,0,1,1-1h2a1,1,0,0,1,1,1Z" style="fill:#ffa733"/><path d="M54,28.09V34H50V27a1,1,0,0,1,1-1h2a1,1,0,0,1,1,1Z" style="fill:#ffa733"/><path d="M54,7.09V13H50V6a1,1,0,0,1,1-1h2a1,1,0,0,1,1,1Z" style="fill:#ffa733"/><path d="M50,49.09V55H45A5.99,5.99,0,0,1,50,49.09Z" style="fill:#ff9811"/><path d="M50,28.09V34H45A5.99,5.99,0,0,1,50,28.09Z" style="fill:#ff9811"/><path d="M50,7.09V13H45A5.99,5.99,0,0,1,50,7.09Z" style="fill:#ff9811"/><path d="M27,47.9V50H18l-1.82-6.18L17,43l3,1,.7-2.8,2.74,1.22A6,6,0,0,1,27,47.9Z" style="fill:#3d9ae2"/><path d="M23.41,22.59A1.955,1.955,0,0,1,24,24a2.006,2.006,0,0,1-2,2H8a2.015,2.015,0,0,1-2-2,2.006,2.006,0,0,1,2-2H22A1.955,1.955,0,0,1,23.41,22.59Z" style="fill:#f7910c"/><path d="M22,22H17V16.09A5.984,5.984,0,0,1,21.91,21,5.47,5.47,0,0,1,22,22Z" style="fill:#ff9811"/><polygon points="20.7 41.2 20 44 17 43 16 41 18 40 20.7 41.2" style="fill:#1e81ce"/><polygon points="16.18 43.82 18 50 12 50 13.82 43.82 15 45 16.18 43.82" style="fill:#ed1c24"/><path d="M17,16.09V22H13V15a1,1,0,0,1,1-1h2a1,1,0,0,1,1,1Z" style="fill:#ffa733"/><polygon points="16 41 17 43 16.18 43.82 15 45 13.82 43.82 13 43 14 41 16 41" style="fill:#ed1c24"/><polygon points="14 41 13 43 10 44 9.3 41.2 12 40 14 41" style="fill:#1e81ce"/><path d="M13.82,43.82,12,50H3V47.9a6,6,0,0,1,3.56-5.48L9.3,41.2,10,44l3-1Z" style="fill:#3d9ae2"/><path d="M13,16.09V22H8a5.47,5.47,0,0,1,.09-1A5.992,5.992,0,0,1,13,16.09Z" style="fill:#ff9811"/><polygon points="18 37 18 40 16 41 14 41 12 40 12 37 18 37" style="fill:#ffc477"/><path d="M9,28v4H7a2,2,0,0,1,0-4Z" style="fill:#ffb655"/><path d="M25,30a2.006,2.006,0,0,1-2,2H21V28h2A2.006,2.006,0,0,1,25,30Z" style="fill:#ffb655"/><path d="M18,37v2.32a6.958,6.958,0,0,1-6,0V37Z" style="fill:#ffb655"/><path d="M22,28v3a5.474,5.474,0,0,1-.08,1A6.952,6.952,0,0,1,18,37.32,6.982,6.982,0,0,1,8.08,32,5.474,5.474,0,0,1,8,31V26H22Z" style="fill:#ffc477"/><rect x="8" y="26" width="14" height="2" style="fill:#ffb655"/><rect x="11" y="29" width="2" height="2"/><rect x="17" y="29" width="2" height="2"/><path d="M23.85,41.51,19,39.35V37.92A8.06,8.06,0,0,0,22.74,33H23a3,3,0,0,0,0-6v-.18a2.983,2.983,0,0,0-.05-5.65,6.934,6.934,0,0,0-2-4.11A6.756,6.756,0,0,0,18,15.31V15a2.006,2.006,0,0,0-2-2H14a2.006,2.006,0,0,0-2,2v.3a6.96,6.96,0,0,0-4.95,5.87A2.983,2.983,0,0,0,7,26.82V27a3,3,0,0,0,0,6h.26A8.06,8.06,0,0,0,11,37.92v1.43L6.15,41.51A7,7,0,0,0,2,47.9V50a1,1,0,0,0,1,1H27a1,1,0,0,0,1-1V47.9A7,7,0,0,0,23.85,41.51ZM7,31a1,1,0,0,1,0-2ZM19.53,41.77l-.24.94-1.58-.53-.37-.73.69-.34ZM24,30a1,1,0,0,1-1,1V29A1,1,0,0,1,24,30ZM18,17.43a5.106,5.106,0,0,1,1.54,1.04A4.913,4.913,0,0,1,20.9,21H18ZM14,15h2v6H14Zm-2,2.43V21H9.1A4.961,4.961,0,0,1,12,17.43ZM7,24a1,1,0,0,1,1-1H22a1,1,0,0,1,0,2H8A1,1,0,0,1,7,24Zm2,7V27H21v4A6,6,0,0,1,9,31Zm2.97,10.11.69.34-.37.73-1.58.53-.24-.94ZM11.25,49H4V47.9a5,5,0,0,1,2.97-4.57l1.65-.73.41,1.64a1.017,1.017,0,0,0,.49.64A1,1,0,0,0,10,45a1.185,1.185,0,0,0,.32-.05l2.36-.79Zm2.09,0,.96-3.29a.99.99,0,0,0,1.4,0L16.66,49Zm.88-6.2.4-.8h.76l.4.8-.78.79ZM17,39.38,15.76,40H14.24L13,39.38v-.64a7.822,7.822,0,0,0,4,0ZM26,49H18.75l-1.43-4.84,2.36.79A1.185,1.185,0,0,0,20,45a1,1,0,0,0,.48-.12,1.017,1.017,0,0,0,.49-.64l.41-1.64,1.65.73A5,5,0,0,1,26,47.9Z"/><path d="M34,13V31H30v2h4V51a3,3,0,0,0,3,3h3V52H37a1,1,0,0,1-1-1V33h4V31H36V13a1,1,0,0,1,1-1h3V10H37A3,3,0,0,0,34,13Z"/><path d="M59.95,12.17a6.934,6.934,0,0,0-2-4.11A6.756,6.756,0,0,0,55,6.31V6a2.006,2.006,0,0,0-2-2H51a2.006,2.006,0,0,0-2,2v.3a6.96,6.96,0,0,0-4.95,5.87A2.991,2.991,0,0,0,45,18H59a2.991,2.991,0,0,0,.95-5.83ZM55,8.43a5.106,5.106,0,0,1,1.54,1.04A4.913,4.913,0,0,1,57.9,12H55ZM51,6h2v6H51ZM49,8.43V12H46.1A4.961,4.961,0,0,1,49,8.43ZM59,16H45a1,1,0,0,1,0-2H59a1,1,0,0,1,0,2Z"/><path d="M59.95,33.17a6.934,6.934,0,0,0-2-4.11A6.756,6.756,0,0,0,55,27.31V27a2.006,2.006,0,0,0-2-2H51a2.006,2.006,0,0,0-2,2v.3a6.96,6.96,0,0,0-4.95,5.87A2.991,2.991,0,0,0,45,39H59a2.991,2.991,0,0,0,.95-5.83ZM55,29.43a5.106,5.106,0,0,1,1.54,1.04A4.913,4.913,0,0,1,57.9,33H55ZM51,27h2v6H51Zm-2,2.43V33H46.1A4.961,4.961,0,0,1,49,29.43ZM59,37H45a1,1,0,0,1,0-2H59a1,1,0,0,1,0,2Z"/><path d="M59.95,54.17a6.934,6.934,0,0,0-2-4.11A6.756,6.756,0,0,0,55,48.31V48a2.006,2.006,0,0,0-2-2H51a2.006,2.006,0,0,0-2,2v.3a6.96,6.96,0,0,0-4.95,5.87A2.991,2.991,0,0,0,45,60H59a2.991,2.991,0,0,0,.95-5.83ZM55,50.43a5.106,5.106,0,0,1,1.54,1.04A4.913,4.913,0,0,1,57.9,54H55ZM51,48h2v6H51Zm-2,2.43V54H46.1A4.961,4.961,0,0,1,49,50.43ZM59,58H45a1,1,0,0,1,0-2H59a1,1,0,0,1,0,2Z"/></g></svg>