<svg xmlns="http://www.w3.org/2000/svg" viewBox="0 0 64 64"><g id="Engineer-Construction-Architecture-House-Gear"><path d="M25.68,18.47a9.8,9.8,0,0,1-1.09,2.62l.57.75,1.45,1.94-2.83,2.83-1.94-1.45-.75-.57a9.8,9.8,0,0,1-2.62,1.09L18,29H14l-.25-1.75-.22-1.57a9.8,9.8,0,0,1-2.62-1.09L8.22,26.61,5.39,23.78l2.02-2.69a9.8,9.8,0,0,1-1.09-2.62L3,18V14l3.32-.47a9.8,9.8,0,0,1,1.09-2.62L5.39,8.22,8.22,5.39l2.69,2.02a9.8,9.8,0,0,1,2.62-1.09L14,3h4l.47,3.32a9.8,9.8,0,0,1,2.62,1.09l2.69-2.02,2.83,2.83-2.02,2.69a9.8,9.8,0,0,1,1.09,2.62l1.57.22L29,14v4Z" style="fill:#ff9811"/><path d="M54,29V61H18V29l3.84-3.84,3.32-3.32L29,18l5.59-5.59a1.992,1.992,0,0,1,2.82,0Z" style="fill:#d8d7da"/><path d="M56,6V8a1,1,0,0,1-1,1H45a1,1,0,0,1-1-1V6a1,1,0,0,1,1-1H55A1,1,0,0,1,56,6Z" style="fill:#acabb1"/><polygon points="54 9 54 23 46 15 46 9 54 9" style="fill:#d8d7da"/><circle cx="16" cy="16" r="5" style="fill:#ffd422"/><path d="M39.41,14.41a1.992,1.992,0,0,0-2.82,0L31,20l-3.84,3.84-3.32,3.32L18,33V29l3.84-3.84,3.32-3.32L29,18l5.59-5.59a1.992,1.992,0,0,1,2.82,0Z" style="fill:#c6c5ca"/><path d="M60.5,29.5,54,23l-8-8L37.41,6.41a1.992,1.992,0,0,0-2.82,0l-7.34,7.34-13.5,13.5L11.5,29.5a2.121,2.121,0,0,0,3,3L18,29l3.84-3.84,3.32-3.32L29,18l5.59-5.59a1.992,1.992,0,0,1,2.82,0L54,29l3.5,3.5a2.121,2.121,0,0,0,3-3Z" style="fill:#ff5023"/><path d="M50,60.9V61H26v-.1a6,6,0,0,1,3.56-5.48L32.3,54.2,35,53V50.32A6.946,6.946,0,0,1,31.08,45H30a2,2,0,0,1,0-4h1V39a2.015,2.015,0,0,1-2-2,2.006,2.006,0,0,1,2-2,5.47,5.47,0,0,1,.09-1A5.992,5.992,0,0,1,36,29.09V28a1,1,0,0,1,1-1h2a1,1,0,0,1,1,1v1.09A5.984,5.984,0,0,1,44.91,34,5.47,5.47,0,0,1,45,35a2.015,2.015,0,0,1,2,2,2.006,2.006,0,0,1-2,2v2h1a2,2,0,0,1,0,4H44.92A6.952,6.952,0,0,1,41,50.32V53l2.7,1.2,2.74,1.22A6,6,0,0,1,50,60.9Z" style="fill:#c6c5ca"/><path d="M48,58.9V61H39l-1.82-6.18L38,54l3,1,.7-2.8,2.74,1.22A6,6,0,0,1,48,58.9Z" style="fill:#3d9ae2"/><path d="M44.41,33.59A1.955,1.955,0,0,1,45,35a2.006,2.006,0,0,1-2,2H29a2.015,2.015,0,0,1-2-2,2.006,2.006,0,0,1,2-2H43A1.955,1.955,0,0,1,44.41,33.59Z" style="fill:#f7910c"/><path d="M43,33H38V27.09A5.984,5.984,0,0,1,42.91,32,5.47,5.47,0,0,1,43,33Z" style="fill:#ff9811"/><polygon points="41.7 52.2 41 55 38 54 37 52 39 51 41.7 52.2" style="fill:#1e81ce"/><polygon points="37.18 54.82 39 61 33 61 34.82 54.82 36 56 37.18 54.82" style="fill:#ed1c24"/><path d="M38,27.09V33H34V26a1,1,0,0,1,1-1h2a1,1,0,0,1,1,1Z" style="fill:#ffa733"/><polygon points="37 52 38 54 37.18 54.82 36 56 34.82 54.82 34 54 35 52 37 52" style="fill:#ed1c24"/><polygon points="35 52 34 54 31 55 30.3 52.2 33 51 35 52" style="fill:#1e81ce"/><path d="M34.82,54.82,33,61H24V58.9a6,6,0,0,1,3.56-5.48L30.3,52.2,31,55l3-1Z" style="fill:#3d9ae2"/><path d="M34,27.09V33H29a5.47,5.47,0,0,1,.09-1A5.992,5.992,0,0,1,34,27.09Z" style="fill:#ff9811"/><polygon points="39 48 39 51 37 52 35 52 33 51 33 48 39 48" style="fill:#ffc477"/><path d="M30,39v4H28a2,2,0,0,1,0-4Z" style="fill:#ffb655"/><path d="M46,41a2.006,2.006,0,0,1-2,2H42V39h2A2.006,2.006,0,0,1,46,41Z" style="fill:#ffb655"/><path d="M39,48v2.32a6.958,6.958,0,0,1-6,0V48Z" style="fill:#ffb655"/><path d="M43,39v3a5.474,5.474,0,0,1-.08,1A6.952,6.952,0,0,1,39,48.32,6.982,6.982,0,0,1,29.08,43,5.474,5.474,0,0,1,29,42V37H43Z" style="fill:#ffc477"/><rect x="29" y="37" width="14" height="2" style="fill:#ffb655"/><rect x="46" y="9" width="8" height="2" style="fill:#c6c5ca"/><path d="M61.21,28.79,55,22.59V10a2.006,2.006,0,0,0,2-2V6a2.006,2.006,0,0,0-2-2H45a2.006,2.006,0,0,0-2,2V8a2.006,2.006,0,0,0,2,2v2.59L38.12,5.71a3.056,3.056,0,0,0-4.24,0L26.9,12.69l-.44-.06a10.69,10.69,0,0,0-.68-1.64l1.63-2.17a1,1,0,0,0-.09-1.31L24.49,4.68a1,1,0,0,0-1.31-.09L21.01,6.22a10.69,10.69,0,0,0-1.64-.68l-.38-2.68A1,1,0,0,0,18,2H14a1,1,0,0,0-.99.86l-.38,2.68a10.69,10.69,0,0,0-1.64.68L8.82,4.59a1,1,0,0,0-1.31.09L4.68,7.51a1,1,0,0,0-.09,1.31l1.63,2.17a10.69,10.69,0,0,0-.68,1.64l-2.68.38A1,1,0,0,0,2,14v4a1,1,0,0,0,.86.99l2.68.38a10.69,10.69,0,0,0,.68,1.64L4.59,23.18a1,1,0,0,0,.09,1.31l2.83,2.83a1.008,1.008,0,0,0,1.31.09l2.17-1.63a10.69,10.69,0,0,0,1.64.68l.06.44-1.9,1.89a3.139,3.139,0,0,0,0,4.42,3.145,3.145,0,0,0,4.42,0L17,31.41V61a1,1,0,0,0,1,1H54a1,1,0,0,0,1-1V31.41l1.79,1.8a3.125,3.125,0,0,0,4.42-4.42ZM45,6H55V8H45Zm8,4V20.59l-6-6V10ZM11.43,23.73a1,1,0,0,0-1.12.06l-2,1.5-1.6-1.6,1.5-2a1,1,0,0,0,.06-1.11,8.6,8.6,0,0,1-.98-2.36,1.008,1.008,0,0,0-.83-.74L4,17.13V14.87l2.46-.35a1.008,1.008,0,0,0,.83-.74,8.6,8.6,0,0,1,.98-2.36,1,1,0,0,0-.06-1.11l-1.5-2,1.6-1.6,2,1.5a1.015,1.015,0,0,0,1.12.06,8.409,8.409,0,0,1,2.35-.98,1.008,1.008,0,0,0,.74-.83L14.87,4h2.26l.35,2.46a1.008,1.008,0,0,0,.74.83,8.409,8.409,0,0,1,2.35.98,1.015,1.015,0,0,0,1.12-.06l2-1.5,1.6,1.6-1.5,2a1,1,0,0,0-.06,1.11,8.6,8.6,0,0,1,.98,2.36.986.986,0,0,0,.48.61l-3.5,3.51a6,6,0,1,0-3.79,3.79l-3.51,3.5a.986.986,0,0,0-.61-.48A8.409,8.409,0,0,1,11.43,23.73ZM20,16a4,4,0,1,1-4-4A4,4,0,0,1,20,16ZM32.25,60H25V58.9a5,5,0,0,1,2.97-4.57l1.65-.73.41,1.64a1.017,1.017,0,0,0,.49.64A1,1,0,0,0,31,56a1.185,1.185,0,0,0,.32-.05l2.36-.79ZM43,34a1,1,0,0,1,0,2H29a1,1,0,0,1,0-2ZM30.1,32A4.961,4.961,0,0,1,33,28.43V32ZM35,32V26h2v6Zm4,0V28.43A4.946,4.946,0,0,1,41.9,32Zm5,8a1,1,0,0,1,0,2ZM30,38H42v4a6,6,0,0,1-12,0Zm9.02,14.11,1.51.66-.24.94-1.58-.53-.37-.73Zm-5.36.34-.37.73-1.58.53-.24-.94,1.51-.66ZM34.34,60l.96-3.29a.99.99,0,0,0,1.4,0L37.66,60Zm.88-6.2.4-.8h.76l.4.8-.78.79ZM38,50.38,36.76,51H35.24L34,50.38v-.64a7.822,7.822,0,0,0,4,0ZM47,60H39.75l-1.43-4.84,2.36.79A1.185,1.185,0,0,0,41,56a1,1,0,0,0,.48-.12,1.017,1.017,0,0,0,.49-.64l.41-1.64,1.65.73A5,5,0,0,1,47,58.9Zm6,0H49V58.9a7,7,0,0,0-4.15-6.39L40,50.35V48.92A8.06,8.06,0,0,0,43.74,44H44a3,3,0,0,0,0-6v-.18a2.983,2.983,0,0,0-.05-5.65,6.934,6.934,0,0,0-2-4.11A6.756,6.756,0,0,0,39,26.31V26a2.006,2.006,0,0,0-2-2H35a2.006,2.006,0,0,0-2,2v.3a6.96,6.96,0,0,0-4.95,5.87A2.983,2.983,0,0,0,28,37.82V38a3,3,0,0,0,0,6h.26A8.06,8.06,0,0,0,32,48.92v1.43l-4.85,2.16A7,7,0,0,0,23,58.9V60H19V29.41L35.29,13.12a1.027,1.027,0,0,1,1.42,0L53,29.41ZM28,40v2a1,1,0,0,1,0-2Zm31.79-8.21a1.111,1.111,0,0,1-1.58,0L38.12,11.71a2.994,2.994,0,0,0-4.24,0L13.79,31.79a1.117,1.117,0,1,1-1.58-1.58L35.29,7.12a1.027,1.027,0,0,1,1.42,0L59.79,30.21a1.111,1.111,0,0,1,0,1.58Z"/><rect x="32" y="40" width="2" height="2"/><rect x="38" y="40" width="2" height="2"/></g></svg>