<svg xmlns="http://www.w3.org/2000/svg" viewBox="0 0 64 64"><g id="Engineer-Avatar-Worker-Occupation-Man"><path d="M45.58,35.79,40,34.16V39a2,2,0,0,0-4,0V36l-4,3-4-3v3a2,2,0,0,0-4,0V34.16l-5.58,1.63A6.013,6.013,0,0,0,14,41.58V57a4,4,0,0,0,4,4H50V41.58A6.013,6.013,0,0,0,45.58,35.79Z" style="fill:#3d9ae2"/><polygon points="25 47 25 55 31 55 31 61 34 61 43 61 43 47 25 47" style="fill:#e6e7e8"/><path d="M40,34.16V39a2,2,0,0,0-4,0V33Z" style="fill:#1e81ce"/><path d="M34,55a3,3,0,0,1,0,6H31V55Z" style="fill:#ffc477"/><path d="M28,36v3a2,2,0,0,0-4,0V34.16L28,33Z" style="fill:#1e81ce"/><path d="M43,16a1.986,1.986,0,0,1-1.47,1.92A1.586,1.586,0,0,1,41,18H23a1.586,1.586,0,0,1-.53-.08,1.785,1.785,0,0,1-.88-.51A1.955,1.955,0,0,1,21,16a2.006,2.006,0,0,1,2-2H41a2.015,2.015,0,0,1,2,2Z" style="fill:#f7910c"/><path d="M33,3H31a1,1,0,0,0-1,1V14h4V4A1,1,0,0,0,33,3Z" style="fill:#ffa733"/><polygon points="36 29 36 36 32 39 28 36 28 29 36 29" style="fill:#ffc477"/><path d="M36,29v3.06a8.981,8.981,0,0,1-8,0V29Z" style="fill:#ffb655"/><path d="M41,18v4a9,9,0,0,1-13,8.06A9.028,9.028,0,0,1,23,22V18Z" style="fill:#ffc477"/><rect x="23" y="18" width="18" height="2" style="fill:#ffb655"/><path d="M39.64,9.26a8.589,8.589,0,0,0-2.26-2.47A8.968,8.968,0,0,0,34,5.22V14h7A8.837,8.837,0,0,0,39.64,9.26Z" style="fill:#ff9811"/><path d="M24.36,9.26A8.837,8.837,0,0,0,23,14h7V5.22a8.968,8.968,0,0,0-3.38,1.57A8.589,8.589,0,0,0,24.36,9.26Z" style="fill:#ff9811"/><rect x="43" y="47" width="2" height="14" style="fill:#1e81ce"/><path d="M36,24H34a2,2,0,0,1-4,0H28a4,4,0,0,0,8,0Z"/><path d="M45.86,34.83,37,32.25v-1.6A10.023,10.023,0,0,0,42,22V18.82a2.986,2.986,0,0,0-.04-5.65A9.9,9.9,0,0,0,35,4.46V4a2.006,2.006,0,0,0-2-2H31a2.006,2.006,0,0,0-2,2v.46a9.9,9.9,0,0,0-6.96,8.71A2.986,2.986,0,0,0,22,18.82V22a10.023,10.023,0,0,0,5,8.65v1.6l-8.85,2.58A7.021,7.021,0,0,0,13,41.58V57a5,5,0,0,0,5,5H50a1,1,0,0,0,1-1V41.58A7.024,7.024,0,0,0,45.86,34.83ZM39,34.92v1.25a3.113,3.113,0,0,0-2,0V34.33ZM35,6.58A8.108,8.108,0,0,1,39.93,13H35ZM31,4h2v9H31ZM29,6.58V13H24.07A8.108,8.108,0,0,1,29,6.58ZM22,16a1,1,0,0,1,1-1H41a1,1,0,0,1,0,2H23A1,1,0,0,1,22,16Zm2,6V19H40v3a8,8,0,0,1-16,0Zm11,9.54V35.5l-3,2.25L29,35.5V31.54a10.013,10.013,0,0,0,6,0ZM25,34.92l2-.59v1.84a3.113,3.113,0,0,0-2,0ZM34,60H32V56h2a2,2,0,0,1,0,4Zm8,0H37.44A3.906,3.906,0,0,0,38,58a4,4,0,0,0-4-4H26V48H42Zm7,0H44V44H42v2H25a1,1,0,0,0-1,1v7H23a1,1,0,0,1-1-1V44H20v9a3.009,3.009,0,0,0,3,3h7v4H18a3.009,3.009,0,0,1-3-3V41.58a5.035,5.035,0,0,1,3.7-4.83L23,35.5V39a1,1,0,0,0,2,0,1,1,0,0,1,2,0,1,1,0,0,0,2,0V38l2.4,1.8a1,1,0,0,0,1.2,0L35,38v1a1,1,0,0,0,2,0,1,1,0,0,1,2,0,1,1,0,0,0,2,0V35.5l4.31,1.25A5.038,5.038,0,0,1,49,41.58Z"/><rect x="27" y="20" width="2" height="2"/><rect x="35" y="20" width="2" height="2"/></g></svg>