<svg xmlns="http://www.w3.org/2000/svg" viewBox="0 0 64 64"><g id="Head-Engineering-Process-House-Idea"><path d="M53,43.94V61H25V52a1,1,0,0,0-1-1H16a6,6,0,0,1-6-6V38H4.26a1,1,0,0,1-.74-1.67L12,27A24,24,0,1,1,53,43.94Z" style="fill:#ffc477"/><path d="M53.58,21,48,17.06V11H44v3.24L38,10,22.42,21a1.794,1.794,0,0,0-.46,2.45,1.82,1.82,0,0,0,1.5.79,1.8,1.8,0,0,0,1.05-.34L28,21.34V37a1,1,0,0,0,1,1H47a1,1,0,0,0,1-1V21.34l3.49,2.56A1.787,1.787,0,1,0,53.58,21Z" style="fill:#ffb655"/><polygon points="46 9 46 15.06 42 12.24 42 9 46 9" style="fill:#acabb1"/><path d="M46,19.34V35a1,1,0,0,1-1,1H27a1,1,0,0,1-1-1V19.34L36,12Z" style="fill:#acabb1"/><path d="M43.99,36H32.01a3.975,3.975,0,0,1,1.77-3.19l1.4-.93,1.67-1.11A2.991,2.991,0,0,1,35,28V25a3,3,0,0,1,6,0v3a2.991,2.991,0,0,1-1.85,2.77l1.67,1.11,1.4.93A3.975,3.975,0,0,1,43.99,36Z" style="fill:#898890"/><path d="M42,34.14V36H30V34.14a4,4,0,0,1,1.78-3.33l1.4-.93L36,33l2.82-3.12,1.4.93A4,4,0,0,1,42,34.14Z" style="fill:#5aaae7"/><path d="M39,24v2a2.991,2.991,0,0,1-1.85,2.77,2.99,2.99,0,0,1-2.3,0A2.991,2.991,0,0,1,33,26V24h6Z" style="fill:#ffc477"/><path d="M39,23v1H36V20a3,3,0,0,1,3,3Z" style="fill:#ff9811"/><path d="M38.82,29.88,36,33l-2.82-3.12,1.67-1.11a2.99,2.99,0,0,0,2.3,0Z" style="fill:#ffc477"/><path d="M36,20v4H33V23A3,3,0,0,1,36,20Z" style="fill:#ff9811"/><path d="M52.34,20.46a1.79,1.79,0,0,1-2.85,1.44L46,19.34,36,12,26,19.34,22.51,21.9a1.8,1.8,0,0,1-1.05.34,1.82,1.82,0,0,1-1.5-.79A1.794,1.794,0,0,1,20.42,19L36,8l6,4.24,4,2.82L51.58,19A1.8,1.8,0,0,1,52.34,20.46Z" style="fill:#ff5023"/><path d="M60.92,24.96A25.073,25.073,0,0,0,37.63,2.05,24.773,24.773,0,0,0,18.89,8.77,25.116,25.116,0,0,0,11,26.61L2.78,35.65A2,2,0,0,0,4.26,39H9v6a7.008,7.008,0,0,0,7,7h8v9a1,1,0,0,0,1,1H53a1,1,0,0,0,1-1V44.35A25.053,25.053,0,0,0,60.92,24.96ZM52.29,43.23a.99.99,0,0,0-.29.71V60H26V52a2.006,2.006,0,0,0-2-2H16a5,5,0,0,1-5-5V38a1,1,0,0,0-1-1H4.26l8.48-9.33A.971.971,0,0,0,13,27,23,23,0,0,1,37.5,4.05,23,23,0,0,1,52.29,43.23Z"/><path d="M52.16,18.18,47,14.54V9a1,1,0,0,0-1-1H42a1,1,0,0,0-1,1v1.3L36.58,7.18a1.024,1.024,0,0,0-1.16,0l-15.58,11A2.787,2.787,0,1,0,23.1,22.7L25,21.31V35a2.006,2.006,0,0,0,2,2H45a2.006,2.006,0,0,0,2-2V21.31l1.9,1.39a2.754,2.754,0,0,0,1.64.54,2.81,2.81,0,0,0,.5-.04,2.788,2.788,0,0,0,1.12-5.02ZM43,10h2v3.13l-2-1.41ZM41,35H31v-.86a3.006,3.006,0,0,1,1.34-2.5l.68-.45,2.24,2.48a.995.995,0,0,0,1.48,0l2.24-2.48.68.45A3.006,3.006,0,0,1,41,34.14ZM38,25v1a2,2,0,0,1-4,0V25Zm-4-2a2,2,0,0,1,1-1.72V23Zm3,0V21.28A2,2,0,0,1,38,23Zm.3,7.07L36,31.51l-1.3-1.44.31-.21a3.57,3.57,0,0,0,1.98,0ZM45,35H43v-.86a4.987,4.987,0,0,0-2.23-4.16L38.9,28.74A3.976,3.976,0,0,0,40,26V25h1V23H40a4,4,0,0,0-3-3.86V18H35v1.14A4,4,0,0,0,32,23H31v2h1v1a3.976,3.976,0,0,0,1.1,2.74l-1.87,1.24A4.987,4.987,0,0,0,29,34.14V35H27V19.84l9-6.6,9,6.6Zm6.2-14.11a.773.773,0,0,1-1.11.2l-13.5-9.9a1.022,1.022,0,0,0-1.18,0l-13.5,9.9A.785.785,0,1,1,21,19.81L36,9.22,51,19.81A.784.784,0,0,1,51.2,20.89Z"/><rect x="33" y="39" width="2" height="2"/><rect x="37" y="39" width="2" height="2"/><rect x="41" y="39" width="2" height="2"/><rect x="29" y="39" width="2" height="2"/></g></svg>