<svg xmlns="http://www.w3.org/2000/svg" viewBox="0 0 64 64"><g id="Laptop-Engineer-Server-Administrator-Storage"><path d="M61,8c0,2.76-7.16,5-16,5a45.187,45.187,0,0,1-8-.67c-.7-.12-1.37-.26-2-.42A14.211,14.211,0,0,1,30.33,10,2.6,2.6,0,0,1,29,8c0-2.76,7.16-5,16-5S61,5.24,61,8Z" style="fill:#898890"/><path d="M37,12v.33c-.7-.12-1.37-.26-2-.42A14.211,14.211,0,0,1,30.33,10H35A2.006,2.006,0,0,1,37,12Z" style="fill:#787680"/><path d="M61,8v8c0,2.76-7.16,5-16,5a45.187,45.187,0,0,1-8-.67c-.7-.12-1.37-.26-2-.42-3.66-.92-6-2.33-6-3.91V8a2.6,2.6,0,0,0,1.33,2A14.211,14.211,0,0,0,35,11.91c.63.16,1.3.3,2,.42A45.187,45.187,0,0,0,45,13C53.84,13,61,10.76,61,8Z" style="fill:#acabb1"/><path d="M37,12.33v8c-.7-.12-1.37-.26-2-.42-3.66-.92-6-2.33-6-3.91V10h1.33A14.211,14.211,0,0,0,35,11.91C35.63,12.07,36.3,12.21,37,12.33Z" style="fill:#898890"/><path d="M61,16v8c0,2.76-7.16,5-16,5-1.38,0-2.73-.06-4.01-.16-.68-.05-1.35-.12-1.99-.2-.69-.09-1.36-.19-2-.3-.7-.13-1.37-.27-2-.43A18.964,18.964,0,0,1,32.19,27a6.515,6.515,0,0,1-2.88-2A1.891,1.891,0,0,1,29,24V16c0,1.58,2.34,2.99,6,3.91.63.16,1.3.3,2,.42A45.187,45.187,0,0,0,45,21C53.84,21,61,18.76,61,16Z" style="fill:#898890"/><path d="M40.99,28.84c-.68-.05-1.35-.12-1.99-.2a35.963,35.963,0,0,1-4-.73A18.964,18.964,0,0,1,32.19,27H39A2,2,0,0,1,40.99,28.84Z" style="fill:#787680"/><path d="M61,24v8c0,2.76-7.16,5-16,5-1.38,0-2.72-.06-4-.16-.69-.05-1.35-.12-2-.2a30.886,30.886,0,0,1-4.88-.98h-.01C30.97,34.75,29,33.45,29,32V24a1.891,1.891,0,0,0,.31,1,6.515,6.515,0,0,0,2.88,2,18.964,18.964,0,0,0,2.81.91,35.963,35.963,0,0,0,4,.73c.64.08,1.31.15,1.99.2,1.28.1,2.63.16,4.01.16C53.84,29,61,26.76,61,24Z" style="fill:#acabb1"/><path d="M41,29v7.84c-.69-.05-1.35-.12-2-.2a30.886,30.886,0,0,1-4.88-.98h-.01C30.97,34.75,29,33.45,29,32V27h3.19a18.964,18.964,0,0,0,2.81.91,35.963,35.963,0,0,0,4,.73c.64.08,1.31.15,1.99.2A.808.808,0,0,1,41,29Z" style="fill:#898890"/><path d="M61,32v8c0,2.76-7.16,5-16,5-1.38,0-2.72-.06-4-.16-.69-.05-1.35-.12-2-.2C33.13,43.89,29,42.1,29,40V32c0,1.45,1.97,2.75,5.11,3.66h.01a30.886,30.886,0,0,0,4.88.98c.65.08,1.31.15,2,.2,1.28.1,2.62.16,4,.16C53.84,37,61,34.76,61,32Z" style="fill:#898890"/><path d="M41,36.84v8c-.69-.05-1.35-.12-2-.2C33.13,43.89,29,42.1,29,40V32c0,1.45,1.97,2.75,5.11,3.66h.01a30.886,30.886,0,0,0,4.88.98C39.65,36.72,40.31,36.79,41,36.84Z" style="fill:#787680"/><polygon points="43 57 3 57 7 47 39 47 43 57" style="fill:#acabb1"/><path d="M37,20.33v8.01c-.7-.13-1.37-.27-2-.43A18.964,18.964,0,0,1,32.19,27a6.515,6.515,0,0,1-2.88-2A1.891,1.891,0,0,1,29,24V16c0,1.58,2.34,2.99,6,3.91C35.63,20.07,36.3,20.21,37,20.33Z" style="fill:#787680"/><path d="M33,8H5a2.006,2.006,0,0,0-2,2v6H35V10A2.006,2.006,0,0,0,33,8Z" style="fill:#ff5023"/><path d="M35,16V34a2.005,2.005,0,0,1-.88,1.66h-.01A1.942,1.942,0,0,1,33,36H5a2.006,2.006,0,0,1-2-2V16Z" style="fill:#3d9ae2"/><path d="M39,27V47H7V27a2.006,2.006,0,0,1,2-2H37A2.006,2.006,0,0,1,39,27Z" style="fill:#5aaae7"/><path d="M43,57v3a1,1,0,0,1-1,1H4a1,1,0,0,1-1-1V57H43Z" style="fill:#898890"/><polygon points="28 53 29 57 17 57 18 53 28 53" style="fill:#c6c5ca"/><path d="M29.47,38a2.348,2.348,0,0,0-.25-.19l-1.4-.93-1.67-1.11A2.991,2.991,0,0,0,28,33V30a3,3,0,0,0-6,0v3a2.991,2.991,0,0,0,1.85,2.77l-1.67,1.11-1.4.93a2.348,2.348,0,0,0-.25.19A3.976,3.976,0,0,0,19,41.14V43H31V41.14A3.976,3.976,0,0,0,29.47,38Z" style="fill:#3d9ae2"/><path d="M26,29v2a2.991,2.991,0,0,1-1.85,2.77,2.99,2.99,0,0,1-2.3,0A2.991,2.991,0,0,1,20,31V29h6Z" style="fill:#ffc477"/><path d="M24.15,33.77a2.99,2.99,0,0,1-2.3,0l-1.67,1.11L21.19,36,23,38l1.81-2,1.01-1.12Z" style="fill:#ffc477"/><path d="M27.47,36a2.348,2.348,0,0,0-.25-.19l-1.4-.93L24.81,36,23,38l-1.81-2-1.01-1.12-1.4.93a2.348,2.348,0,0,0-.25.19A3.976,3.976,0,0,0,17,39.14V41H29V39.14A3.976,3.976,0,0,0,27.47,36Z" style="fill:#00b39d"/><path d="M26,28v1H23V25a3,3,0,0,1,3,3Z" style="fill:#ff9811"/><path d="M23,25v4H20V28A3,3,0,0,1,23,25Z" style="fill:#ff9811"/><path d="M45,2C37.3,2,29.54,3.72,28.22,7H5a3.009,3.009,0,0,0-3,3V34a3.009,3.009,0,0,0,3,3H6v9.81L2.07,56.63A.937.937,0,0,0,2,57v3a2.006,2.006,0,0,0,2,2H42a2.006,2.006,0,0,0,2-2V57a.937.937,0,0,0-.07-.37L40,46.81V45.73A47.892,47.892,0,0,0,45,46c8.45,0,17-2.06,17-6V8C62,4.06,53.45,2,45,2ZM4,10A1,1,0,0,1,5,9H33a1,1,0,0,1,1,1v5H4ZM5,35a1,1,0,0,1-1-1V17H34v7H28v2h9a1,1,0,0,1,1,1V46H8V27a1,1,0,0,1,1-1h9V24H9a3.009,3.009,0,0,0-3,3v8ZM42,60H4V58H42ZM18.28,56l.5-2h8.44l.5,2Zm23.24,0H29.78l-.81-3.24A1,1,0,0,0,28,52H18a1,1,0,0,0-.97.76L16.22,56H4.48l3.2-8H38.32ZM60,40c0,1.63-5.84,4-15,4a47.892,47.892,0,0,1-5-.27v-6A47.892,47.892,0,0,0,45,38c5.97,0,11.98-1.03,15-3.03Zm0-8c0,1.63-5.84,4-15,4a47.892,47.892,0,0,1-5-.27v-6A47.892,47.892,0,0,0,45,30c5.97,0,11.98-1.03,15-3.03Zm0-8c0,1.63-5.84,4-15,4a47.892,47.892,0,0,1-5-.27V27a3.009,3.009,0,0,0-3-3H36V21.14A45.386,45.386,0,0,0,45,22c5.97,0,11.98-1.03,15-3.03Zm0-8c0,1.63-5.84,4-15,4a43.564,43.564,0,0,1-9-.89V13.14A45.386,45.386,0,0,0,45,14c5.97,0,11.98-1.03,15-3.03ZM45,12a43.564,43.564,0,0,1-9-.89V10a3.009,3.009,0,0,0-3-3H30.63C32.37,5.55,37.6,4,45,4c9.16,0,15,2.37,15,4S54.16,12,45,12Z"/><rect x="56" y="14" width="2" height="2"/><rect x="52" y="15" width="2" height="2"/><rect x="48" y="16" width="2" height="2"/><rect x="56" y="22" width="2" height="2"/><rect x="52" y="23" width="2" height="2"/><rect x="48" y="24" width="2" height="2"/><rect x="56" y="30" width="2" height="2"/><rect x="52" y="31" width="2" height="2"/><rect x="48" y="32" width="2" height="2"/><rect x="56" y="38" width="2" height="2"/><rect x="52" y="39" width="2" height="2"/><rect x="48" y="40" width="2" height="2"/><rect x="39" y="7" width="12" height="2"/><rect x="6" y="11" width="2" height="2"/><rect x="10" y="11" width="2" height="2"/><rect x="14" y="11" width="2" height="2"/><path d="M27.77,34.98,25.9,33.74A3.976,3.976,0,0,0,27,31V30h1V28H27a4,4,0,0,0-3-3.86V23H22v1.14A4,4,0,0,0,19,28H18v2h1v1a3.976,3.976,0,0,0,1.1,2.74l-1.87,1.24A4.987,4.987,0,0,0,16,39.14V41a1,1,0,0,0,1,1H29a1,1,0,0,0,1-1V39.14A4.987,4.987,0,0,0,27.77,34.98ZM24,26.28A2,2,0,0,1,25,28H24Zm-2,0V28H21A2,2,0,0,1,22,26.28ZM21,30h4v1a2,2,0,0,1-4,0Zm3.3,5.07L23,36.51l-1.3-1.44.31-.21a3.57,3.57,0,0,0,1.98,0ZM28,40H18v-.86a3.006,3.006,0,0,1,1.34-2.5l.68-.45,2.24,2.48a.995.995,0,0,0,1.48,0l2.24-2.48.68.45A3.006,3.006,0,0,1,28,39.14Z"/></g></svg>