<svg xmlns="http://www.w3.org/2000/svg" viewBox="0 0 64 64"><g id="Laptop-Engineer-Setting-Processor-Plan"><path d="M55,13V43H9V13a2.006,2.006,0,0,1,2-2H53A2.006,2.006,0,0,1,55,13Z" style="fill:#5aaae7"/><path d="M33,13V37a2.006,2.006,0,0,1-2,2H9V13a2.006,2.006,0,0,1,2-2H31Z" style="fill:#3d9ae2"/><path d="M31,11V35a2.006,2.006,0,0,1-2,2H5a2.006,2.006,0,0,1-2-2V5A2.006,2.006,0,0,1,5,3H23V9a2.006,2.006,0,0,0,2,2Z" style="fill:#e6e7e8"/><path d="M61,55v4a2.006,2.006,0,0,1-2,2H5a2.006,2.006,0,0,1-2-2V55Z" style="fill:#acabb1"/><polygon points="55 43 61 55 3 55 9 43 55 43" style="fill:#c6c5ca"/><path d="M55,13V26.64a9.427,9.427,0,0,1-2.53,1.04L52,31H48l-.47-3.32a9.8,9.8,0,0,1-2.62-1.09l-2.69,2.02-2.83-2.83,2.02-2.69a9.8,9.8,0,0,1-1.09-2.62L37,20V16l3.32-.47A9.427,9.427,0,0,1,41.36,13a.405.405,0,0,1,.05-.09L39.98,11H53A2.006,2.006,0,0,1,55,13Z" style="fill:#3d9ae2"/><path d="M57.68,18.47a9.8,9.8,0,0,1-1.09,2.62l2.02,2.69-2.83,2.83L55,26.02l-1.91-1.43a9.8,9.8,0,0,1-2.62,1.09L50,29H46l-.47-3.32a9.8,9.8,0,0,1-2.62-1.09l-2.69,2.02-2.83-2.83,2.02-2.69a9.8,9.8,0,0,1-1.09-2.62L35,18V14l3.32-.47A9.427,9.427,0,0,1,39.36,11a.405.405,0,0,1,.05-.09L37.39,8.22l2.83-2.83,2.69,2.02a9.8,9.8,0,0,1,2.62-1.09L46,3h4l.47,3.32a9.8,9.8,0,0,1,2.62,1.09l2.69-2.02,2.83,2.83-2.02,2.69a9.8,9.8,0,0,1,1.09,2.62L61,14v4Z" style="fill:#ff9811"/><circle cx="48" cy="16" r="5" style="fill:#ffd422"/><path d="M31,11H25a2.006,2.006,0,0,1-2-2V3Z" style="fill:#d1d3d4"/><rect x="11" y="17" width="12" height="12" style="fill:#acabb1"/><polygon points="19 21 19 24 18 25 15 25 15 21 19 21" style="fill:#d8d7da"/><path d="M56,42.764V29H54V42H10V40H8v2.764L2.105,54.553A1,1,0,0,0,2,55v4a3,3,0,0,0,3,3H59a3,3,0,0,0,3-3V55a1,1,0,0,0-.1-.447ZM54.382,44l5,10H4.618l5-10ZM59,60H5a1,1,0,0,1-1-1V56H60v3A1,1,0,0,1,59,60Z"/><rect x="10" y="50" width="2" height="2"/><rect x="14" y="50" width="2" height="2"/><rect x="48" y="50" width="2" height="2"/><rect x="52" y="50" width="2" height="2"/><rect x="15" y="46" width="2" height="2"/><rect x="11" y="46" width="2" height="2"/><rect x="19" y="46" width="2" height="2"/><rect x="23" y="46" width="2" height="2"/><rect x="27" y="46" width="2" height="2"/><rect x="31" y="46" width="2" height="2"/><rect x="35" y="46" width="2" height="2"/><rect x="39" y="46" width="2" height="2"/><rect x="43" y="46" width="2" height="2"/><rect x="47" y="46" width="2" height="2"/><rect x="51" y="46" width="2" height="2"/><rect x="34" y="10" width="2" height="2"/><rect x="18" y="50" width="4" height="2"/><rect x="42" y="50" width="4" height="2"/><rect x="24" y="50" width="16" height="2"/><path d="M5,38H29a3,3,0,0,0,3-3V11a1,1,0,0,0-.293-.707l-8-8A1,1,0,0,0,23,2H5A3,3,0,0,0,2,5V35A3,3,0,0,0,5,38ZM24,5.414,28.586,10H25a1,1,0,0,1-1-1ZM4,5A1,1,0,0,1,5,4H22V9a3,3,0,0,0,3,3h5V35a1,1,0,0,1-1,1H5a1,1,0,0,1-1-1Z"/><rect x="10" y="6" width="4" height="2"/><rect x="6" y="10" width="8" height="2"/><rect x="6" y="6" width="2" height="2"/><path d="M14,16V14H12v2H11a1,1,0,0,0-1,1v1H8v2h2v2H8v2h2v2H8v2h2v1a1,1,0,0,0,1,1h1v2h2V30h2v2h2V30h2v2h2V30h1a1,1,0,0,0,1-1V28h2V26H24V24h2V22H24V20h2V18H24V17a1,1,0,0,0-1-1H22V14H20v2H18V14H16v2Zm8,12H12V18H22Z"/><path d="M15,26h3a1,1,0,0,0,.708-.294l1-1A1,1,0,0,0,20,24V21a1,1,0,0,0-1-1H15a1,1,0,0,0-1,1v4A1,1,0,0,0,15,26Zm1-4h2v1.587L17.588,24H16Z"/><rect x="36" y="32" width="6" height="2"/><rect x="36" y="36" width="6" height="2"/><rect x="44" y="32" width="6" height="2"/><rect x="44" y="36" width="6" height="2"/><path d="M61.142,13.01l-2.682-.383a10.855,10.855,0,0,0-.678-1.639l1.624-2.167a1,1,0,0,0-.093-1.306L56.485,4.687a1,1,0,0,0-1.307-.093L53.012,6.219a10.9,10.9,0,0,0-1.639-.679L50.99,2.858A1,1,0,0,0,50,2H46a1,1,0,0,0-.99.858L44.627,5.54a10.86,10.86,0,0,0-1.639.679L40.822,4.594a1,1,0,0,0-1.307.093L36.687,7.515a1,1,0,0,0-.093,1.306l1.624,2.167a10.855,10.855,0,0,0-.678,1.639l-2.682.383A1,1,0,0,0,34,14v4a1,1,0,0,0,.858.99l2.682.383a10.855,10.855,0,0,0,.678,1.639l-1.624,2.167a1,1,0,0,0,.093,1.306l2.828,2.828a1,1,0,0,0,1.307.093l2.166-1.625a10.86,10.86,0,0,0,1.639.679l.383,2.682A1,1,0,0,0,46,30h4a1,1,0,0,0,.99-.858l.383-2.682a10.9,10.9,0,0,0,1.639-.679l2.166,1.625a1,1,0,0,0,1.307-.093l2.828-2.828a1,1,0,0,0,.093-1.306l-1.624-2.167a10.855,10.855,0,0,0,.678-1.639l2.682-.383A1,1,0,0,0,62,18V14A1,1,0,0,0,61.142,13.01ZM60,17.133l-2.463.351a1,1,0,0,0-.828.744,8.859,8.859,0,0,1-.975,2.356,1,1,0,0,0,.06,1.11l1.492,1.991-1.6,1.6L53.7,23.794a1,1,0,0,0-1.111-.061,8.923,8.923,0,0,1-2.357.977,1,1,0,0,0-.742.827L49.133,28H46.867l-.352-2.463a1,1,0,0,0-.742-.827,8.923,8.923,0,0,1-2.357-.977,1,1,0,0,0-1.111.061l-1.99,1.492-1.6-1.6,1.492-1.991a1,1,0,0,0,.06-1.11,8.859,8.859,0,0,1-.975-2.356,1,1,0,0,0-.828-.744L36,17.133V14.867l2.463-.351a1,1,0,0,0,.828-.744,8.859,8.859,0,0,1,.975-2.356,1,1,0,0,0-.06-1.11L38.714,8.315l1.6-1.6,1.99,1.492a1,1,0,0,0,1.111.061,8.923,8.923,0,0,1,2.357-.977,1,1,0,0,0,.742-.827L46.867,4h2.266l.352,2.463a1,1,0,0,0,.742.827,8.923,8.923,0,0,1,2.357.977A1,1,0,0,0,53.7,8.206l1.99-1.492,1.6,1.6-1.492,1.991a1,1,0,0,0-.06,1.11,8.859,8.859,0,0,1,.975,2.356,1,1,0,0,0,.828.744L60,14.867Z"/><path d="M48,10a6,6,0,1,0,6,6A6.006,6.006,0,0,0,48,10Zm0,10a4,4,0,1,1,4-4A4,4,0,0,1,48,20Z"/></g></svg>