<svg xmlns="http://www.w3.org/2000/svg" viewBox="0 0 64 64"><g id="Plan-Calculator-Management-Engineer-File"><path d="M54,11V48a4.01,4.01,0,0,1-4,4H22a4,4,0,0,1-4-4V7a4,4,0,0,1,4-4H46V9a2.006,2.006,0,0,0,2,2Z" style="fill:#5aaae7"/><rect x="43" y="35" width="18" height="26" rx="2" style="fill:#ff5023"/><path d="M27.68,26.47a9.8,9.8,0,0,1-1.09,2.62l2.02,2.69-2.83,2.83-2.69-2.02a9.8,9.8,0,0,1-2.62,1.09L20,37H18V11h2l.47,3.32a9.8,9.8,0,0,1,2.62,1.09l2.69-2.02,2.83,2.83-2.02,2.69a9.8,9.8,0,0,1,1.09,2.62L31,22v4Z" style="fill:#3d9ae2"/><path d="M25.68,24.47a9.8,9.8,0,0,1-1.09,2.62l2.02,2.69-2.83,2.83-2.69-2.02a9.8,9.8,0,0,1-2.62,1.09L18,35H14l-.47-3.32a9.8,9.8,0,0,1-2.62-1.09L8.22,32.61,5.39,29.78l2.02-2.69a9.8,9.8,0,0,1-1.09-2.62L3,24V20l3.32-.47a9.8,9.8,0,0,1,1.09-2.62L5.39,14.22l2.83-2.83,2.69,2.02a9.8,9.8,0,0,1,2.62-1.09L14,9h4l.47,3.32a9.8,9.8,0,0,1,2.62,1.09l2.69-2.02,2.83,2.83-2.02,2.69a9.8,9.8,0,0,1,1.09,2.62L29,20v4Z" style="fill:#ff9811"/><rect x="52" y="52" width="5" height="5" style="fill:#ee8700"/><rect x="52" y="47" width="5" height="5" style="fill:#ff9811"/><polygon points="54 39 47 39 47 43 54 43 57 43 57 39 54 39" style="fill:#ffd422"/><path d="M54,11H48a2.006,2.006,0,0,1-2-2V3Z" style="fill:#3d9ae2"/><polygon points="52 52 52 57 47 57 47 52 50 52 52 52" style="fill:#ff9811"/><rect x="47" y="47" width="5" height="5" style="fill:#ee8700"/><polygon points="34 49.78 34 52 34 54.22 39 52 34 49.78" style="fill:#898890"/><polygon points="30 48 30 52 30 56 34 54.22 34 52 34 49.78 30 48" style="fill:#acabb1"/><polygon points="30 52 30 56 13 56 13 52 22 52 30 52" style="fill:#00ccb3"/><polygon points="18 48 13 48 13 52 22 52 30 52 30 48 18 48" style="fill:#00b39d"/><path d="M18,17.41A5.106,5.106,0,0,0,16,17a5,5,0,0,0,0,10,5.106,5.106,0,0,0,2-.41,5.011,5.011,0,0,0,0-9.18Z" style="fill:#ffd422"/><polygon points="13 52 13 56 9 56 9 48 13 48 13 52" style="fill:#e6e7e8"/><path d="M9,48v8H7a4,4,0,0,1,0-8Z" style="fill:#d1d3d4"/><rect x="17" y="38" width="2" height="7"/><path d="M22,4H45V9a3,3,0,0,0,3,3h5V32h2V11a1,1,0,0,0-.293-.707l-8-8A1,1,0,0,0,46,2H22a5,5,0,0,0-4.842,3.751l1.936.5A3,3,0,0,1,22,4ZM47,9V5.414L51.586,10H48A1,1,0,0,1,47,9Z"/><path d="M59,34H45a3.009,3.009,0,0,0-3,3V59a3.009,3.009,0,0,0,3,3H59a3.009,3.009,0,0,0,3-3V37A3.009,3.009,0,0,0,59,34Zm1,25a1,1,0,0,1-1,1H45a1,1,0,0,1-1-1V37a1,1,0,0,1,1-1H59a1,1,0,0,1,1,1Z"/><path d="M57,46H47a1,1,0,0,0-1,1V57a1,1,0,0,0,1,1H57a1,1,0,0,0,1-1V47A1,1,0,0,0,57,46Zm-1,5H53V48h3Zm-5-3v3H48V48Zm-3,5h3v3H48Zm5,3V53h3v3Z"/><path d="M57,38H47a1,1,0,0,0-1,1v4a1,1,0,0,0,1,1H57a1,1,0,0,0,1-1V39A1,1,0,0,0,57,38Zm-1,4H48V40h8Z"/><path d="M2.858,24.99l2.682.383a10.96,10.96,0,0,0,.678,1.639L4.594,29.178a1,1,0,0,0,.093,1.307l2.828,2.828a1,1,0,0,0,1.307.093l2.166-1.624a10.96,10.96,0,0,0,1.639.678l.383,2.682A1,1,0,0,0,14,36h4a1,1,0,0,0,.99-.858l.383-2.682a10.96,10.96,0,0,0,1.639-.678l2.166,1.624a1,1,0,0,0,1.307-.093l2.828-2.828a1,1,0,0,0,.093-1.307l-1.624-2.166a10.96,10.96,0,0,0,.678-1.639l2.682-.383A1,1,0,0,0,30,24V20a1,1,0,0,0-.858-.99l-2.682-.383a10.96,10.96,0,0,0-.678-1.639l1.624-2.166a1,1,0,0,0-.093-1.307l-2.828-2.828a1,1,0,0,0-1.307-.093l-2.166,1.624a10.96,10.96,0,0,0-1.639-.678L18.99,8.858A1,1,0,0,0,18,8H14a1,1,0,0,0-.99.858l-.383,2.682a10.96,10.96,0,0,0-1.639.678L8.822,10.594a1,1,0,0,0-1.307.093L4.687,13.515a1,1,0,0,0-.093,1.307l1.624,2.166a10.96,10.96,0,0,0-.678,1.639l-2.682.383A1,1,0,0,0,2,20v4A1,1,0,0,0,2.858,24.99ZM4,20.867l2.463-.352a1,1,0,0,0,.828-.743,8.892,8.892,0,0,1,.975-2.356,1,1,0,0,0-.06-1.111l-1.492-1.99,1.6-1.6,1.99,1.492a1,1,0,0,0,1.111.06,8.892,8.892,0,0,1,2.356-.975,1,1,0,0,0,.743-.828L14.867,10h2.266l.352,2.463a1,1,0,0,0,.743.828,8.892,8.892,0,0,1,2.356.975,1,1,0,0,0,1.111-.06l1.99-1.492,1.6,1.6-1.492,1.99a1,1,0,0,0-.06,1.111,8.892,8.892,0,0,1,.975,2.356,1,1,0,0,0,.828.743L28,20.867v2.266l-2.463.352a1,1,0,0,0-.828.743,8.892,8.892,0,0,1-.975,2.356,1,1,0,0,0,.06,1.111l1.492,1.99-1.6,1.6L21.7,29.794a1,1,0,0,0-1.111-.06,8.892,8.892,0,0,1-2.356.975,1,1,0,0,0-.743.828L17.133,34H14.867l-.352-2.463a1,1,0,0,0-.743-.828,8.892,8.892,0,0,1-2.356-.975,1,1,0,0,0-1.111.06l-1.99,1.492-1.6-1.6L8.206,27.7a1,1,0,0,0,.06-1.111,8.892,8.892,0,0,1-.975-2.356,1,1,0,0,0-.828-.743L4,23.133Z"/><path d="M16,28a6,6,0,1,0-6-6A6.006,6.006,0,0,0,16,28Zm0-10a4,4,0,1,1-4,4A4,4,0,0,1,16,18Z"/><path d="M39.406,51.086l-9-4A1,1,0,0,0,30,47H7A5,5,0,0,0,7,57H30a1,1,0,0,0,.406-.086l9-4a1,1,0,0,0,0-1.828ZM29,51H14V49H29ZM12,55H10V49h2Zm2-2H29v2H14Zm17-3.461,2,.889v3.144l-2,.889ZM4,52a3,3,0,0,1,3-3H8v6H7A3,3,0,0,1,4,52Zm31,.683V51.317L36.538,52Z"/><rect x="12" y="38" width="2" height="2"/><rect x="12" y="42" width="2" height="2"/><rect x="33" y="16" width="2" height="2"/><rect x="37" y="16" width="12" height="2"/><rect x="33" y="20" width="16" height="2"/><rect x="33" y="24" width="16" height="2"/><rect x="23" y="36" width="14" height="2"/><rect x="23" y="40" width="14" height="2"/></g></svg>