<svg xmlns="http://www.w3.org/2000/svg" viewBox="0 0 64 64"><g id="Robot-Robotic-Engineer-Technology-Gear"><path d="M40.64,23a.405.405,0,0,1-.05.09l2.02,2.69-2.83,2.83L39,28.02,37.64,27l-.55-.41a8.141,8.141,0,0,1-.77.41,9.492,9.492,0,0,1-1.85.68L34,31H30l-.47-3.32A9.492,9.492,0,0,1,27.68,27a8.141,8.141,0,0,1-.77-.41l-.55.41L25,28.02l-.78.59-2.83-2.83,2.02-2.69a.405.405,0,0,1-.05-.09,9.427,9.427,0,0,1-1.04-2.53L19,20V16l3.32-.47a9.8,9.8,0,0,1,1.09-2.62l-2.02-2.69,2.83-2.83,2.69,2.02a9.8,9.8,0,0,1,2.62-1.09L30,5h4l.47,3.32a9.8,9.8,0,0,1,2.62,1.09l2.69-2.02,2.83,2.83-2.02,2.69a9.8,9.8,0,0,1,1.09,2.62L45,16v4l-3.32.47A9.427,9.427,0,0,1,40.64,23Z" style="fill:#ff9811"/><polygon points="44 23 44 31 38 45 26 45 20 31 20 23 44 23" style="fill:#1e81ce"/><path d="M57.02,31.54a3,3,0,0,1-4.24,4.24l-5.49-5.49a7.952,7.952,0,0,0,2.37-1.63,8.053,8.053,0,0,0,1.77-2.71Z" style="fill:#5aaae7"/><path d="M44,23h8a7.828,7.828,0,0,1-.57,2.95,8.053,8.053,0,0,1-1.77,2.71,7.952,7.952,0,0,1-2.37,1.63A7.867,7.867,0,0,1,44,31Z" style="fill:#3d9ae2"/><path d="M48,57v2a2.006,2.006,0,0,1-2,2H42V45h4a2.006,2.006,0,0,1,2,2V57Z" style="fill:#787680"/><path d="M36,57V45h6V61H38a2.006,2.006,0,0,1-2-2Z" style="fill:#787680"/><polygon points="36 49 36 51 28 51 28 49 28 45 36 45 36 49" style="fill:#acabb1"/><circle cx="32" cy="18" r="5" style="fill:#ffd422"/><rect x="29" y="33" width="6" height="6" style="fill:#d1d3d4"/><path d="M28,57v2a2.006,2.006,0,0,1-2,2H22V45h6V57Z" style="fill:#787680"/><rect x="25" y="27" width="14" height="6" style="fill:#e6e7e8"/><path d="M16,57V47a2.006,2.006,0,0,1,2-2h4V61H18a2.006,2.006,0,0,1-2-2Z" style="fill:#787680"/><path d="M20,23v8a7.867,7.867,0,0,1-3.29-.71,7.952,7.952,0,0,1-2.37-1.63,8.053,8.053,0,0,1-1.77-2.71A7.828,7.828,0,0,1,12,23Z" style="fill:#3d9ae2"/><path d="M16.71,30.29l-5.49,5.49a3,3,0,0,1-4.24-4.24l5.59-5.59a8.053,8.053,0,0,0,1.77,2.71A7.952,7.952,0,0,0,16.71,30.29Z" style="fill:#5aaae7"/><path d="M58.87,33.96a4.021,4.021,0,0,0-1.14-3.13l-5.14-5.14A9.17,9.17,0,0,0,53,23a1,1,0,0,0-1-1H42.22c.08-.21.17-.41.24-.63l2.68-.38A1,1,0,0,0,46,20V16a1,1,0,0,0-.86-.99l-2.68-.38a10.69,10.69,0,0,0-.68-1.64l1.63-2.17a1,1,0,0,0-.09-1.31L40.49,6.68a1,1,0,0,0-1.31-.09L37.01,8.22a10.69,10.69,0,0,0-1.64-.68l-.38-2.68A1,1,0,0,0,34,4H30a1,1,0,0,0-.99.86l-.38,2.68a10.69,10.69,0,0,0-1.64.68L24.82,6.59a1,1,0,0,0-1.31.09L20.68,9.51a1,1,0,0,0-.09,1.31l1.63,2.17a10.69,10.69,0,0,0-.68,1.64l-2.68.38A1,1,0,0,0,18,16v4a1,1,0,0,0,.86.99l2.68.38c.07.22.16.42.24.63H12a1,1,0,0,0-1,1,9.17,9.17,0,0,0,.41,2.69L6.27,30.83a4.021,4.021,0,0,0-1.14,3.13,4.025,4.025,0,0,0-3.1,1.11l1.41,1.42a2.051,2.051,0,0,1,2.83-.01v.01a1.98,1.98,0,0,1,0,2.82l1.42,1.42A4,4,0,0,0,8.86,37.9a2.477,2.477,0,0,0-.03-.27,2.477,2.477,0,0,0,.27.03,4,4,0,0,0,2.83-1.17l5.03-5.03a9.264,9.264,0,0,0,2.37.51L24.48,44H18a3.009,3.009,0,0,0-3,3V59a3.009,3.009,0,0,0,3,3h8a3.009,3.009,0,0,0,3-3V52h6v7a3.009,3.009,0,0,0,3,3h8a3.009,3.009,0,0,0,3-3V47a3.009,3.009,0,0,0-3-3H39.52l5.15-12.03a9.264,9.264,0,0,0,2.37-.51l5.03,5.03a4,4,0,0,0,2.83,1.17,2.477,2.477,0,0,0,.27-.03,2.477,2.477,0,0,0-.03.27,4,4,0,0,0,1.17,2.83l1.42-1.42a1.98,1.98,0,0,1,0-2.82v-.01a2.051,2.051,0,0,1,2.83.01l1.41-1.42A4.025,4.025,0,0,0,58.87,33.96ZM10.51,35.07a2.029,2.029,0,0,1-2.82,0,1.98,1.98,0,0,1,0-2.82l4.61-4.62a9,9,0,0,0,2.77,2.89ZM19,29.93A7.022,7.022,0,0,1,13.07,24H19Zm1-10.8V16.87l2.46-.35a1.008,1.008,0,0,0,.83-.74,8.6,8.6,0,0,1,.98-2.36,1,1,0,0,0-.06-1.11l-1.5-2,1.6-1.6,2,1.5a1,1,0,0,0,1.11.06,8.6,8.6,0,0,1,2.36-.98,1.008,1.008,0,0,0,.74-.83L30.87,6h2.26l.35,2.46a1.008,1.008,0,0,0,.74.83,8.6,8.6,0,0,1,2.36.98,1,1,0,0,0,1.11-.06l2-1.5,1.6,1.6-1.5,2a1,1,0,0,0-.06,1.11,8.6,8.6,0,0,1,.98,2.36,1.008,1.008,0,0,0,.83.74l2.46.35v2.26l-2.46.35a1,1,0,0,0-.83.75A8.765,8.765,0,0,1,40.03,22H36.46a6,6,0,1,0-8.92,0H23.97a8.765,8.765,0,0,1-.68-1.77,1,1,0,0,0-.83-.75ZM36,18a4,4,0,1,1-4-4A4,4,0,0,1,36,18ZM21,60H18a1,1,0,0,1-1-1V58h2V56H17V54h2V52H17V50h2V48H17V47a1,1,0,0,1,1-1h3Zm6-12H25v2h2v2H25v2h2v2H25v2h2v1a1,1,0,0,1-1,1H23V46h4Zm8,2H29V46h6Zm8-4h3a1,1,0,0,1,1,1v1H45v2h2v2H45v2h2v2H45v2h2v1a1,1,0,0,1-1,1H43Zm-2,0V60H38a1,1,0,0,1-1-1V58h2V56H37V54h2V52H37V50h2V48H37V46Zm2-15.21L37.34,44H26.66L21,30.79V24H43Zm2-.86V24h5.93A7.022,7.022,0,0,1,45,29.93Zm11.31,5.14a2.029,2.029,0,0,1-2.82,0l-4.56-4.55a9,9,0,0,0,2.77-2.89l4.61,4.62A1.992,1.992,0,0,1,56.31,35.07Z"/><path d="M39,26H25a1,1,0,0,0-1,1v6a1,1,0,0,0,1,1h3v5a1,1,0,0,0,1,1h6a1,1,0,0,0,1-1V34h3a1,1,0,0,0,1-1V27A1,1,0,0,0,39,26ZM34,38H30V34h4Zm4-6H26V28H38Z"/><rect x="22.5" y="2.278" width="2" height="2" transform="translate(1.51 12.19) rotate(-30.002)"/><rect x="16.277" y="8.5" width="2" height="2" transform="translate(0.411 19.712) rotate(-59.998)"/><rect x="14" y="17" width="2" height="2"/><rect x="48" y="17" width="2" height="2"/><rect x="45.722" y="8.5" width="2" height="2" transform="translate(1.508 24.63) rotate(-29.995)"/><rect x="39.5" y="2.277" width="2" height="2" transform="translate(17.415 36.715) rotate(-60.005)"/></g></svg>