<svg xmlns="http://www.w3.org/2000/svg" viewBox="0 0 64 64"><g id="Robotic_Arm-Robot-Technology-Engineer-Industry" data-name="Robotic Arm-Robot-Technology-Engineer-Industry"><polygon points="59.91 9.95 59.28 13.2 58.81 15.64 53.79 41.44 53.42 43.33 49.97 42.66 46.3 41.95 43.6 41.42 44.2 38.36 49.13 13 49.21 12.57 49.46 11.3 50.09 8.05 53.04 8.62 56.96 9.38 59.91 9.95" style="fill:#898890"/><polygon points="50.54 5 48 5 19 5 19 13 48 13 49.13 13 54 13 54 5 50.54 5" style="fill:#898890"/><rect x="11" y="11" width="10" height="8" style="fill:#898890"/><circle cx="16" cy="9" r="6" style="fill:#acabb1"/><polygon points="62 55 62 61 34 61 34 55 38 55 58 55 62 55" style="fill:#787680"/><polygon points="53 49 58 55 38 55 43 49 48 49 53 49" style="fill:#898890"/><path d="M25.68,41.47a9.8,9.8,0,0,1-1.09,2.62l2.02,2.69-2.83,2.83-2.69-2.02a9.8,9.8,0,0,1-2.62,1.09L18,52H14l-.47-3.32a9.8,9.8,0,0,1-2.62-1.09L8.22,49.61,5.39,46.78l2.02-2.69a9.8,9.8,0,0,1-1.09-2.62L3,41V37l3.32-.47a9.8,9.8,0,0,1,1.09-2.62L5.39,31.22l2.83-2.83,2.69,2.02a9.8,9.8,0,0,1,2.62-1.09L14,26h4l.47,3.32a9.8,9.8,0,0,1,2.62,1.09l2.69-2.02,2.83,2.83-2.02,2.69a9.8,9.8,0,0,1,1.09,2.62L29,37v4Z" style="fill:#ff9811"/><circle cx="16" cy="39" r="5" style="fill:#ffd422"/><circle cx="16" cy="9" r="2" style="fill:#d8d7da"/><circle cx="55" cy="9" r="6" style="fill:#acabb1"/><circle cx="55" cy="9" r="2" style="fill:#d8d7da"/><circle cx="48" cy="43" r="6" style="fill:#acabb1"/><circle cx="48" cy="43" r="2" style="fill:#d8d7da"/><path d="M55,12a3,3,0,1,0-3-3A3,3,0,0,0,55,12Zm0-4a1,1,0,1,1-1,1A1,1,0,0,1,55,8Z"/><path d="M48,40a3,3,0,1,0,3,3A3,3,0,0,0,48,40Zm0,4a1,1,0,1,1,1-1A1,1,0,0,1,48,44Z"/><path d="M16,12a3,3,0,1,0-3-3A3,3,0,0,0,16,12Zm0-4a1,1,0,1,1-1,1A1,1,0,0,1,16,8Z"/><path d="M10,39a6,6,0,1,0,6-6A6.006,6.006,0,0,0,10,39Zm10,0a4,4,0,1,1-4-4A4,4,0,0,1,20,39Z"/><rect x="15" y="29" width="2" height="2"/><rect x="8.636" y="31.636" width="2" height="2" transform="translate(-20.255 16.373) rotate(-45)"/><rect x="6" y="38" width="2" height="2"/><rect x="8.636" y="44.364" width="2" height="2" transform="translate(-29.255 20.1) rotate(-45)"/><rect x="15" y="47" width="2" height="2"/><rect x="21.364" y="44.364" width="2" height="2" transform="translate(-25.527 29.101) rotate(-45)"/><rect x="24" y="38" width="2" height="2"/><rect x="21.364" y="31.636" width="2" height="2" transform="translate(-16.527 25.373) rotate(-45)"/><path d="M62,54H58.468l-4.7-5.64A1,1,0,0,0,53,48h-.11a6.937,6.937,0,0,0,1.923-6.582l5.4-27.758A6.991,6.991,0,0,0,50.11,4H20.89A6.99,6.99,0,0,0,10,12.587V19a1,1,0,0,0,1,1v4a1,1,0,0,0,.293.707l1.646,1.647-.312,2.186a10.96,10.96,0,0,0-1.639.678L8.822,27.594a1,1,0,0,0-1.307.093L4.687,30.515a1,1,0,0,0-.093,1.307l1.624,2.166a10.96,10.96,0,0,0-.678,1.639l-2.682.383A1,1,0,0,0,2,37v4a1,1,0,0,0,.858.99l2.682.383a10.96,10.96,0,0,0,.678,1.639L4.594,46.178a1,1,0,0,0,.093,1.307l2.828,2.828a1,1,0,0,0,1.307.093l2.166-1.624a10.96,10.96,0,0,0,1.639.678l.383,2.682A1,1,0,0,0,14,53h4a1,1,0,0,0,.99-.858l.383-2.682a10.96,10.96,0,0,0,1.639-.678l2.166,1.624a1,1,0,0,0,1.307-.093l2.828-2.828a1,1,0,0,0,.093-1.307l-1.624-2.166a10.96,10.96,0,0,0,.678-1.639l2.682-.383A1,1,0,0,0,30,41V37a1,1,0,0,0-.858-.99l-2.682-.383a10.96,10.96,0,0,0-.678-1.639l1.624-2.166a1,1,0,0,0-.093-1.307l-2.828-2.828a1,1,0,0,0-1.307-.093l-2.166,1.624a10.96,10.96,0,0,0-1.639-.678l-.312-2.186,1.646-1.647A1,1,0,0,0,21,24V20a1,1,0,0,0,1-1V14H47.917L43.282,37.844A6.972,6.972,0,0,0,43.11,48H43a1,1,0,0,0-.768.36L37.532,54H34a1,1,0,0,0-1,1v6a1,1,0,0,0,1,1H62a1,1,0,0,0,1-1V55A1,1,0,0,0,62,54ZM55,4a5,5,0,1,1-5,5A5.006,5.006,0,0,1,55,4ZM16,4a5,5,0,1,1-5,5A5.006,5.006,0,0,1,16,4ZM12,18V14.736a6.961,6.961,0,0,0,8,0V18Zm8.584,13.266a1,1,0,0,0,1.111-.06l1.99-1.492,1.6,1.6-1.492,1.99a1,1,0,0,0-.06,1.111,8.892,8.892,0,0,1,.975,2.356,1,1,0,0,0,.828.743L28,37.867v2.266l-2.463.352a1,1,0,0,0-.828.743,8.892,8.892,0,0,1-.975,2.356,1,1,0,0,0,.06,1.111l1.492,1.99-1.6,1.6L21.7,46.794a1,1,0,0,0-1.111-.06,8.892,8.892,0,0,1-2.356.975,1,1,0,0,0-.743.828L17.133,51H14.867l-.352-2.463a1,1,0,0,0-.743-.828,8.892,8.892,0,0,1-2.356-.975,1,1,0,0,0-1.111.06l-1.99,1.492-1.6-1.6L8.206,44.7a1,1,0,0,0,.06-1.111,8.892,8.892,0,0,1-.975-2.356,1,1,0,0,0-.828-.743L4,40.133V37.867l2.463-.352a1,1,0,0,0,.828-.743,8.892,8.892,0,0,1,.975-2.356,1,1,0,0,0-.06-1.111l-1.492-1.99,1.6-1.6,1.99,1.492a1,1,0,0,0,1.111.06,8.892,8.892,0,0,1,2.356-.975,1,1,0,0,0,.743-.828L14.867,27h2.266l.352,2.463a1,1,0,0,0,.743.828A8.892,8.892,0,0,1,20.584,31.266ZM19,23.586,17.586,25H14.414L13,23.586V20h6ZM22.315,12a6.912,6.912,0,0,0,0-6h26.37a6.892,6.892,0,0,0-.259,5.381L48.305,12Zm27.639,2h.156A6.967,6.967,0,0,0,57.835,15.4l-4.49,23.1a6.952,6.952,0,0,0-7.752-2.055ZM43,43a5,5,0,1,1,5,5A5.006,5.006,0,0,1,43,43Zm.468,7h9.064l3.333,4H40.135ZM61,60H35V56H61Z"/></g></svg>