<svg xmlns="http://www.w3.org/2000/svg" viewBox="0 0 64 64"><g id="Robot-Robotic-Engineer-Technology-Processor"><path d="M55,11V57a4,4,0,0,1-4,4H13a4,4,0,0,1-4-4V7a4,4,0,0,1,4-4H47V9a2.006,2.006,0,0,0,2,2Z" style="fill:#5aaae7"/><path d="M52,49v6a2.006,2.006,0,0,1-2,2H44v4H24V57H18a2.006,2.006,0,0,1-2-2V49a2,2,0,0,1,4,0v4h4l3-2h3V46H27V40.29A7.2,7.2,0,0,1,33.78,33,7,7,0,0,1,41,40v6H38v5h3l3,2h4V49a2,2,0,0,1,4,0Z" style="fill:#3d9ae2"/><path d="M48,45a2.006,2.006,0,0,0-2,2v4H42v4h6a2.006,2.006,0,0,0,2-2V47A2.006,2.006,0,0,0,48,45Z" style="fill:#ffa733"/><polygon points="39 49 36 49 28 49 25 49 22 51 22 55 22 61 27 61 37 61 42 61 42 55 42 51 39 49" style="fill:#ff9811"/><path d="M55,11H49a2.006,2.006,0,0,1-2-2V3Z" style="fill:#3d9ae2"/><circle cx="48" cy="53" r="2" style="fill:#ee8700"/><path d="M39,38v6H36l-4,2-4-2H25V38.29A7.2,7.2,0,0,1,31.78,31,7,7,0,0,1,39,38Z" style="fill:#ff9811"/><rect x="25" y="11" width="14" height="14" style="fill:#acabb1"/><path d="M37,58v3H27V58a5,5,0,0,1,10,0Z" style="fill:#ff5023"/><polygon points="36 44 36 49 28 49 28 44 32 46 36 44" style="fill:#ee8700"/><polygon points="35 37 35 40 29 40 29 37 32 36 35 37" style="fill:#ffd422"/><polygon points="35 15 35 19 33 21 29 21 29 15 35 15" style="fill:#d8d7da"/><path d="M18,51V47a2,2,0,0,0-4,0v6a2.006,2.006,0,0,0,2,2h6V51Z" style="fill:#ffa733"/><circle cx="16" cy="53" r="2" style="fill:#ee8700"/><path d="M35.316,36.051l-3-1a1,1,0,0,0-.632,0l-3,1A1,1,0,0,0,28,37v3a1,1,0,0,0,1,1h6a1,1,0,0,0,1-1V37A1,1,0,0,0,35.316,36.051ZM34,39H30V37.721l2-.667,2,.667Z"/><path d="M55.707,10.293l-8-8A1,1,0,0,0,47,2H13A5.006,5.006,0,0,0,8,7V57a5.006,5.006,0,0,0,5,5H51a5.006,5.006,0,0,0,5-5V11A1,1,0,0,0,55.707,10.293ZM48,5.414,52.586,10H49a1,1,0,0,1-1-1ZM17,47v3.184a2.809,2.809,0,0,0-2,0V47a1,1,0,0,1,2,0Zm-1,5a1,1,0,1,1-1,1A1,1,0,0,1,16,52Zm2.816,0H21v2H18.816a2.809,2.809,0,0,0,0-2ZM36,60H28V58a4,4,0,0,1,8,0Zm2,0V58a6,6,0,0,0-12,0v2H23V51.535L25.3,50H38.7L41,51.535V60ZM36,43a1,1,0,0,0-.447.1L32,44.882l-3.553-1.777A1,1,0,0,0,28,43H26V38.293A6.2,6.2,0,0,1,31.814,32,6,6,0,0,1,38,38v5Zm-7,2.618L31.553,46.9a1,1,0,0,0,.894,0L35,45.618V48H29ZM43,52h2.184a2.809,2.809,0,0,0,0,2H43Zm4,1a1,1,0,1,1,1,1A1,1,0,0,1,47,53Zm2-6v3.184a2.809,2.809,0,0,0-2,0V47a1,1,0,0,1,2,0Zm2,13H43V56h5a3,3,0,0,0,3-3V47a2.972,2.972,0,0,0-.619-1.8A3.982,3.982,0,0,0,52,42H50a2,2,0,0,1-4,0H44a3.982,3.982,0,0,0,1.619,3.2A2.972,2.972,0,0,0,45,47v3H42.3l-2.748-1.832A1.006,1.006,0,0,0,39,48H37V45h2a1,1,0,0,0,1-1V38a8,8,0,0,0-8.246-8A8.213,8.213,0,0,0,24,38.293V44a1,1,0,0,0,1,1h2v3H25a1.006,1.006,0,0,0-.555.168L21.7,50H19V47a2.972,2.972,0,0,0-.619-1.8A3.982,3.982,0,0,0,20,42H18a2,2,0,0,1-4,0H12a3.982,3.982,0,0,0,1.619,3.2A2.972,2.972,0,0,0,13,47v6a3,3,0,0,0,3,3h5v4H13a3,3,0,0,1-3-3V7a3,3,0,0,1,3-3H46V9a3,3,0,0,0,3,3h5V57A3,3,0,0,1,51,60Z"/><path d="M40,11a1,1,0,0,0-1-1H37V8H35v2H33V8H31v2H29V8H27v2H25a1,1,0,0,0-1,1v2H20v2h4v2H20v2h4v2H20v2h4v2a1,1,0,0,0,1,1h2v2h2V26h2v2h2V26h2v2h2V26h2a1,1,0,0,0,1-1V23h4V21H40V19h4V17H40V15h4V13H40ZM38,24H26V12H38Z"/><path d="M29,22h4a1,1,0,0,0,.708-.293l2-2A1,1,0,0,0,36,19V15a1,1,0,0,0-1-1H29a1,1,0,0,0-1,1v6A1,1,0,0,0,29,22Zm1-6h4v2.586L32.588,20H30Z"/></g></svg>