<svg xmlns="http://www.w3.org/2000/svg" viewBox="0 0 64 64"><g id="Robot-Robotic-Engineer-Technology-Transport"><path d="M61,55v4a2.006,2.006,0,0,1-2,2H55Z" style="fill:#898890"/><path d="M61,47v8l-6,6H51a2.006,2.006,0,0,1-2-2Z" style="fill:#57565c"/><path d="M61,47,49,59V51l6-6h4A2.006,2.006,0,0,1,61,47Z" style="fill:#898890"/><path d="M55,45l-6,6V47a2.006,2.006,0,0,1,2-2Z" style="fill:#57565c"/><path d="M53,23v4a1,1,0,0,1-1,1H49V22h3A1,1,0,0,1,53,23Z" style="fill:#ee8700"/><polygon points="49 51 49 56 45 56 45 50 49 50 49 51" style="fill:#acabb1"/><polygon points="49 28 49 35 43 39 41 39 23 39 21 39 15 35 15 28 15 22 15 18 19 18 19 32.86 22.21 35 41.79 35 45 32.86 45 18 49 18 49 22 49 28" style="fill:#ff9811"/><path d="M45,45V56H19V45a2.006,2.006,0,0,1,2-2H43A2.006,2.006,0,0,1,45,45Z" style="fill:#ff9811"/><rect x="23" y="39" width="18" height="4" style="fill:#ee8700"/><rect x="25" y="46" width="14" height="6" rx="2" style="fill:#ffd422"/><polygon points="19 50 19 56 15 56 15 51 15 50 19 50" style="fill:#acabb1"/><path d="M15,56v3L3,47a2.006,2.006,0,0,1,2-2H9l6,6Z" style="fill:#898890"/><path d="M15,50v1L9,45h4a2.006,2.006,0,0,1,2,2Z" style="fill:#57565c"/><path d="M15,22v6H12a1,1,0,0,1-1-1V23a1,1,0,0,1,1-1Z" style="fill:#ee8700"/><path d="M3,47,15,59a2.006,2.006,0,0,1-2,2H9L3,55Z" style="fill:#57565c"/><path d="M9,61H5a2.006,2.006,0,0,1-2-2V55Z" style="fill:#898890"/><polygon points="34 15 34 18 32 21 30 18 30 15 34 15" style="fill:#ffc477"/><path d="M41,23.02V31H23V23.02a4,4,0,0,1,2.9-3.85l2.1-.6V22l4-1,4,1V18.57l2.1.6A4,4,0,0,1,41,23.02Z" style="fill:#3d9ae2"/><path d="M37,10H34V5.41A5.029,5.029,0,0,1,37,10Z" style="fill:#ff9811"/><polygon points="36 18.57 36 22 32 21 34 18 35.45 18.41 36 18.57" style="fill:#1e81ce"/><path d="M34,15v1.46a3.974,3.974,0,0,1-4,0V15Z" style="fill:#ffb655"/><path d="M32,3a2.015,2.015,0,0,0-2,2v5h4V5A2.006,2.006,0,0,0,32,3Z" style="fill:#ffa733"/><polygon points="30 18 32 21 28 22 28 18.57 28.55 18.41 30 18" style="fill:#1e81ce"/><path d="M30,5.41V10H27A5.029,5.029,0,0,1,30,5.41Z" style="fill:#ff9811"/><path d="M36,10v2a4.025,4.025,0,0,1-1.17,2.83,4.225,4.225,0,0,1-.83.63A4,4,0,0,1,28,12V10h8Z" style="fill:#ffc477"/><rect x="28" y="10" width="8" height="2" style="fill:#ffb655"/><path d="M37,45H27a3,3,0,0,0-3,3v2a3,3,0,0,0,3,3H37a3,3,0,0,0,3-3V48A3,3,0,0,0,37,45Zm1,5a1,1,0,0,1-1,1H27a1,1,0,0,1-1-1V48a1,1,0,0,1,1-1H37a1,1,0,0,1,1,1Z"/><path d="M59,44H51a3.009,3.009,0,0,0-3,3v2H46V45a3.009,3.009,0,0,0-3-3H42V40h1a.967.967,0,0,0,.55-.17l6-4A1,1,0,0,0,50,35V29h2a2.006,2.006,0,0,0,2-2V23a2.006,2.006,0,0,0-2-2H50V18a1,1,0,0,0-1-1H45a1,1,0,0,0-1,1V32.32L41.49,34H22.51L20,32.32V18a1,1,0,0,0-1-1H15a1,1,0,0,0-1,1v3H12a2.006,2.006,0,0,0-2,2v4a2.006,2.006,0,0,0,2,2h2v6a1,1,0,0,0,.45.83l6,4A.967.967,0,0,0,21,40h1v2H21a3.009,3.009,0,0,0-3,3v4H16V47a3.009,3.009,0,0,0-3-3H5a3.009,3.009,0,0,0-3,3V59a3.009,3.009,0,0,0,3,3h8a3.009,3.009,0,0,0,3-3V57H48v2a3.009,3.009,0,0,0,3,3h8a3.009,3.009,0,0,0,3-3V47A3.009,3.009,0,0,0,59,44ZM50,23h2v4H50ZM14,27H12V23h2ZM5,60a1,1,0,0,1-1-1V57.41L6.59,60Zm8,0H9.41L4,54.59V49.41l9.93,9.93A.983.983,0,0,1,13,60Zm1-3.41L4.07,46.66A.983.983,0,0,1,5,46H8.59L14,51.41Zm0-8L11.41,46H13a1,1,0,0,1,1,1ZM18,55H16V51h2Zm3.3-17L16,34.46V19h2V32.86a1,1,0,0,0,.45.83l3.21,2.14a.967.967,0,0,0,.55.17H41.79a.967.967,0,0,0,.55-.17l3.21-2.14a1,1,0,0,0,.45-.83V19h2V34.46L42.7,38ZM40,40v2H24V40Zm4,15H20V45a1,1,0,0,1,1-1H43a1,1,0,0,1,1,1Zm4,0H46V51h2Zm2-8a1,1,0,0,1,1-1h1.59L50,48.59Zm0,4.41L55.41,46H59a.983.983,0,0,1,.93.66L50,56.59ZM60,59a1,1,0,0,1-1,1H57.41L60,57.41Zm0-4.41L54.59,60H51a.983.983,0,0,1-.93-.66L60,49.41Z"/><path d="M38.38,18.21,35,17.24V15.97A4.952,4.952,0,0,0,37,12V11h2V9H37.91a6.017,6.017,0,0,0-2.93-4.2,2.986,2.986,0,0,0-5.96,0A6.017,6.017,0,0,0,26.09,9H25v2h2v1a4.952,4.952,0,0,0,2,3.97v1.27l-3.37.97A5.013,5.013,0,0,0,22,23.02V31a1,1,0,0,0,1,1H41a1,1,0,0,0,1-1V23.02A5.016,5.016,0,0,0,38.38,18.21ZM35,7.36A3.927,3.927,0,0,1,35.86,9H35ZM31,5a1,1,0,0,1,2,0V9H31Zm4,6v1a3,3,0,0,1-6,0V11Zm0,8.33v1.39l-1.38-.35.81-1.21ZM28.14,9A3.927,3.927,0,0,1,29,7.36V9ZM29,19.33l.57-.17.81,1.21L29,20.72ZM31,30H24V23.02a3.009,3.009,0,0,1,2.18-2.89L27,19.9V22a.99.99,0,0,0,1,1,.986.986,0,0,0,.24-.03L31,22.28Zm0-12.3v-.8a5.05,5.05,0,0,0,2,0v.8l-1,1.5ZM40,30H33V22.28l2.76.69A.986.986,0,0,0,36,23a.99.99,0,0,0,1-1V19.9l.83.23A3.012,3.012,0,0,1,40,23.02Z"/></g></svg>