<svg xmlns="http://www.w3.org/2000/svg" viewBox="0 0 64 64"><g id="Sand_Boxes-Construction-Sand-Transport-Tool" data-name="Sand Boxes-Construction-Sand-Transport-Tool"><path d="M59,48a8,8,0,0,1-8,8H15a8,8,0,0,1,0-16H51a7.989,7.989,0,0,1,8,8Z" style="fill:#898890"/><circle cx="51" cy="48" r="4" style="fill:#d8d7da"/><polygon points="52 22 52 26 50 26 16 26 14 26 14 22 16 22 50 22 52 22" style="fill:#009986"/><polygon points="50 26 49.71 28 48 40 18 40 16.29 28 16 26 50 26" style="fill:#00ccb3"/><path d="M50,22H16A14,14,0,0,1,30,8h6A14,14,0,0,1,50,22Z" style="fill:#ffa733"/><circle cx="39" cy="48" r="4" style="fill:#d8d7da"/><circle cx="27" cy="48" r="4" style="fill:#d8d7da"/><circle cx="15" cy="48" r="4" style="fill:#d8d7da"/><polygon points="50 26 49.71 28 16.29 28 16 26 50 26" style="fill:#00b39d"/><path d="M39,43a5,5,0,1,0,5,5A5.006,5.006,0,0,0,39,43Zm0,8a3,3,0,1,1,3-3A3,3,0,0,1,39,51Z"/><path d="M51,43a5,5,0,1,0,5,5A5.006,5.006,0,0,0,51,43Zm0,8a3,3,0,1,1,3-3A3,3,0,0,1,51,51Z"/><path d="M15,43a5,5,0,1,0,5,5A5.006,5.006,0,0,0,15,43Zm0,8a3,3,0,1,1,3-3A3,3,0,0,1,15,51Z"/><path d="M6.75,40.732,5.25,39.41A12.974,12.974,0,0,0,2,48H4A10.983,10.983,0,0,1,6.75,40.732Z"/><path d="M2.181,50.166a12.983,12.983,0,0,0,.562,2.168l1.885-.668a10.964,10.964,0,0,1-.476-1.832Z"/><path d="M59.25,40.732l1.5-1.322a13.032,13.032,0,0,0-7.584-4.229l-.332,1.972A11.03,11.03,0,0,1,59.25,40.732Z"/><path d="M51,39H49.15l1.72-12H52a1,1,0,0,0,1-1V22a1,1,0,0,0-1-1H50.95A15.015,15.015,0,0,0,36,7H30A15.015,15.015,0,0,0,15.05,21H14a1,1,0,0,0-1,1v4a1,1,0,0,0,1,1h1.13l1.72,12H15a9,9,0,0,0,0,18H51a9,9,0,0,0,0-18ZM30,9h6A13.008,13.008,0,0,1,48.95,21H17.05A13.008,13.008,0,0,1,30,9ZM15,25V23H51v2Zm33.85,2L47.13,39H18.87L17.15,27ZM51,55H15a7,7,0,0,1,0-14H51a7,7,0,0,1,0,14Z"/><rect x="14" y="47" width="2" height="2"/><rect x="38" y="47" width="2" height="2"/><path d="M27,43a5,5,0,1,0,5,5A5.006,5.006,0,0,0,27,43Zm0,8a3,3,0,1,1,3-3A3,3,0,0,1,27,51Z"/><rect x="26" y="47" width="2" height="2"/><rect x="50" y="47" width="2" height="2"/><rect x="32" y="29" width="2" height="8"/><rect x="35.469" y="32" width="8.062" height="2" transform="translate(1.855 68.102) rotate(-82.875)"/><rect x="41.469" y="32" width="8.062" height="2" transform="translate(7.111 74.055) rotate(-82.875)"/><rect x="25.5" y="28.969" width="2" height="8.062" transform="translate(-3.889 3.542) rotate(-7.125)"/><rect x="19.5" y="28.969" width="2" height="8.062" transform="translate(-3.935 2.798) rotate(-7.125)"/><rect x="28" y="12" width="2" height="2"/><rect x="32" y="11" width="2" height="2"/><rect x="36" y="12" width="2" height="2"/><rect x="40" y="13" width="2" height="2"/><rect x="36" y="16" width="2" height="2"/><rect x="32" y="15" width="2" height="2"/><rect x="24" y="13" width="2" height="2"/><rect x="28" y="16" width="2" height="2"/><rect x="24" y="17" width="2" height="2"/><rect x="20" y="16" width="2" height="2"/><rect x="40" y="17" width="2" height="2"/><rect x="44" y="16" width="2" height="2"/></g></svg>