<svg xmlns="http://www.w3.org/2000/svg" viewBox="0 0 64 64"><g id="Smartphone-Tablet-Hand-Control-Setting"><path d="M19,3V39H13a4,4,0,0,1-4-4V7a4,4,0,0,1,4-4Z" style="fill:#c6c5ca"/><path d="M61,7V35a4,4,0,0,1-4,4H19V3H57A4,4,0,0,1,61,7Z" style="fill:#5aaae7"/><path d="M51.68,25.47a9.8,9.8,0,0,1-1.09,2.62l2.02,2.69-2.83,2.83L48,32.27l-.91-.68a9.8,9.8,0,0,1-2.62,1.09L44,36H40l-.47-3.32a9.8,9.8,0,0,1-2.62-1.09l-2.69,2.02-2.83-2.83,2.02-2.69a9.8,9.8,0,0,1-1.09-2.62L29,25V21l3.32-.47a9.8,9.8,0,0,1,1.09-2.62l-2.02-2.69,2.83-2.83,2.69,2.02a9.8,9.8,0,0,1,2.62-1.09L40,10h4l.47,3.32a9.8,9.8,0,0,1,2.62,1.09l2.69-2.02,2.83,2.83-2.02,2.69a9.8,9.8,0,0,1,1.09,2.62L55,21v4Z" style="fill:#3d9ae2"/><path d="M49.68,23.47a9.8,9.8,0,0,1-1.09,2.62l2.02,2.69-2.83,2.83L46,30.27l-.91-.68a9.8,9.8,0,0,1-2.62,1.09L42,34H38l-.47-3.32a9.8,9.8,0,0,1-2.62-1.09l-2.69,2.02-2.83-2.83,2.02-2.69a9.8,9.8,0,0,1-1.09-2.62L27,23V19l3.32-.47a9.8,9.8,0,0,1,1.09-2.62l-2.02-2.69,2.83-2.83,2.69,2.02a9.8,9.8,0,0,1,2.62-1.09L38,8h4l.47,3.32a9.8,9.8,0,0,1,2.62,1.09l2.69-2.02,2.83,2.83-2.02,2.69a9.8,9.8,0,0,1,1.09,2.62L53,19v4Z" style="fill:#ff9811"/><circle cx="40" cy="21" r="5" style="fill:#ffd422"/><path d="M57.69,38.94a1.871,1.871,0,0,0-.28-.35A1.955,1.955,0,0,0,56,38a2,2,0,0,0-2,2V39a2.015,2.015,0,0,0-2-2,2.006,2.006,0,0,0-2,2V38a2.015,2.015,0,0,0-2-2,2.006,2.006,0,0,0-2,2V29a2.015,2.015,0,0,0-2-2,2.006,2.006,0,0,0-2,2V40a2,2,0,0,0-.27-1,1.813,1.813,0,0,0-.32-.41A1.955,1.955,0,0,0,40,38a2,2,0,0,0-2,2V50l4,6v5H55V56l3-6V40A1.936,1.936,0,0,0,57.69,38.94Z" style="fill:#ffc477"/><path d="M19,25.95a1.4,1.4,0,0,0-.34-.13,2,2,0,0,0-2.45,1.42l-1.16,4.3a1.981,1.981,0,0,1-1.92,1.47h-.02a1.96,1.96,0,0,1-1.68-.96L9,28V19a6,6,0,0,0-6,6V36.53a1.974,1.974,0,0,0,.21.89l1.58,3.16a1.974,1.974,0,0,1,.21.89V46H15.05a7.945,7.945,0,0,1,.79-2.69l1.53-3.04A6.431,6.431,0,0,0,17.83,39,6.13,6.13,0,0,0,18,37.58v-.79a6.216,6.216,0,0,1,.2-1.55l.8-2.98,1.07-3.99a1.861,1.861,0,0,0,.07-.52A2,2,0,0,0,19,25.95Z" style="fill:#ffc477"/><circle cx="14" cy="21" r="2" style="fill:#e6e7e8"/><rect x="5" y="52" width="10" height="9" style="fill:#5aaae7"/><polygon points="15.05 46 5 46 4 46 4 52 5 52 15 52 16 52 16 46 15.05 46" style="fill:#1e81ce"/><path d="M57,2H13A5,5,0,0,0,8,7V18.08A7,7,0,0,0,2,25V36.53a2.971,2.971,0,0,0,.32,1.34L3.9,41.03a.947.947,0,0,1,.1.44V45a1,1,0,0,0-1,1v6a1,1,0,0,0,1,1v8a1,1,0,0,0,1,1H15a1,1,0,0,0,1-1V53a1,1,0,0,0,1-1V46a.985.985,0,0,0-.75-.95,7.118,7.118,0,0,1,.48-1.29l1.54-3.05c.11-.23.21-.47.3-.71H37V50a.967.967,0,0,0,.17.55L41,56.3V61a1,1,0,0,0,1,1H55a1,1,0,0,0,1-1V56.24l2.89-5.79A1,1,0,0,0,59,50V40a2.713,2.713,0,0,0-.04-.41A5,5,0,0,0,62,35V7A5,5,0,0,0,57,2ZM10,7a3.009,3.009,0,0,1,3-3h5V24.77a2.885,2.885,0,0,0-1.36.39,2.978,2.978,0,0,0-1.4,1.82l-1.16,4.3a.982.982,0,0,1-.97.73.961.961,0,0,1-.82-.47L10,27.72Zm4,53H6V53h8Zm1-9H5V47H15Zm4.1-22.99-1.87,6.98a7.343,7.343,0,0,0-.23,1.8v.79a5.177,5.177,0,0,1-.52,2.24l-1.53,3.04A8.916,8.916,0,0,0,14.2,45H6V41.47a2.971,2.971,0,0,0-.32-1.34L4.1,36.97a.947.947,0,0,1-.1-.44V25a5.009,5.009,0,0,1,4-4.9V28a1,1,0,0,0,.14.51l2.43,4.05a2.99,2.99,0,0,0,5.45-.76l1.16-4.31a.955.955,0,0,1,.46-.6.969.969,0,0,1,.76-.1.985.985,0,0,1,.74.96A.783.783,0,0,1,19.1,28.01ZM57,49.76l-2.89,5.79A1,1,0,0,0,54,56v4H43V56a.967.967,0,0,0-.17-.55L39,49.7V40a1,1,0,0,1,2,0v6h2V29a1,1,0,0,1,2,0V42h2V38a1,1,0,0,1,2,0v4h2V39a1,1,0,0,1,2,0v3h2V40a1,1,0,0,1,2,0ZM32.27,25.58a8.6,8.6,0,0,1-.98-2.36,1.008,1.008,0,0,0-.83-.74L28,22.13V19.87l2.46-.35a1.008,1.008,0,0,0,.83-.74,8.6,8.6,0,0,1,.98-2.36,1,1,0,0,0-.06-1.11l-1.5-2,1.6-1.6,2,1.5a.981.981,0,0,0,1.11.06,8.6,8.6,0,0,1,2.36-.98,1.008,1.008,0,0,0,.74-.83L38.87,9h2.26l.35,2.46a1.008,1.008,0,0,0,.74.83,8.6,8.6,0,0,1,2.36.98,1,1,0,0,0,1.11-.06l2-1.5,1.6,1.6-1.5,2a1,1,0,0,0-.06,1.11,8.6,8.6,0,0,1,.98,2.36,1.008,1.008,0,0,0,.83.74l2.46.35v2.26l-2.46.35a1.008,1.008,0,0,0-.83.74,8.6,8.6,0,0,1-.98,2.36,1,1,0,0,0,.06,1.11l1.5,2-1.6,1.6L47,29.77V29a3.009,3.009,0,0,0-3-3,2.946,2.946,0,0,0-.99.18,5.76,5.76,0,1,0-.73.37A2.984,2.984,0,0,0,41,29v4H38.87l-.35-2.46a1.008,1.008,0,0,0-.74-.83,8.6,8.6,0,0,1-2.36-.98.981.981,0,0,0-1.11.06l-2,1.5-1.6-1.6,1.5-2A1,1,0,0,0,32.27,25.58ZM40,25a4,4,0,1,1,4-4A4,4,0,0,1,40,25ZM60,35a2.981,2.981,0,0,1-1.96,2.81A2.987,2.987,0,0,0,56,37a2.942,2.942,0,0,0-1.47.4A2.983,2.983,0,0,0,52,36a2.942,2.942,0,0,0-1.47.4A2.957,2.957,0,0,0,47,35.18V32.27l.18.14a1,1,0,0,0,1.31-.09l2.83-2.83a1,1,0,0,0,.09-1.31l-1.63-2.17a10.69,10.69,0,0,0,.68-1.64l2.68-.38A1,1,0,0,0,54,23V19a1,1,0,0,0-.86-.99l-2.68-.38a10.69,10.69,0,0,0-.68-1.64l1.63-2.17a1,1,0,0,0-.09-1.31L48.49,9.68a1,1,0,0,0-1.31-.09l-2.17,1.63a10.69,10.69,0,0,0-1.64-.68l-.38-2.68A1,1,0,0,0,42,7H38a1,1,0,0,0-.99.86l-.38,2.68a10.69,10.69,0,0,0-1.64.68L32.82,9.59a1,1,0,0,0-1.31.09l-2.83,2.83a1,1,0,0,0-.09,1.31l1.63,2.17a10.69,10.69,0,0,0-.68,1.64l-2.68.38A1,1,0,0,0,26,19v4a1,1,0,0,0,.86.99l2.68.38a10.69,10.69,0,0,0,.68,1.64l-1.63,2.17a1,1,0,0,0,.09,1.31l2.83,2.83a1,1,0,0,0,1.31.09l2.17-1.63a10.69,10.69,0,0,0,1.64.68l.38,2.68A1,1,0,0,0,38,35h3v2.18a2.937,2.937,0,0,0-3.22.82H20V32.39l1.03-3.84A2.97,2.97,0,0,0,20,25.41V4H57a3.009,3.009,0,0,1,3,3Z"/><path d="M14,24a3,3,0,1,0-3-3A3,3,0,0,0,14,24Zm0-4a1,1,0,1,1-1,1A1,1,0,0,1,14,20Z"/></g></svg>