<svg xmlns="http://www.w3.org/2000/svg" viewBox="0 0 64 64"><g id="Tablet-Smartphone-Engineer-Technology-Construction"><rect x="10" y="3" width="44" height="58" rx="4" style="fill:#5aaae7"/><circle cx="32" cy="55" r="2" style="fill:#e6e7e8"/><path d="M42.44,43.42,39.7,42.2,37,41V38.32A6.952,6.952,0,0,0,40.92,33H42a2,2,0,0,0,0-4H41V27a2.006,2.006,0,0,0,2-2,2.015,2.015,0,0,0-2-2,5.47,5.47,0,0,0-.09-1A5.984,5.984,0,0,0,36,17.09V16a1,1,0,0,0-1-1H33a1,1,0,0,0-1,1v1.09A5.992,5.992,0,0,0,27.09,22,5.47,5.47,0,0,0,27,23a2.006,2.006,0,0,0-2,2,2.015,2.015,0,0,0,2,2v2H26a2,2,0,0,0,0,4h1.08A6.946,6.946,0,0,0,31,38.32V41l-2.7,1.2-2.74,1.22A6,6,0,0,0,22,48.9V51H46V48.9A6,6,0,0,0,42.44,43.42Z" style="fill:#3d9ae2"/><path d="M44,46.9V49H35l-1.82-6.18L34,42l3,1,.7-2.8,2.74,1.22A6,6,0,0,1,44,46.9Z" style="fill:#1e81ce"/><path d="M40.41,21.59A1.955,1.955,0,0,1,41,23a2.006,2.006,0,0,1-2,2H25a2.015,2.015,0,0,1-2-2,2.006,2.006,0,0,1,2-2H39A1.955,1.955,0,0,1,40.41,21.59Z" style="fill:#f7910c"/><path d="M39,21H34V15.09A5.984,5.984,0,0,1,38.91,20,5.47,5.47,0,0,1,39,21Z" style="fill:#ff9811"/><polygon points="37.7 40.2 37 43 34 42 33 40 35 39 37.7 40.2" style="fill:#1a6fb0"/><polygon points="33.18 42.82 35 49 29 49 30.82 42.82 32 44 33.18 42.82" style="fill:#ed1c24"/><path d="M34,15.09V21H30V14a1,1,0,0,1,1-1h2a1,1,0,0,1,1,1Z" style="fill:#ffa733"/><polygon points="33 40 34 42 33.18 42.82 32 44 30.82 42.82 30 42 31 40 33 40" style="fill:#ed1c24"/><polygon points="31 40 30 42 27 43 26.3 40.2 29 39 31 40" style="fill:#1a6fb0"/><path d="M30.82,42.82,29,49H20V46.9a6,6,0,0,1,3.56-5.48L26.3,40.2,27,43l3-1Z" style="fill:#1e81ce"/><path d="M30,15.09V21H25a5.47,5.47,0,0,1,.09-1A5.992,5.992,0,0,1,30,15.09Z" style="fill:#ff9811"/><polygon points="35 36 35 39 33 40 31 40 29 39 29 36 35 36" style="fill:#ffc477"/><path d="M26,27v4H24a2,2,0,0,1,0-4Z" style="fill:#ffb655"/><path d="M42,29a2.006,2.006,0,0,1-2,2H38V27h2A2.006,2.006,0,0,1,42,29Z" style="fill:#ffb655"/><path d="M35,36v2.32a6.958,6.958,0,0,1-6,0V36Z" style="fill:#ffb655"/><path d="M39,27v3a5.474,5.474,0,0,1-.08,1A6.952,6.952,0,0,1,35,36.32,6.982,6.982,0,0,1,25.08,31,5.474,5.474,0,0,1,25,30V25H39Z" style="fill:#ffc477"/><rect x="25" y="25" width="14" height="2" style="fill:#ffb655"/><path d="M50,2H14A5,5,0,0,0,9,7V57a5,5,0,0,0,5,5H50a5,5,0,0,0,5-5V7A5,5,0,0,0,50,2Zm3,55a3.009,3.009,0,0,1-3,3H14a3.009,3.009,0,0,1-3-3V7a3.009,3.009,0,0,1,3-3H50a3.009,3.009,0,0,1,3,3Z"/><rect x="31" y="6" width="2" height="2"/><path d="M32,52a3,3,0,1,0,3,3A3,3,0,0,0,32,52Zm0,4a1,1,0,1,1,1-1A1,1,0,0,1,32,56Z"/><rect x="28" y="28" width="2" height="2"/><rect x="34" y="28" width="2" height="2"/><path d="M45,48V46.9a7,7,0,0,0-4.15-6.39L36,38.35V36.92A8.06,8.06,0,0,0,39.74,32H40a3,3,0,0,0,0-6v-.18a2.983,2.983,0,0,0-.05-5.65,6.934,6.934,0,0,0-2-4.11A6.756,6.756,0,0,0,35,14.31V14a2.006,2.006,0,0,0-2-2H31a2.006,2.006,0,0,0-2,2v.3a6.96,6.96,0,0,0-4.95,5.87A2.983,2.983,0,0,0,24,25.82V26a3,3,0,0,0,0,6h.26A8.06,8.06,0,0,0,28,36.92v1.43l-4.85,2.16A7,7,0,0,0,19,46.9V48H17v2H47V48ZM24,30a1,1,0,0,1,0-2ZM36.53,40.77l-.24.94-1.58-.53-.37-.73.68-.34ZM41,29a1,1,0,0,1-1,1V28A1,1,0,0,1,41,29ZM35,16.43a5.106,5.106,0,0,1,1.54,1.04A4.913,4.913,0,0,1,37.9,20H35ZM31,14h2v6H31Zm-2,2.43V20H26.1A4.961,4.961,0,0,1,29,16.43ZM24,23a1,1,0,0,1,1-1H39a1,1,0,0,1,0,2H25A1,1,0,0,1,24,23Zm2,7V26H38v4a6,6,0,0,1-12,0Zm2.98,10.11.68.34-.37.73-1.58.53-.24-.94ZM28.25,48H21V46.9a5,5,0,0,1,2.97-4.57l1.65-.73.41,1.64a1.017,1.017,0,0,0,.49.64A1,1,0,0,0,27,44a1.185,1.185,0,0,0,.32-.05l2.36-.79Zm2.09,0,.96-3.29a.99.99,0,0,0,1.4,0L33.66,48Zm.88-6.2.4-.8h.76l.4.8-.78.79ZM34,38.38,32.76,39H31.24L30,38.38v-.64a7.822,7.822,0,0,0,4,0ZM43,48H35.75l-1.43-4.84,2.36.79A1.185,1.185,0,0,0,37,44a1,1,0,0,0,.48-.12,1.017,1.017,0,0,0,.49-.64l.41-1.64,1.65.73A5,5,0,0,1,43,46.9Z"/></g></svg>