<svg xmlns="http://www.w3.org/2000/svg" viewBox="0 0 64 64"><g id="Tablet-Smartphone-Control-Engineering-Setting"><path d="M61,13V41a4,4,0,0,1-4,4H19V9H57A4,4,0,0,1,61,13Z" style="fill:#5aaae7"/><path d="M19,9V45H13a4,4,0,0,1-4-4V13a4,4,0,0,1,4-4Z" style="fill:#c6c5ca"/><path d="M51.68,31.47a9.8,9.8,0,0,1-1.09,2.62l2.02,2.69-2.83,2.83-2.69-2.02a9.8,9.8,0,0,1-2.62,1.09L44,42H40l-.47-3.32a9.8,9.8,0,0,1-2.62-1.09l-2.69,2.02-2.83-2.83,2.02-2.69a9.8,9.8,0,0,1-1.09-2.62L29,31V27l3.32-.47a9.8,9.8,0,0,1,1.09-2.62l-2.02-2.69,2.83-2.83,2.69,2.02a9.8,9.8,0,0,1,2.62-1.09L40,16h4l.47,3.32a9.8,9.8,0,0,1,2.62,1.09l2.69-2.02,2.83,2.83-2.02,2.69a9.8,9.8,0,0,1,1.09,2.62L55,27v4Z" style="fill:#3d9ae2"/><path d="M49.68,29.47a9.8,9.8,0,0,1-1.09,2.62l2.02,2.69-2.83,2.83-2.69-2.02a9.8,9.8,0,0,1-2.62,1.09L42,40H38l-.47-3.32a9.8,9.8,0,0,1-2.62-1.09l-2.69,2.02-2.83-2.83,2.02-2.69a9.8,9.8,0,0,1-1.09-2.62L27,29V25l3.32-.47a9.8,9.8,0,0,1,1.09-2.62l-2.02-2.69,2.83-2.83,2.69,2.02a9.8,9.8,0,0,1,2.62-1.09L38,14h4l.47,3.32a9.8,9.8,0,0,1,2.62,1.09l2.69-2.02,2.83,2.83-2.02,2.69a9.8,9.8,0,0,1,1.09,2.62L53,25v4Z" style="fill:#ff9811"/><circle cx="40" cy="27" r="5" style="fill:#ffd422"/><circle cx="14" cy="27" r="2" style="fill:#e6e7e8"/><path d="M19,31.95a1.4,1.4,0,0,0-.34-.13,2,2,0,0,0-2.45,1.42l-1.16,4.3a1.981,1.981,0,0,1-1.92,1.47h-.02a1.96,1.96,0,0,1-1.68-.96L9,34V25a6,6,0,0,0-6,6V42.53a1.974,1.974,0,0,0,.21.89l1.58,3.16a1.974,1.974,0,0,1,.21.89V59H15V52.89a8.081,8.081,0,0,1,.84-3.58l1.53-3.04A6.431,6.431,0,0,0,17.83,45,6.13,6.13,0,0,0,18,43.58v-.79a6.216,6.216,0,0,1,.2-1.55l.8-2.98,1.07-3.99a1.861,1.861,0,0,0,.07-.52A2,2,0,0,0,19,31.95Z" style="fill:#ffc477"/><path d="M57,8H13a5.006,5.006,0,0,0-5,5V24.08A7,7,0,0,0,2,31V42.528a3.022,3.022,0,0,0,.316,1.342L3.9,47.024a1.027,1.027,0,0,1,.1.448V59a1,1,0,0,0,1,1H15a1,1,0,0,0,1-1V52.889a7.031,7.031,0,0,1,.739-3.131l1.522-3.044A6.906,6.906,0,0,0,18.567,46H57a5.006,5.006,0,0,0,5-5V13A5.006,5.006,0,0,0,57,8ZM10,13a3,3,0,0,1,3-3h5V30.771a2.959,2.959,0,0,0-2.759,2.208l-1.153,4.3a.963.963,0,0,1-.966.732.98.98,0,0,1-.835-.48L10,33.723V13Zm7,29.79v.793a5.036,5.036,0,0,1-.528,2.237L14.95,48.864A9.05,9.05,0,0,0,14,52.889V58H6V47.472a3.022,3.022,0,0,0-.316-1.342L4.105,42.976A1.027,1.027,0,0,1,4,42.528V31a5.008,5.008,0,0,1,4-4.9V34a1,1,0,0,0,.143.515l2.429,4.048A2.969,2.969,0,0,0,13.1,40.014,3.025,3.025,0,0,0,16.02,37.8l1.153-4.3a1,1,0,1,1,1.931.518l-1.865,6.964A6.978,6.978,0,0,0,17,42.79ZM60,41a3,3,0,0,1-3,3H20V38.4l1.036-3.867A2.985,2.985,0,0,0,20,31.406V10H57a3,3,0,0,1,3,3Z"/><path d="M14,30a3,3,0,1,0-3-3A3,3,0,0,0,14,30Zm0-4a1,1,0,1,1-1,1A1,1,0,0,1,14,26Z"/><rect x="28" y="48" width="14" height="2"/><rect x="44" y="48" width="2" height="2"/><rect x="32" y="4" width="14" height="2"/><rect x="28" y="4" width="2" height="2"/><path d="M53.142,24.01l-2.682-.383a10.86,10.86,0,0,0-.679-1.639l1.625-2.166a1,1,0,0,0-.093-1.307l-2.828-2.828a1,1,0,0,0-1.306-.093l-2.167,1.624a10.9,10.9,0,0,0-1.639-.678l-.383-2.682A1,1,0,0,0,42,13H38a1,1,0,0,0-.99.858l-.383,2.682a10.855,10.855,0,0,0-1.639.678l-2.166-1.624a1,1,0,0,0-1.307.093l-2.828,2.828a1,1,0,0,0-.093,1.307l1.624,2.166a10.96,10.96,0,0,0-.678,1.639l-2.682.383A1,1,0,0,0,26,25v4a1,1,0,0,0,.858.99l2.682.383a10.96,10.96,0,0,0,.678,1.639l-1.624,2.166a1,1,0,0,0,.093,1.307l2.828,2.828a1,1,0,0,0,1.307.093l2.166-1.624a10.855,10.855,0,0,0,1.639.678l.383,2.682A1,1,0,0,0,38,41h4a1,1,0,0,0,.99-.858l.383-2.682a10.9,10.9,0,0,0,1.639-.678l2.167,1.624a1,1,0,0,0,1.306-.093l2.828-2.828a1,1,0,0,0,.093-1.307l-1.625-2.166a10.86,10.86,0,0,0,.679-1.639l2.682-.383A1,1,0,0,0,54,29V25A1,1,0,0,0,53.142,24.01ZM52,28.133l-2.463.352a1,1,0,0,0-.827.742,8.923,8.923,0,0,1-.977,2.357,1,1,0,0,0,.061,1.111l1.492,1.99-1.6,1.6-1.991-1.492a1,1,0,0,0-1.11-.06,8.859,8.859,0,0,1-2.356.975,1,1,0,0,0-.744.828L41.133,39H38.867l-.351-2.463a1,1,0,0,0-.744-.828,8.859,8.859,0,0,1-2.356-.975,1,1,0,0,0-1.11.06l-1.991,1.492-1.6-1.6,1.492-1.99a1,1,0,0,0,.06-1.111,8.892,8.892,0,0,1-.975-2.356,1,1,0,0,0-.828-.743L28,28.133V25.867l2.463-.352a1,1,0,0,0,.828-.743,8.892,8.892,0,0,1,.975-2.356,1,1,0,0,0-.06-1.111l-1.492-1.99,1.6-1.6,1.991,1.492a1,1,0,0,0,1.11.06,8.859,8.859,0,0,1,2.356-.975,1,1,0,0,0,.744-.828L38.867,15h2.266l.351,2.463a1,1,0,0,0,.744.828,8.859,8.859,0,0,1,2.356.975,1,1,0,0,0,1.11-.06l1.991-1.492,1.6,1.6-1.492,1.99a1,1,0,0,0-.061,1.111,8.923,8.923,0,0,1,.977,2.357,1,1,0,0,0,.827.742L52,25.867Z"/><path d="M40,21a6,6,0,1,0,6,6A6.006,6.006,0,0,0,40,21Zm0,10a4,4,0,1,1,4-4A4,4,0,0,1,40,31Z"/><rect x="54" y="14" width="4" height="2"/><rect x="54" y="18" width="4" height="2"/><rect x="22" y="14" width="4" height="2"/><rect x="22" y="18" width="4" height="2"/><rect x="22" y="40" width="2" height="2"/><rect x="26" y="40" width="4" height="2"/></g></svg>