<svg xmlns="http://www.w3.org/2000/svg" viewBox="0 0 64 64"><g id="Truck-Transportation-Construction-Gear-Engineer"><path d="M55,38v2a1,1,0,0,0,1,1h5v6a2.006,2.006,0,0,1-2,2H39V24h6v9H60.84A3.773,3.773,0,0,1,61,34.11V37H56A1,1,0,0,0,55,38Z" style="fill:#3d9ae2"/><path d="M61,37v4H56a1,1,0,0,1-1-1V38a1,1,0,0,1,1-1Z" style="fill:#ffa733"/><path d="M60.84,33H45V24H55l5.43,8.05A3.793,3.793,0,0,1,60.84,33Z" style="fill:#e6e7e8"/><circle cx="49" cy="49" r="5" style="fill:#57565c"/><rect x="35" y="43" width="4" height="6" style="fill:#1e81ce"/><path d="M35,38V49H4a1,1,0,0,1-1-1V40H28l2-2Z" style="fill:#3d9ae2"/><path d="M35,28V38H31V28a2,2,0,0,1,4,0Z" style="fill:#1e81ce"/><circle cx="26" cy="49" r="5" style="fill:#57565c"/><path d="M25.68,25.47a9.8,9.8,0,0,1-1.09,2.62l2.02,2.69-2.83,2.83-2.69-2.02a9.8,9.8,0,0,1-2.62,1.09L18,36H14l-.47-3.32a9.8,9.8,0,0,1-2.62-1.09L8.22,33.61,5.39,30.78l2.02-2.69a9.8,9.8,0,0,1-1.09-2.62L3,25V21l3.32-.47a9.8,9.8,0,0,1,1.09-2.62L5.39,15.22l2.83-2.83,2.69,2.02a9.8,9.8,0,0,1,2.62-1.09L14,10h4l.47,3.32a9.8,9.8,0,0,1,2.62,1.09l2.69-2.02,2.83,2.83-2.02,2.69a9.8,9.8,0,0,1,1.09,2.62L29,21v4Z" style="fill:#ff9811"/><circle cx="16" cy="23" r="5" style="fill:#ffd422"/><circle cx="12" cy="49" r="5" style="fill:#57565c"/><rect x="44" y="36" width="4" height="2"/><rect x="11" y="48" width="2" height="2"/><rect x="25" y="48" width="2" height="2"/><rect x="48" y="48" width="2" height="2"/><path d="M59,50a3.009,3.009,0,0,0,3-3V34.11a5.073,5.073,0,0,0-.74-2.62l-5.43-8.05A1.024,1.024,0,0,0,55,23H39a1,1,0,0,0-1,1V42H36V28a3,3,0,0,0-6,0v9a1.033,1.033,0,0,0-.71.29L27.59,39H3a1,1,0,0,0-1,1v8a2.006,2.006,0,0,0,2,2H6.09a5.991,5.991,0,0,0,1.45,3H2v2H62V53H53.46a5.991,5.991,0,0,0,1.45-3Zm1-10H56V38h4ZM46,25h8.47l4.72,7H46ZM36,44h2v4H36ZM32,28a1,1,0,0,1,2,0v9H32ZM6.09,48H4V41H28a1.033,1.033,0,0,0,.71-.29L30.41,39H34v9H31.91a5.993,5.993,0,0,0-11.82,0H17.91A5.993,5.993,0,0,0,6.09,48ZM12,53a4,4,0,1,1,4-4A4,4,0,0,1,12,53Zm4.46,0a5.991,5.991,0,0,0,1.45-3h2.18a5.991,5.991,0,0,0,1.45,3ZM26,53a4,4,0,1,1,4-4A4,4,0,0,1,26,53Zm4.46,0a5.991,5.991,0,0,0,1.45-3H43.09a5.991,5.991,0,0,0,1.45,3ZM49,53a4,4,0,1,1,4-4A4,4,0,0,1,49,53Zm0-10a6.007,6.007,0,0,0-5.91,5H40V25h4v8a1,1,0,0,0,1,1H59.99c0,.04.01.07.01.11V36H56a2.006,2.006,0,0,0-2,2v2a2.006,2.006,0,0,0,2,2h4v2H57v2h3v1a1,1,0,0,1-1,1H54.91A6.007,6.007,0,0,0,49,43Z"/><path d="M2.858,25.99l2.682.383a10.96,10.96,0,0,0,.678,1.639L4.594,30.178a1,1,0,0,0,.093,1.307l2.828,2.828a1,1,0,0,0,1.307.093l2.166-1.624a10.96,10.96,0,0,0,1.639.678l.383,2.682A1,1,0,0,0,14,37h4a1,1,0,0,0,.99-.858l.383-2.682a10.96,10.96,0,0,0,1.639-.678l2.166,1.624a1,1,0,0,0,1.307-.093l2.828-2.828a1,1,0,0,0,.093-1.307l-1.624-2.166a10.96,10.96,0,0,0,.678-1.639l2.682-.383A1,1,0,0,0,30,25V21a1,1,0,0,0-.858-.99l-2.682-.383a10.96,10.96,0,0,0-.678-1.639l1.624-2.166a1,1,0,0,0-.093-1.307l-2.828-2.828a1,1,0,0,0-1.307-.093l-2.166,1.624a10.96,10.96,0,0,0-1.639-.678L18.99,9.858A1,1,0,0,0,18,9H14a1,1,0,0,0-.99.858l-.383,2.682a10.96,10.96,0,0,0-1.639.678L8.822,11.594a1,1,0,0,0-1.307.093L4.687,14.515a1,1,0,0,0-.093,1.307l1.624,2.166a10.96,10.96,0,0,0-.678,1.639l-2.682.383A1,1,0,0,0,2,21v4A1,1,0,0,0,2.858,25.99ZM4,21.867l2.463-.352a1,1,0,0,0,.828-.743,8.892,8.892,0,0,1,.975-2.356,1,1,0,0,0-.06-1.111l-1.492-1.99,1.6-1.6,1.99,1.492a1,1,0,0,0,1.111.06,8.892,8.892,0,0,1,2.356-.975,1,1,0,0,0,.743-.828L14.867,11h2.266l.352,2.463a1,1,0,0,0,.743.828,8.892,8.892,0,0,1,2.356.975,1,1,0,0,0,1.111-.06l1.99-1.492,1.6,1.6-1.492,1.99a1,1,0,0,0-.06,1.111,8.892,8.892,0,0,1,.975,2.356,1,1,0,0,0,.828.743L28,21.867v2.266l-2.463.352a1,1,0,0,0-.828.743,8.892,8.892,0,0,1-.975,2.356,1,1,0,0,0,.06,1.111l1.492,1.99-1.6,1.6L21.7,30.794a1,1,0,0,0-1.111-.06,8.892,8.892,0,0,1-2.356.975,1,1,0,0,0-.743.828L17.133,35H14.867l-.352-2.463a1,1,0,0,0-.743-.828,8.892,8.892,0,0,1-2.356-.975,1,1,0,0,0-1.111.06l-1.99,1.492-1.6-1.6L8.206,28.7a1,1,0,0,0,.06-1.111,8.892,8.892,0,0,1-.975-2.356,1,1,0,0,0-.828-.743L4,24.133Z"/><path d="M16,29a6,6,0,1,0-6-6A6.006,6.006,0,0,0,16,29Zm0-10a4,4,0,1,1-4,4A4,4,0,0,1,16,19Z"/><rect x="15" y="13" width="2" height="2"/><rect x="8.636" y="15.636" width="2" height="2" transform="translate(-8.941 11.686) rotate(-45)"/><rect x="6" y="22" width="2" height="2"/><rect x="8.636" y="28.364" width="2" height="2" transform="translate(-17.941 15.414) rotate(-45)"/><rect x="15" y="31" width="2" height="2"/><rect x="21.364" y="28.364" width="2" height="2" transform="translate(-14.213 24.414) rotate(-45)"/><rect x="24" y="22" width="2" height="2"/><rect x="21.364" y="15.636" width="2" height="2" transform="translate(-5.213 20.686) rotate(-45)"/></g></svg>