<svg xmlns="http://www.w3.org/2000/svg" viewBox="0 0 64 64"><g id="Web-Browser-Coding-Programing-Engineer"><path d="M31,11V41H11a2.006,2.006,0,0,1-2-2V11Z" style="fill:#3d9ae2"/><path d="M61,57v3a1,1,0,0,1-1,1H4a1,1,0,0,1-1-1V57Z" style="fill:#acabb1"/><path d="M55,5V39a2.006,2.006,0,0,1-2,2H31V3H53A2.006,2.006,0,0,1,55,5Z" style="fill:#5aaae7"/><path d="M31,3v8H9V5a2.006,2.006,0,0,1,2-2Z" style="fill:#ff5023"/><path d="M29,33v4l-3.32.47a9.8,9.8,0,0,1-1.09,2.62l.68.91H11V26.36a9.427,9.427,0,0,1,2.53-1.04L14,22h4l.47,3.32a9.8,9.8,0,0,1,2.62,1.09l2.69-2.02,2.83,2.83-2.02,2.69a9.8,9.8,0,0,1,1.09,2.62Z" style="fill:#1e81ce"/><path d="M23.68,35.47a9.8,9.8,0,0,1-1.09,2.62l2.02,2.69-.22.22H11a2.006,2.006,0,0,1-2-2V24.36a9.427,9.427,0,0,1,2.53-1.04L12,20h4l.47,3.32a9.8,9.8,0,0,1,2.62,1.09l2.69-2.02,2.83,2.83-2.02,2.69a9.8,9.8,0,0,1,1.09,2.62L27,31v4Z" style="fill:#ff9811"/><circle cx="14" cy="33" r="5" style="fill:#ffd422"/><polygon points="55 45 16.14 45 11.86 45 9 45 3 57 61 57 55 45" style="fill:#c6c5ca"/><path d="M61.9,56.553l-6-12A1,1,0,0,0,55,44H9a1,1,0,0,0-.895.553l-6,12A1,1,0,0,0,2,57v3a2,2,0,0,0,2,2H60a2,2,0,0,0,2-2V57A1,1,0,0,0,61.9,56.553ZM9.618,46H54.382l5,10H4.618ZM4,60V58H60v2Z"/><rect x="10" y="52" width="2" height="2"/><rect x="14" y="52" width="2" height="2"/><rect x="18" y="52" width="28" height="2"/><rect x="48" y="52" width="2" height="2"/><rect x="52" y="52" width="2" height="2"/><rect x="15" y="48" width="2" height="2"/><rect x="11" y="48" width="2" height="2"/><rect x="19" y="48" width="2" height="2"/><rect x="23" y="48" width="2" height="2"/><rect x="27" y="48" width="2" height="2"/><rect x="31" y="48" width="2" height="2"/><rect x="35" y="48" width="2" height="2"/><rect x="39" y="48" width="2" height="2"/><rect x="43" y="48" width="2" height="2"/><rect x="47" y="48" width="2" height="2"/><rect x="51" y="48" width="2" height="2"/><path d="M11,42H53a3,3,0,0,0,3-3V5a3,3,0,0,0-3-3H11A3,3,0,0,0,8,5V39A3,3,0,0,0,11,42Zm-1-3V37.46a6,6,0,1,0,0-8.92V24.976a8.46,8.46,0,0,1,1.775-.686,1,1,0,0,0,.746-.83L12.869,21h2.262l.348,2.46a1,1,0,0,0,.744.829,8.722,8.722,0,0,1,2.352.979,1,1,0,0,0,1.115-.058l2-1.5,1.6,1.6-1.5,2a1,1,0,0,0-.058,1.115,8.773,8.773,0,0,1,.979,2.352,1,1,0,0,0,.829.744l2.46.347v2.264l-2.46.347a1,1,0,0,0-.829.744,8.773,8.773,0,0,1-.979,2.352,1,1,0,0,0,.058,1.115L22.773,40H11A1,1,0,0,1,10,39Zm0-6a4,4,0,1,1,4,4A4,4,0,0,1,10,33Zm20,7H25.275l-1.5-1.991a10.859,10.859,0,0,0,.682-1.64l2.679-.379A1,1,0,0,0,28,35V31a1,1,0,0,0-.86-.99l-2.679-.379a10.859,10.859,0,0,0-.682-1.64L25.41,25.82a1,1,0,0,0-.093-1.307l-2.83-2.83a1,1,0,0,0-1.307-.093l-2.171,1.631a10.757,10.757,0,0,0-1.64-.682L16.99,19.86A1,1,0,0,0,16,19H12a1,1,0,0,0-.99.86l-.379,2.678c-.216.069-.421.159-.631.242V12H30ZM54,5V39a1,1,0,0,1-1,1H32V4H53A1,1,0,0,1,54,5ZM11,4H30v6H10V5A1,1,0,0,1,11,4Z"/><rect x="12" y="6" width="2" height="2"/><rect x="16" y="6" width="2" height="2"/><rect x="20" y="6" width="2" height="2"/><path d="M38.293,15.707l1.414-1.414L37.414,12l2.293-2.293L38.293,8.293l-3,3a1,1,0,0,0,0,1.414Z"/><path d="M47.707,15.707l3-3a1,1,0,0,0,0-1.414l-3-3L46.293,9.707,48.586,12l-2.293,2.293Z"/><rect x="39.838" y="11" width="6.325" height="2" transform="translate(18.012 48.995) rotate(-71.556)"/><rect x="35" y="19" width="4" height="2"/><rect x="41" y="19" width="8" height="2"/><rect x="37" y="23" width="6" height="2"/><rect x="45" y="23" width="4" height="2"/><rect x="35" y="27" width="4" height="2"/><rect x="41" y="27" width="6" height="2"/><rect x="37" y="31" width="8" height="2"/><rect x="47" y="31" width="2" height="2"/></g></svg>